<svg xmlns="http://www.w3.org/2000/svg" viewBox="0 0 121.72 73.33"><defs><style>.cls-1{fill:#1050a3}.cls-2{fill:#1956a7}.cls-3{fill:#fff}</style></defs><g id="Layer_2" data-name="Layer 2"><g id="Layer_1-2" data-name="Layer 1"><path class="cls-1" d="M.19 24.21a35 35 0 0111.74-6.08 38.6 38.6 0 0115.89-1.19 45.87 45.87 0 0113.4 3.74 1.33 1.33 0 001.23 0 45.19 45.19 0 0120.19-4 35.38 35.38 0 0120.1 7c.2.15.38.31.6.49a2.88 2.88 0 01-1.12-.26c-9-2.56-18-2.76-26.95.29A36.64 36.64 0 0043 31.37l-.42.37c-.84.73-.6.75-1.4 0a38 38 0 00-8.74-5.91 38.78 38.78 0 00-14.61-3.79 46.8 46.8 0 00-17 2c-.18.1-.37.11-.64.17zM110.41 14.3a43.93 43.93 0 00-5.15-2.3 29.65 29.65 0 00-10.55-1.81 25.24 25.24 0 00-11.64 3.11 5.45 5.45 0 00-.58.33.35.35 0 01-.55-.12c-.08-.14-.18-.26-.27-.39A25.74 25.74 0 0065.08 2.84a29.11 29.11 0 00-8.78-.44 1.41 1.41 0 01.81-.5A24.21 24.21 0 0174 1.19a30.35 30.35 0 019.23 4.64 1.57 1.57 0 001.38.28c6.49-1.17 12.79-.67 18.74 2.4a21.74 21.74 0 017.06 5.79zM28.62 57.26H27a5 5 0 115.12-5.15v.75c0 1.21 0 1.21 1.28 1.12a2.6 2.6 0 00-.14-.87 5 5 0 115.09 4.14h-5.57a.79.79 0 00-.93.64A4.9 4.9 0 0127 61.42h-2.08c-.42 0-.64-.08-.61-.57v-2.17c0-.37.15-.5.51-.49h2.26a1.82 1.82 0 001.54-.93zM38.18 54A1.75 1.75 0 0040 52.34a1.78 1.78 0 00-1.72-1.87 1.8 1.8 0 00-1.79 1.71A1.76 1.76 0 0038.18 54zm-9.33-1.78a1.8 1.8 0 00-1.72-1.78 1.78 1.78 0 101.72 1.78zM74.88 47h3.23v5.21A1.78 1.78 0 0079.94 54h2a7.86 7.86 0 01-.15-2.68 5 5 0 0110 1.15 5 5 0 01-4.93 4.75h-7a10.54 10.54 0 01-1.71-.22c-.09.35-.16.65-.26.94a5 5 0 01-4.59 3.46h-2.36c-.52 0-.65-.19-.63-.66v-2c0-.44.11-.63.58-.6s1.13 0 1.7 0a2 2 0 002.31-2.26c-.08-2.64 0-5.29 0-7.93zm11.89 3.44A1.83 1.83 0 0085 52.3a1.81 1.81 0 001.75 1.7 1.76 1.76 0 001.77-1.81 1.79 1.79 0 00-1.75-1.72zM61.47 42v3.21H55.7a1.17 1.17 0 00-1.07.47 1 1 0 00-.09 1 1 1 0 001 .6h2.74a5.46 5.46 0 012.12.38 5 5 0 013.08 5.31 4.94 4.94 0 01-4.67 4.31c-3.21.06-6.42 0-9.63 0-.48 0-.59-.18-.57-.61v-2.08c0-.4.12-.57.54-.55h9.25a1.78 1.78 0 100-3.55h-3a4.2 4.2 0 01-3.93-2.86A4.26 4.26 0 0152.7 43a3.81 3.81 0 012.4-1c2.11-.06 4.21 0 6.37 0zM10.63 57.26H4.87a5 5 0 01-1.46-9.74 4.29 4.29 0 011.29-.26H8c.42 0 .56.15.54.55v2.08c0 .44-.12.62-.59.61H5.41a2.72 2.72 0 00-.94.11 1.76 1.76 0 00-1.23 1.8A1.77 1.77 0 004.73 54a3.5 3.5 0 00.65 0H16a2.49 2.49 0 001.11-.17 1.81 1.81 0 001-1.77v-4c0-.79 0-.79.76-.8s1.26 0 1.89 0c.42 0 .62.11.61.58 0 1.51.05 3 0 4.53a5 5 0 01-5.05 4.84h-5.66zM121.72 50.19v2.08a5 5 0 01-6.12 4.87c-.66-.14-.66-.14-.86.55a5 5 0 01-4.87 3.73h-2.27c-.41 0-.56-.14-.54-.55V58.8c0-.44.13-.64.59-.61h1.89c1.47 0 2.12-.65 2.13-2.14v-7.56c0-1.32-.15-1.16 1.13-1.17h1.42c.68 0 .69 0 .69.67v3.88c0 1.29.69 2.18 1.8 2.16s1.74-.83 1.75-2.15 0-2.65 0-4c0-.48.14-.67.64-.64h2.08c.42 0 .55.16.54.56v2.39z"/><path class="cls-1" d="M99.86 61.46h-2.8c-.23 0-.44 0-.43-.36a17.66 17.66 0 01.08-2.91 4.93 4.93 0 013.6-4l.61-.19a5.79 5.79 0 01-.18-2.86 5.06 5.06 0 015.47-3.9 5 5 0 014.44 5.21 5 5 0 01-4.8 4.77h-3.77c-1.57 0-2.21.65-2.22 2.25zm7.55-9.25a1.79 1.79 0 00-1.76-1.74 1.84 1.84 0 00-1.79 1.83 1.82 1.82 0 001.78 1.7 1.77 1.77 0 001.77-1.79zM120.88 31.72a19.59 19.59 0 00-4.35-1.48 13.15 13.15 0 00-9 1.28c-.4.22-.62.22-.92-.18-2.82-3.75-6.71-5.31-11.29-5.45h-1.4V26c0-.32.23-.28.37-.34a12.58 12.58 0 019.29 0 14.6 14.6 0 013.67 1.92 1.55 1.55 0 001.29.3 14.54 14.54 0 018.59.93 9.7 9.7 0 014 3zM43.11 37.76h3.3c.48 0 .69.14.66.64s0 1.2 0 1.8c0 .79 0 .79-.86.8H40.07a1.21 1.21 0 000 2.42 16.05 16.05 0 001.7 0c.37 0 .59.08.58.52v2.26c0 .25 0 .46-.34.45a12.18 12.18 0 01-3.19-.18 4.49 4.49 0 01-3.19-4.68 4.45 4.45 0 014.27-4h3.21z"/><path class="cls-2" d="M68.23 52.08v4.15a5 5 0 01-5.23 5.2 18 18 0 00-2.08 0c-.42 0-.54-.17-.53-.56v-2.08c0-.44.12-.63.59-.61h2a1.8 1.8 0 002-2v-8.3c0-.86 0-.86.89-.86h1.41c1.14 0 1 0 1 .94zM69.64 49.79V43.1c0-.76 0-.76.79-.77s1.32 0 2 0c.34 0 .53.11.51.49a5.42 5.42 0 000 .57v13c0 .81 0 .81-.84.82h-1.79c-.6 0-.68-.14-.66-.64v-2.55z"/><path class="cls-1" d="M44 42.33h2.6c.43 0 .55.19.52.57V56.68c0 .34-.09.53-.48.53h-2.4c-.27 0-.4-.12-.4-.39V42.94a1 1 0 01.16-.61zM96 42.33a1.63 1.63 0 01.12.9v13.56a.4.4 0 01-.41.39h-2.38c-.31 0-.48-.11-.47-.44V43.27v-.47c0-.31.09-.47.43-.47H96z"/><path class="cls-2" d="M22 69.85c-.24-.21-.54-.11-.81-.14-.83-.07-1.22-.45-1.25-1.23A1.35 1.35 0 0121.16 67a1.5 1.5 0 011.72 1.25 4.37 4.37 0 010 1.69 1.21 1.21 0 01-1.38 1.13 9.45 9.45 0 01-3.18-.18 8.16 8.16 0 01-2.61.19 4.73 4.73 0 01-.84 0 1.06 1.06 0 01-1-1.14v-3.77c0-.34.15-.43.46-.43s.4.21.4.49v3c0 1 .11 1 1 1h1.32c.68 0 .79-.13.82-.85a2.46 2.46 0 000-.47c0-.32.12-.45.44-.45s.43.12.47.44c.13 1.33.14 1.33 1.47 1.33h1.32c.16.01.43-.04.43-.38zm0-1a.78.78 0 00-.59-.88.53.53 0 00-.72.39c-.09.39.2.47.5.49s.51-.05.81-.05z"/><path class="cls-1" d="M13 49.67c-.89 1.13-1.56 1.42-2.45 1.08A1.79 1.79 0 019.45 49a1.74 1.74 0 011.36-1.61c.86-.22 1.49.11 2.16 1.17.23-.12.28-.38.43-.56a1.78 1.78 0 110 2.25 5.76 5.76 0 01-.4-.58zM23.58 63.54H1c-.32 0-.9.26-.91-.26 0-.35.57-.19.88-.19h45.15c.31 0 .86-.17.87.22s-.55.23-.85.23z"/><path class="cls-2" d="M39.41 72.41a8.61 8.61 0 001-.1 1.09 1.09 0 001-1.17v-2.17c0-.3.07-.48.41-.49s.5.11.52.48c.09 1.29.11 1.29 1.42 1.29h1.6c.29 0 .57 0 .7-.38-.27-.23-.59-.13-.88-.16-.8-.08-1.14-.41-1.17-1.19a1.33 1.33 0 011-1.46 1.49 1.49 0 011.81 1.11A2.93 2.93 0 0147 69c0 1.59-.35 2.25-2.06 2.12a10.09 10.09 0 01-2.47-.12c-.19.22-.17.53-.25.79a2 2 0 01-2 1.49c-.64.02-.65.01-.81-.87zm6.72-3.69a.9.9 0 00-.7-.82.55.55 0 00-.66.48c0 .32.21.41.48.42a1.52 1.52 0 00.88-.08zM3.54 69.84l.36.06c1 .12 1.41.45 1.51 1.13a1.9 1.9 0 01-1.14 2.07A5.23 5.23 0 011 73a1.57 1.57 0 01-1-1.49v-1.8c0-.33.15-.42.46-.42s.4.2.4.48V71a1.28 1.28 0 001.38 1.35h1.32a1 1 0 00.75-.33.93.93 0 00.24-.88c-.1-.31-.39-.39-.66-.46s-.26 0-.38 0c-.86 0-.87 0-.86-1a4.71 4.71 0 010-.75 1.77 1.77 0 012.25-1.32c.25.06.25.24.25.43s0 .4-.22.45a2.38 2.38 0 01-.38 0c-1.02.13-1.11.24-1.01 1.35zM.25 39.12a3.92 3.92 0 013.86-4A3.93 3.93 0 014.17 43a3.92 3.92 0 01-3.92-3.88zm7.18-.06a3.34 3.34 0 00-3.36-3.34 3.37 3.37 0 000 6.74 3.35 3.35 0 003.36-3.4zM32.31 71.05a9 9 0 01-.24.88 2.13 2.13 0 01-2.34 1.34c-.33-.07-.36-.3-.39-.56s.17-.35.41-.35a1.21 1.21 0 00.19 0c1.09-.11 1.4-.45 1.41-1.58v-1.79c0-.35.1-.52.48-.51s.4.18.42.47c.1 1.3.11 1.3 1.42 1.3h2.54c.84 0 .86-.1.89-.87v-.56c0-.19.22-.34.45-.34s.45 0 .45.35a9.51 9.51 0 010 1.31 1 1 0 01-1.1 1 36.46 36.46 0 01-4.59-.09zM12.6 70.2v.57a2.35 2.35 0 01-2.8 2.51c-.38 0-.48-.21-.51-.53s.24-.36.49-.37.57 0 .85 0a1.13 1.13 0 00.92-.57c.23-.38.16-.55-.28-.64h-.09c-1.39-.27-1.73-.76-1.52-2.15a1.28 1.28 0 011.39-1.25A1.31 1.31 0 0112.54 69c.06.4.06.81.08 1.22zm-.87-.56a1.29 1.29 0 00-.13-.73.6.6 0 00-.89-.17.94.94 0 00-.26.86.67.67 0 00.5.61c.58.21.79.06.78-.57z"/><path class="cls-1" d="M88.53 44.11a1.76 1.76 0 01-1.78 1.8 1.79 1.79 0 010-3.57 1.76 1.76 0 011.78 1.77zM116.69 45.91a1.79 1.79 0 010-3.57 1.79 1.79 0 110 3.57z"/><path class="cls-2" d="M78.29 44.1a1.79 1.79 0 01-3.58.06 1.79 1.79 0 113.58-.06zM23.9 72.43h.08c1.71-.15 1.86-.31 1.87-2v-1.55c0-.34.19-.41.48-.41s.41.11.41.39v2.55a2 2 0 01-2 1.86c-.81.04-.84 0-.84-.84zM5.87 72.45c.16-.14.36-.08.54-.12.8-.18 1.06-.47 1.1-1.29s0-1.38 0-2.07c0-.38.15-.5.51-.49s.39.22.39.5v2.26a2 2 0 01-1.7 2c-.71.12-.78.05-.84-.79zM39.19 68.4v-2.26c0-.27.09-.4.37-.4s.48.07.47.41v4.61c0 .29-.17.36-.42.36s-.42-.08-.42-.37V68.4zM28.77 68.46v2.17c0 .29 0 .49-.4.49S28 71 28 70.67v-4.44c0-.27 0-.48.4-.49s.43.25.43.55c-.06.71-.06 1.45-.06 2.17zM45.33 65.3a.62.62 0 01.66.64.59.59 0 01-.57.62.65.65 0 01-.72-.56.66.66 0 01.63-.7zM17.91 66.36a.68.68 0 01.62.7.65.65 0 01-.72.59.6.6 0 01-.56-.64.66.66 0 01.66-.65zM26.34 66.32A.63.63 0 0127 67a.63.63 0 01-.61.61.65.65 0 01-.66-.65.62.62 0 01.61-.64zM22 65.91a.66.66 0 01-.65.66.63.63 0 01-.64-.66.59.59 0 01.59-.6.64.64 0 01.7.6zM37 67.14c-.06.3-.22.52-.56.51a.5.5 0 01-.52-.53.54.54 0 01.59-.56.58.58 0 01.49.58zM38 66.56a.54.54 0 01.48.57.52.52 0 01-.62.51.5.5 0 01-.44-.6.54.54 0 01.58-.48zM120.88 31.72h.31c.15 0 .18.1.21.22a.56.56 0 01-.23 0 1.81 1.81 0 01-.29-.22z"/><path class="cls-3" d="M38.18 54a1.76 1.76 0 01-1.73-1.85 1.8 1.8 0 011.79-1.71 1.78 1.78 0 011.76 1.9A1.75 1.75 0 0138.18 54zM28.85 52.25a1.76 1.76 0 11-1.72-1.78 1.8 1.8 0 011.72 1.78zM86.77 50.47a1.79 1.79 0 011.75 1.75A1.76 1.76 0 0186.75 54 1.81 1.81 0 0185 52.3a1.83 1.83 0 011.77-1.83zM107.41 52.21a1.77 1.77 0 01-1.77 1.79 1.82 1.82 0 01-1.78-1.73 1.84 1.84 0 011.79-1.83 1.79 1.79 0 011.76 1.77zM22 68.8h-.81c-.24 0-.59-.1-.5-.49a.53.53 0 01.72-.39.78.78 0 01.59.88zM46.13 68.72a1.52 1.52 0 01-.88.08c-.27 0-.5-.1-.48-.42a.55.55 0 01.66-.48.9.9 0 01.7.82zM7.43 39.06a3.35 3.35 0 01-3.31 3.4 3.37 3.37 0 010-6.74 3.34 3.34 0 013.31 3.34zM5 39.37c.06-.21.24-.22.36-.31a1 1 0 00.41-1.16 1 1 0 00-.95-.76h-.47c-1.65-.06-1.65-.06-1.65 1.61v2c0 .17 0 .32.25.32s.27-.11.28-.29 0-.57 0-.85c0-.55.15-.63.69-.56a1 1 0 01.74.51c.22.31.42.63.62 1a.46.46 0 00.73.14A8.35 8.35 0 005 39.37zM11.73 69.64c0 .63-.2.78-.78.57a.67.67 0 01-.5-.61.94.94 0 01.26-.86.6.6 0 01.89.17 1.29 1.29 0 01.13.73z"/><path class="cls-2" d="M5 39.37a8.35 8.35 0 011 1.55.46.46 0 01-.73-.14l-.62-1a1 1 0 00-.74-.51c-.54-.07-.67 0-.69.56v.85c0 .29-.07.32-.22.32s-.25-.15-.25-.32v-2c0-1.67 0-1.67 1.65-1.61h.47a1 1 0 01.95.76 1 1 0 01-.41 1.16c-.17.16-.35.17-.41.38zm-.93-1.79c-.24.07-.62-.18-.79.21-.28.62 0 1.07.71 1.07a3.65 3.65 0 00.47 0c.4 0 .75-.17.8-.64s-.29-.6-.87-.63z"/><path class="cls-3" d="M4.07 37.58h.32c.58 0 .9.26.87.63s-.4.6-.8.64a3.65 3.65 0 01-.47 0c-.68 0-1-.45-.71-1.07.17-.38.55-.13.79-.2z"/></g></g></svg>