<svg xmlns="http://www.w3.org/2000/svg" viewBox="0 0 97.25 127.3"><defs><style>.cls-1{fill:#706f6f}.cls-3{fill:#7868f6}</style></defs><g id="Layer_2" data-name="Layer 2"><g id="Layer_1-2" data-name="Layer 1"><path class="cls-1" d="M22.17 113.21h2.13v4.06a2.68 2.68 0 012-.76c1.83 0 3.35 1.31 3.35 3.73v3.34c0 2.41-1.52 3.72-3.4 3.72a2.38 2.38 0 01-2.17-1.16v.92h-1.91zm5.3 10.33v-3.27a1.59 1.59 0 00-1.6-1.74 1.55 1.55 0 00-1.57 1.74v3.27a1.55 1.55 0 001.57 1.75 1.59 1.59 0 001.6-1.75zM38.49 120.24v6.82h-1.86v-.71a3 3 0 01-2.28 1 3 3 0 01-3.27-3.21 3.15 3.15 0 013.44-3.23 3 3 0 011.84.57v-1.16c0-1.06-.51-1.74-1.44-1.74a1.36 1.36 0 00-1.45 1.42v.17h-2.12V120a3.35 3.35 0 013.57-3.48 3.48 3.48 0 013.57 3.72zm-2.05 3.85a1.43 1.43 0 00-1.6-1.48 1.48 1.48 0 100 3 1.44 1.44 0 001.6-1.52zM42.75 113.21v13.85h-2.13v-13.85zM51.88 120.24v6.82H50v-.71a3 3 0 01-2.28 1 3 3 0 01-3.26-3.21 3.14 3.14 0 013.43-3.23 3 3 0 011.85.57v-1.16c0-1.06-.52-1.74-1.45-1.74a1.36 1.36 0 00-1.42 1.42v.17h-2.13V120a3.35 3.35 0 013.57-3.48 3.47 3.47 0 013.57 3.72zm-2.05 3.85a1.43 1.43 0 00-1.59-1.48 1.48 1.48 0 100 3 1.44 1.44 0 001.59-1.52zM59.07 117.24v-4h2.12v13.85h-1.88v-.88a2.42 2.42 0 01-2.14 1.12c-1.88 0-3.38-1.31-3.38-3.72v-3.34c0-2.42 1.52-3.73 3.32-3.73a2.71 2.71 0 011.96.7zm0 3a1.6 1.6 0 10-3.18 0v3.27a1.6 1.6 0 103.18 0zM65.93 127.06h-2.61v-2.64h2.61zM70.26 115.39H68v-2.24h2.26zm-.08 11.67h-2.12v-10.3h2.12zM76.59 118.75a2 2 0 00-2.08 2.17v6.14h-2.14v-10.3h1.94V118a2.75 2.75 0 012.54-1.47h.36v2.24z"/><rect x=".01" y=".01" width="97.22" height="97.22" rx="7.68" fill="#241957"/><path class="cls-3" d="M24.32 0v24.3h24.3a24.3 24.3 0 0124.31 24.3V0zM24.32 48.62v-24.3H0v48.61h48.6a24.3 24.3 0 01-24.28-24.31z"/><path d="M48.62 24.32h-24.3v24.3a24.3 24.3 0 0024.3 24.31 24.3 24.3 0 0024.31-24.31 24.3 24.3 0 00-24.31-24.3z" fill="#f8d748"/><circle cx="48.62" cy="48.62" r="17.19" fill="#ef8b32"/><circle cx="48.62" cy="48.62" r="9.8" fill="#fff"/><rect x=".01" y=".01" width="97.22" height="97.22" rx="7.68" fill="none" stroke="#fff" stroke-miterlimit="10" stroke-width=".03"/></g></g></svg>