<svg xmlns="http://www.w3.org/2000/svg" width="458pt" height="152pt" viewBox="0 0 458 152"><g fill="#06df6f"><path d="M11 23c6-9 17-13 27-13 11 0 22 3 32 8-2 4-3 7-6 10-3 4-8 7-14 5-5-1-10-2-15 1-3 2-5 7-3 10 3 4 9 5 13 7 9 2 18 5 24 12 5 7 6 17 4 25-1 8-5 16-12 21-11 7-24 8-36 6-9-2-17-6-25-10v-1l11-20 13 8c5 2 11 3 17 1 3-2 6-6 6-10s-4-6-7-8c-8-4-19-4-27-10-4-3-7-8-8-13-2-10-1-21 6-29zM433 13h25v2l-11 42c-2 5-2 11-7 15-6 6-15 3-23 4l16-63zM117 44c8-2 19-2 26 4 5 6 7 14 7 22v29c0 4-2 9-6 11-5 4-12 3-18 3V76c0-4 0-9-3-12-3-2-7-2-11-2-5 1-8 6-9 11v27c-1 6-5 11-11 13H79V66 45h24v8c4-4 8-8 14-9zM160 59c7-13 25-20 39-15 4 1 8 4 11 7v-6h24v53c1 5-2 10-6 12-5 4-12 3-18 3v-7l-10 8c-12 4-25 1-33-8a39 39 0 01-7-47m30 5c-10 3-13 18-6 25 5 6 14 7 20 3 8-4 9-15 4-22-4-6-11-8-18-6zM277 44c10-3 21-1 29 5 7 4 11 12 14 19 4 15-1 34-15 42-12 8-29 7-39-3v22c-1 6-5 11-11 13h-13V53v-8h24v7l11-8m-2 20c-9 3-13 16-7 24 4 7 14 8 21 5 8-5 9-16 4-23-4-6-11-8-18-6zM360 44c11-3 23-1 31 6 18 14 19 44 1 58-8 7-20 10-31 6-4-1-7-4-11-6v20c0 6-5 12-10 14h-14V53v-8h24v7l10-8m-1 20c-9 3-13 15-8 23 4 8 15 9 22 5 8-4 9-15 4-22-4-6-11-8-18-6zM420 85c8-2 18 3 20 11 3 9-5 19-14 19a15 15 0 01-6-30z"/></g></svg>