<svg xmlns="http://www.w3.org/2000/svg" width="640pt" height="640pt" viewBox="0 0 640 640"><g fill="#fffffe"><path d="M334 451c2-3 6-8 10-4-3 3-7 4-10 4zM388 467h6c-3 4-7 7-11 7l5-7zM230 557c2-3 5-7 9-5-1 4-6 5-9 5z"/></g><g fill="#110603"><path d="M313 16c6-2 11 0 16 2 6 3 10 8 15 12l36 37 73 72 73 73 83 84c3 4 7 6 9 10 1 4 2 9 1 13-1 6-5 12-10 16-5 3-11 5-17 4-4-1-8-2-12-5l-32-32c-7-7-13-15-21-21l-36-37-70-70-70-70-17-17c-9-7-23-7-32 1l-18 17-19 19-86 86-15 15-28 27-38 38-39 38c-4 5-10 8-16 9-10 0-20-6-24-15-2-5-2-10-1-15 2-7 8-11 12-17l91-89L225 98l22-22 55-54c3-3 7-5 11-6z"/><path d="M193 220l66-39c8 11 13 23 20 33 4 1 8-1 12-1l10-2c17-1 34-1 51 3 2 0 5 2 7 0l19-32c23 13 45 25 67 39l-11 19-8 14 6 7a144 144 0 0132 52l3 9 36 1v38l-70-1a116 116 0 00-95-108c-39-7-82 8-107 39-17 18-26 43-28 68h-70v-38h36c7-25 21-48 40-66 1-1 2-3 1-4l-17-31zM627 388l9-10c-1 6-5 10-9 14-10 10-22 18-33 27l-2 11c0 4-2 7-4 11l3 4-3 3h-5l-5 6c-2 1-5 0-6 2l-13 8h-6l-5 6c-2 3-3 7-6 10l-11 4c4-5 10-6 13-11-2-1-6-1-6-4l5-9c3-2 5 2 6 4l5-5 5 1 11-7 2-10 3 4h5l7-8c2-4 1-8 2-12l5-10c2-5 7-8 11-11l22-18zM119 425c1-1 2-4 4-4 1 1 3 2 3 4l-3 6-4-3-4 5-4-4 4-7 4 3zM310 432l4-8c2 1 4 3 4 5l-3 6-5-3zM382 437l4-8 5 5-3 6c-3 0-4-2-6-3zM453 435c2 1 4 2 4 4 0 3-2 5-3 7l-5-3 4-8zM462 455c-1-6 1-13 4-18v16c0 6-2 12-5 16l1-14zM342 440c2-1 6 1 5 3 0 7-6 14-13 16-3 1-6 0-9-2l-4 4h-5l-6 5h-6c-3 1-5 6-9 5l-3-1c-5 7-15 10-23 11-7 1-15 2-22 1l-5-5 1-12c1 3 2 6 5 7 11 2 22 2 33-1l12-5c2 2 6 0 8-2 2 0 3-2 1-3l-3-1c2-4 7-6 12-3l-2 5c3-1 5-3 7-6h6l5-5h5c3-4 5-9 10-11m-8 11c3 0 7-1 10-4-4-4-8 1-10 4zM91 466c1-8 1-16 5-23l-2 26 3 4c5 1 9-1 12-4H99l5-7c6-5 13-11 21-13-2 3-4 6-7 7-5 3-11 5-15 10l11-1-6 8c-2 4-5 8-10 8-3 1-6-1-7-3v-12zM374 455l4-11-2 25c0 3 3 4 5 5l7-10c3-3 7 0 11 0l-7 10c-2 5-6 9-12 9-4 0-8-4-8-8l2-20m14 12l-5 7c4 0 8-3 11-7h-6zM441 465c1-7 1-14 5-21l-3 24c1 2 1 5 3 6 3 1 4-3 6-5-1 5-2 10-6 14-2 1-4-1-5-3-2-4-1-10 0-15zM42 451l4-5 4 4c0 3-3 5-4 7l-4-4-3 5-5-4 5-7 3 4z"/><path d="M269 447c2 2 4 3 4 5 1 2-2 4-3 6l-4-3-3 5-5-4 4-7 4 3 3-5zM364 448l5 4-4 7-5-4 4-7zM479 451c2-1 5 2 8 2l6-1-2 5-11 11c-2 4-2 9-6 12-3 2-7 3-10 3 3-4 10-6 12-12h-4c-4-4 1-9 4-12 2 0 4 2 5 4l5-5c-2-1-4-3-7-3l-5 3c1-2 2-5 5-7zM174 464c0-3 2-7 4-10 0 9-1 19-5 27-3 7-8 13-16 15-5 1-10-1-12-5-3-4-2-9-1-14s3-9 6-13c-1 5-4 10-4 15 0 4 4 8 8 8 7 1 15-2 18-9 3-4 1-9 2-14zM433 473c-1-6 0-12 3-17 1 9 0 19-4 28-3 5-8 11-14 13-5 1-11 1-14-4-3-4-3-10-1-15 1-5 3-9 6-12-1 5-5 9-4 15 0 4 3 6 6 7 10 2 21-5 22-15zM528 463l3-7c1 10 0 21-6 30-3 7-10 12-18 12-4 0-8-2-9-6-3-5-1-10 0-15 2-4 3-8 6-11-1 5-4 9-4 14-1 4 2 7 6 8 7 2 17-1 20-9 3-5 0-11 2-16zM135 458c2-1 4 2 4 5l-3 12c-3 5-9 5-14 7 4-5 11-7 13-12l-6-2c1-4 2-8 6-10zM214 468l8-10c2 2 4 6 2 8-2 3-6 0-8 3l-6 7h-5c-3 3-6 7-11 6-3 0-4-4-5-6-2 2-3 5-5 5-3 2-7 2-10 2 4-3 10-5 13-10l7-11c0 4-3 7 0 10 2 2 6 2 8 0-1-2-3-2-5-3 2-3 7-6 11-4 3 2 0 5 0 7 2-1 5-2 6-4zM79 473c4-4 5-10 8-15 0 6-2 12-4 17-3 5-9 6-14 6l10-8zM238 465c0-2 2-4 3-5l-5 14c0 2 3 3 3 6 0 2-2 4-4 4-2-1-3-4-2-6l5-13zM64 467c3-1 4-4 6-5-1 5-4 11-9 14-9 4-19 5-28 5-4 0-9 0-13-3-4-4-1-10 0-15l2 6c4 3 9 3 14 3 9 0 20 0 28-5z"/><path d="M161 464c1 1 4 3 4 5 0 3-2 5-4 7l-5-4 5-8zM419 465l5 4c0 4-2 6-4 8l-5-4 4-8zM514 465l5 5c0 3-2 6-4 8l-5-4 4-9zM365 474l4-4c0 4-2 9-6 11-2 2-5 1-8 2l-5 2c1-4 4-7 7-10 3-2 6 0 8-1zM564 493l4-4 4 4c0 3-3 5-4 7l-4-3-3 4-5-3 4-8 4 3zM482 498l4-8 4 5-3 6-5-3zM97 501l5 5-4 6-5-3 4-8zM548 505l4 5-4 7-4-4-3 5-5-4c1-2 2-5 5-7l3 3 4-5zM357 525l4 4c0 3-2 5-3 7l-5-4 4-7zM224 529c2 1 4 2 5 5l-4 6-5-4 4-7zM419 535l3-5c2 2 4 3 4 6l-4 5-3-3-4 5-4-3c0-3 2-6 4-8l4 3zM332 556c-1-6 0-13 4-18-1 11 2 23-5 32l1-14zM301 575c1-10 1-21 6-30l-2 26c0 2 1 4 3 5 4 1 7-3 10-4 2 0 2-2 3-3h3l2-4c1 6-5 12-11 13-3 1-4 6-8 6-5 0-6-5-6-9zM227 557c3-3 6-8 10-10 3-1 6 1 5 4-1 6-6 11-11 13l-9-2-5 7c-2 4-2 8-6 11-3 2-7 3-10 3 4-4 10-6 12-11l-6-2c1-4 3-8 6-10 2-1 3 2 5 3l5-8 4 2m3 0c3 0 8-1 9-5-4-2-7 2-9 5zM408 568c1-7 1-15 5-22 0 8-3 17-2 26 1 3 4 5 7 4 2 0 3-3 5-4 1-2 4-1 5-2l10-8c-1 2-1 5-3 7l-8 6c-2 1-5 1-6 3-2 2-3 5-6 6s-5 0-6-3c-3-4-2-9-1-13zM187 561c4-5 9-11 16-12 0 3-1 5-3 8-6-1-10 5-13 10 2 1 6 2 6 6-1 8-3 16-9 22-4 3-11 5-16 3-4-2-6-6-6-10 0-7 3-14 6-20l5-8c-1 8-7 14-7 22 0 3 1 6 4 7 8 3 18-2 20-10-2-1-5-2-6-4-2-5 1-10 3-14zM443 567c-1-6 1-11 4-16v17c-1 5-1 11-6 15l2-16zM356 553h9l-3 5c-3 3-4 7-7 9-2 4-7 4-9 8-2 2-3 6-6 7-3 2-6 2-10 2 2-3 7-4 10-7 3-1 4-4 5-7 3-6 12-6 13-12l-5-2-5 3c1-3 4-7 8-6zM294 569c0-4 1-9 3-13 1 10 0 20-4 28-3 7-9 13-17 14-5 1-10-1-12-6s-1-11 1-16c1-3 2-7 5-10-1 6-5 11-4 17 1 3 4 5 7 6 7 1 16-2 19-9 2-3 2-7 2-11zM400 563l3-6c1 10 0 22-6 31-3 5-9 10-15 11-5 0-11-2-12-7-2-4-1-9 0-14 2-4 3-8 6-11-1 5-5 10-4 15 0 4 3 7 6 7 8 2 17-2 20-10 3-5 0-10 2-16zM251 576c4-5 4-11 8-15 0 6-2 11-5 16-2 6-9 6-14 7 3-4 8-5 11-8z"/><path d="M280 566c2 2 5 3 5 6s-2 4-4 6l-5-4 4-8zM386 566c2 2 5 3 5 6s-2 5-4 7l-5-4 4-9z"/></g><g fill="#a77e22"><path d="M273 285l5-12c3 13 6 26 13 37-3 1-7 2-8 5-3 2-2 6-2 9l5-6-1 10 2 10v5c-6-5-10-12-14-19l-4-13c0-9 5-17 4-26zM344 302c3 3 3 7 3 11l5 1v2l-5 2 1 9-2 7v2l-2 6-1 1-7 7c-2-3-4-7-3-11v-11l3-2c-2-2-4-4-7-4 7-5 12-12 15-20z"/></g><path fill="#bd9e40" d="M352 273c5 8 8 18 9 27 2 16-6 32-17 42l2-6v-2l2-7-1-9 5-2v-2l-5-1c0-4 0-8-3-11 4-9 6-19 8-29z"/><g fill="#9b6c0f"><path d="M313 281c5-1 9 1 13 3 7 3 10 11 9 18-1 6-4 11-9 14-6 4-15 4-20 0-9-5-11-17-6-25 2-6 8-9 13-10z"/><path d="M283 315c1-3 5-4 8-5 5 9 15 16 26 16 4 0 8-2 12-4 3 0 5 2 7 4l-3 2v11c-1 4 1 8 3 11l-21 23-11-12c-5-6-12-11-17-18v-5l-2-10 1-10-5 6c0-3-1-7 2-9z"/></g><path fill="#b29131" d="M269 299c1-5 1-10 4-14 1 9-4 17-4 26v-12z"/></svg>