<svg xmlns="http://www.w3.org/2000/svg" xmlns:xlink="http://www.w3.org/1999/xlink" viewBox="0 0 485.56 470.57"><defs><linearGradient id="a" x1="247.8" y1="136.05" x2="241.2" y2="386.39" gradientUnits="userSpaceOnUse"><stop offset="0" stop-color="#67b1f1"/><stop offset=".99" stop-color="#f0f9ff"/></linearGradient><linearGradient id="h" x1="296.57" y1="189.51" x2="197.16" y2="196.44" gradientUnits="userSpaceOnUse"><stop offset="0" stop-color="#589ee8"/><stop offset="1" stop-color="#e2f0fe"/></linearGradient><linearGradient id="b" x1="211.1" y1="194.07" x2="287.5" y2="194.07" gradientUnits="userSpaceOnUse"><stop offset=".01" stop-color="#1f5699"/><stop offset=".99" stop-color="#1f5699" stop-opacity="0"/></linearGradient><linearGradient id="i" x1="211.21" y1="120.78" x2="286.47" y2="120.78" xlink:href="#a"/><linearGradient id="j" x1="211.09" y1="120.33" x2="287.5" y2="120.33" xlink:href="#b"/><linearGradient id="k" x1="259.28" y1="229.29" x2="151.28" y2="233.91" xlink:href="#a"/><linearGradient id="l" x1="169.35" y1="231.4" x2="245.75" y2="231.4" xlink:href="#b"/><linearGradient id="m" x1="318.03" y1="171.85" x2="160.16" y2="171.19" xlink:href="#a"/><linearGradient id="n" x1="169.33" y1="170.93" x2="245.75" y2="170.93" xlink:href="#b"/><linearGradient id="o" x1="220.74" y1="266.99" x2="92.6" y2="271.28" xlink:href="#a"/><linearGradient id="p" x1="127.62" y1="268.68" x2="204.02" y2="268.68" xlink:href="#b"/><linearGradient id="q" x1="128" y1="221.36" x2="203.26" y2="221.36" xlink:href="#a"/><linearGradient id="r" x1="127.61" y1="221.46" x2="204.02" y2="221.46" xlink:href="#b"/><linearGradient id="s" x1="172.79" y1="306.04" x2="29.12" y2="306.04" xlink:href="#a"/><linearGradient id="t" x1="85.53" y1="305.26" x2="161.94" y2="305.26" xlink:href="#b"/><linearGradient id="u" x1="86.1" y1="270.73" x2="161.36" y2="270.73" xlink:href="#a"/><linearGradient id="v" x1="85.52" y1="270.73" x2="161.94" y2="270.73" xlink:href="#b"/><linearGradient id="w" x1="135.91" y1="341.74" x2="-8.42" y2="341.08" xlink:href="#a"/><linearGradient id="x" x1="43.46" y1="341.64" x2="119.86" y2="341.64" xlink:href="#b"/><linearGradient id="y" x1="44.03" y1="319.84" x2="119.29" y2="319.84" xlink:href="#a"/><linearGradient id="z" x1="43.45" y1="319.84" x2="119.87" y2="319.84" xlink:href="#b"/><linearGradient id="A" x1="327.33" y1="232.81" x2="193.56" y2="229.18" xlink:href="#a"/><linearGradient id="B" x1="252.83" y1="231.41" x2="329.15" y2="231.41" xlink:href="#b"/><linearGradient id="C" x1="252.91" y1="171.38" x2="328.17" y2="171.38" xlink:href="#a"/><linearGradient id="D" x1="252.79" y1="170.93" x2="329.2" y2="170.93" xlink:href="#b"/><linearGradient id="E" x1="382.54" y1="268.74" x2="216.74" y2="268.41" xlink:href="#a"/><linearGradient id="F" x1="294.56" y1="268.68" x2="370.87" y2="268.68" xlink:href="#b"/><linearGradient id="G" x1="294.64" y1="221.91" x2="369.9" y2="221.91" xlink:href="#a"/><linearGradient id="H" x1="294.51" y1="221.46" x2="370.93" y2="221.46" xlink:href="#b"/><linearGradient id="I" x1="409.62" y1="303.69" x2="296.67" y2="306.99" xlink:href="#a"/><linearGradient id="J" x1="336.64" y1="305.26" x2="412.96" y2="305.26" xlink:href="#b"/><linearGradient id="K" x1="336.72" y1="271.18" x2="411.98" y2="271.18" xlink:href="#a"/><linearGradient id="L" x1="336.6" y1="270.73" x2="413.01" y2="270.73" xlink:href="#b"/><linearGradient id="M" x1="461.89" y1="338.28" x2="342.66" y2="344.56" xlink:href="#a"/><linearGradient id="N" x1="378.72" y1="341.64" x2="455.04" y2="341.64" xlink:href="#b"/><linearGradient id="O" x1="379.25" y1="319.84" x2="454.51" y2="319.84" xlink:href="#a"/><linearGradient id="P" x1="378.67" y1="319.84" x2="455.09" y2="319.84" xlink:href="#b"/><linearGradient id="Q" x1="290.63" y1="291.63" x2="178.67" y2="290.31" xlink:href="#a"/><linearGradient id="R" x1="214.66" y1="292.17" x2="284.89" y2="292.17" xlink:href="#b"/><linearGradient id="S" x1="214.81" y1="244.8" x2="283.63" y2="244.8" xlink:href="#a"/><linearGradient id="T" x1="214.66" y1="244.34" x2="284.69" y2="244.34" xlink:href="#b"/><linearGradient id="U" x1="240.55" y1="334.79" x2="141.47" y2="334.46" xlink:href="#a"/><linearGradient id="V" x1="171.56" y1="335.56" x2="242.78" y2="335.56" xlink:href="#b"/><linearGradient id="W" x1="172.19" y1="309.78" x2="242.04" y2="309.78" xlink:href="#a"/><linearGradient id="X" x1="171.55" y1="309.78" x2="242.68" y2="309.78" xlink:href="#b"/><linearGradient id="Y" x1="289.8" y1="367.93" x2="176.18" y2="367.27" xlink:href="#a"/><linearGradient id="Z" x1="212.27" y1="367.63" x2="284.48" y2="367.63" xlink:href="#b"/><linearGradient id="aa" x1="212.92" y1="351.01" x2="283.62" y2="351.01" xlink:href="#a"/><linearGradient id="ab" x1="212.27" y1="351.01" x2="284.27" y2="351.01" xlink:href="#b"/><linearGradient id="c" x1="323.86" y1="127.05" x2="203.14" y2="118.8" gradientUnits="userSpaceOnUse"><stop offset=".01" stop-color="#9c750b"/><stop offset=".99" stop-color="#9c750b" stop-opacity="0"/></linearGradient><linearGradient id="ac" x1="324.24" y1="121.43" x2="203.52" y2="113.18" xlink:href="#c"/><linearGradient id="ad" x1="283.64" y1="109.33" x2="222.87" y2="107.84" xlink:href="#c"/><linearGradient id="ae" x1="284.08" y1="91.29" x2="223.31" y2="89.8" xlink:href="#c"/><linearGradient id="d" x1="247.51" y1="77.29" x2="248" y2="100.08" gradientUnits="userSpaceOnUse"><stop offset=".01" stop-color="#fff"/><stop offset=".99" stop-color="#fff" stop-opacity="0"/></linearGradient><linearGradient id="af" x1="273.67" y1="82.73" x2="237.23" y2="81.96" xlink:href="#c"/><linearGradient id="ag" x1="242.8" y1="70.11" x2="255.28" y2="70.11" xlink:href="#d"/><linearGradient id="ah" x1="273.93" y1="70.24" x2="237.49" y2="69.47" xlink:href="#c"/><linearGradient id="ai" x1="248.54" y1="23.57" x2="262.64" y2="57.92" xlink:href="#d"/><linearGradient id="aj" x1="277.67" y1="113.99" x2="250.37" y2="26.35" xlink:href="#c"/><linearGradient id="ak" x1="366.98" y1="28.86" x2="198.76" y2="12.13" xlink:href="#c"/><linearGradient id="al" x1="253.29" y1="6.25" x2="257.69" y2="31.35" xlink:href="#d"/><linearGradient id="am" x1="228.03" y1="61.93" x2="249.61" y2="15.91" xlink:href="#c"/><linearGradient id="e" x1="349.39" y1="175.46" x2="259.37" y2="169.3" gradientUnits="userSpaceOnUse"><stop offset=".01" stop-color="#4c4c4c"/><stop offset=".99" stop-color="#4c4c4c" stop-opacity="0"/></linearGradient><linearGradient id="an" x1="349.68" y1="171.27" x2="259.65" y2="165.11" xlink:href="#e"/><linearGradient id="ao" x1="319.4" y1="162.24" x2="274.08" y2="161.13" xlink:href="#e"/><linearGradient id="ap" x1="319.73" y1="148.79" x2="274.41" y2="147.68" xlink:href="#e"/><linearGradient id="aq" x1="292.45" y1="138.35" x2="292.82" y2="155.34" xlink:href="#d"/><linearGradient id="ar" x1="311.96" y1="142.4" x2="284.79" y2="141.83" xlink:href="#e"/><linearGradient id="as" x1="288.94" y1="132.99" x2="298.25" y2="132.99" xlink:href="#d"/><linearGradient id="at" x1="312.16" y1="133.09" x2="284.98" y2="132.51" xlink:href="#e"/><linearGradient id="au" x1="293.23" y1="98.29" x2="303.74" y2="123.9" xlink:href="#d"/><linearGradient id="av" x1="314.95" y1="165.71" x2="294.59" y2="100.36" xlink:href="#e"/><linearGradient id="aw" x1="381.55" y1="102.23" x2="256.1" y2="89.75" xlink:href="#e"/><linearGradient id="ax" x1="296.76" y1="85.37" x2="300.05" y2="104.09" xlink:href="#d"/><linearGradient id="ay" x1="277.93" y1="126.89" x2="294.02" y2="92.57" xlink:href="#e"/><linearGradient id="f" x1="255.8" y1="173.56" x2="186.33" y2="168.81" gradientTransform="matrix(-1 0 0 1 418.18 0)" gradientUnits="userSpaceOnUse"><stop offset=".01" stop-color="#632929"/><stop offset=".99" stop-color="#632929" stop-opacity="0"/></linearGradient><linearGradient id="az" x1="256.02" y1="170.32" x2="186.55" y2="165.57" xlink:href="#f"/><linearGradient id="aA" x1="232.65" y1="163.36" x2="197.68" y2="162.5" xlink:href="#f"/><linearGradient id="aB" x1="232.91" y1="152.98" x2="197.94" y2="152.12" xlink:href="#f"/><linearGradient id="aC" x1="211.86" y1="144.92" x2="212.15" y2="158.04" gradientTransform="matrix(-1 0 0 1 418.18 0)" xlink:href="#d"/><linearGradient id="aD" x1="226.92" y1="148.05" x2="205.95" y2="147.61" xlink:href="#f"/><linearGradient id="aE" x1="209.15" y1="140.79" x2="216.33" y2="140.79" gradientTransform="matrix(-1 0 0 1 418.18 0)" xlink:href="#d"/><linearGradient id="aF" x1="227.07" y1="140.86" x2="206.1" y2="140.42" xlink:href="#f"/><linearGradient id="aG" x1="212.46" y1="114.01" x2="220.57" y2="133.78" gradientTransform="matrix(-1 0 0 1 418.18 0)" xlink:href="#d"/><linearGradient id="aH" x1="229.22" y1="166.04" x2="213.51" y2="115.61" xlink:href="#f"/><linearGradient id="aI" x1="280.61" y1="117.06" x2="183.81" y2="107.43" xlink:href="#f"/><linearGradient id="aJ" x1="215.19" y1="104.04" x2="217.72" y2="118.49" gradientTransform="matrix(-1 0 0 1 418.18 0)" xlink:href="#d"/><linearGradient id="aK" x1="200.65" y1="136.08" x2="213.07" y2="109.6" xlink:href="#f"/><radialGradient id="g" cx="210.42" cy="296.23" r="157.99" gradientUnits="userSpaceOnUse"><stop offset="0" stop-color="#76b3e8"/><stop offset=".2" stop-color="#7bb6e9"/><stop offset=".42" stop-color="#88bdec"/><stop offset=".65" stop-color="#9ecaf1"/><stop offset=".88" stop-color="#bddcf8"/><stop offset="1" stop-color="#cfe7fc"/></radialGradient><radialGradient id="aL" cx="230.57" cy="430.62" r="83.66" xlink:href="#g"/><radialGradient id="aM" cx="396.87" cy="398.41" r="94.97" xlink:href="#g"/><radialGradient id="aN" cx="100.45" cy="512.23" r="178.35" xlink:href="#g"/></defs><g data-name="Layer 2"><g data-name="Layer 8"><path d="M485.47 382.08v-53.91l-32.83 20.7-163.23-103.11a79.5 79.5 0 0 0-82.32-1.58L32.65 345.23.35 329.32 0 378.14l.14.07a28.78 28.78 0 0 0 13.92 27.5l54.25 32.62a31.56 31.56 0 0 0 31.73.44l31.86-17.95a22.89 22.89 0 0 1 23.4.46l72.79 45.29a26.52 26.52 0 0 0 27.66.22l44.91-27a13.59 13.59 0 0 0 .33-23.1l-14.1-9A4.57 4.57 0 0 1 287 400l21-12.54a4.57 4.57 0 0 1 4.68 0l81.47 48.51a31.11 31.11 0 0 0 32.48-.39l46.7-29.32a26 26 0 0 0 12.14-24.18Z" style="fill:url(#g)"/><path d="M289.41 189.76 473.38 306a26.14 26.14 0 0 1-.05 44.23l-46.7 29.32a31.11 31.11 0 0 1-32.48.39l-81.47-48.51a4.57 4.57 0 0 0-4.68 0L287 344a4.57 4.57 0 0 0-.12 7.77l14.1 9a13.59 13.59 0 0 1-.33 23.1l-44.91 27a26.52 26.52 0 0 1-27.66-.22l-72.78-45.37a22.89 22.89 0 0 0-23.4-.46L100 382.77a31.56 31.56 0 0 1-31.73-.44l-54.21-32.62a29 29 0 0 1 .41-49.95l192.62-111.58a79.5 79.5 0 0 1 82.32 1.58Z" style="fill:url(#a)"/><path d="M286.9 246.09V120.33h-75.21v125.76c.17 1.32 1.21 2.67 3.07 3.75L242.81 266c3.75 2.16 9.41 2.4 12.66.52l29.27-16.9c1.63-.91 2.33-2.2 2.16-3.53Z" style="fill:url(#h)"/><path d="M250 268.38a15.3 15.3 0 0 1-7.45-1.85l-28.05-16.2c-2-1.13-3.15-2.61-3.35-4.16V119.75h75.8a.58.58 0 0 1 .57.57v125.74a4.21 4.21 0 0 1-2.45 4.09l-29.28 16.9a11.68 11.68 0 0 1-5.79 1.33Zm-37.7-147.47v125.16c0 1 1.14 2.32 2.78 3.27l28 16.19a14 14 0 0 0 6.62 1.72h.33c.14 0 0-130 0-130l36.26-16.33Z" style="fill:url(#b)"/><path d="M284.28 124.35 255 141.25c-3.24 1.87-8.91 1.63-12.65-.53l-28.05-16.19c-3.75-2.17-4.15-5.44-.91-7.31l29.27-16.9c3.25-1.87 8.91-1.64 12.66.52l28 16.2c3.8 2.16 4.21 5.43.96 7.31Z" style="fill:url(#i)"/><path d="M250 142.62a15.41 15.41 0 0 1-7.45-1.85l-28.05-16.2c-2.15-1.24-3.38-2.93-3.38-4.63a4.31 4.31 0 0 1 2.48-3.67l29.27-16.9c3.39-2 9.33-1.73 13.23.52l28.05 16.2c2.15 1.24 3.38 2.93 3.38 4.63a4.33 4.33 0 0 1-2.47 3.67l-29.28 16.9a11.78 11.78 0 0 1-5.78 1.33Zm-1.35-43.45a10.64 10.64 0 0 0-5.21 1.2l-29.27 16.9a3.23 3.23 0 0 0-1.9 2.67c0 1.28 1 2.6 2.81 3.63l28 16.2c3.58 2.06 9 2.3 12.08.52l29.27-16.9a3.23 3.23 0 0 0 1.9-2.67c0-1.28-1-2.6-2.81-3.63l-28.05-16.2a14.2 14.2 0 0 0-6.85-1.72Z" style="fill:url(#j)"/><path d="M244.27 271.08v-99.24h-75.21v99.24c.18 1.32 1.21 2.67 3.08 3.74L200.19 291c3.74 2.16 9.41 2.4 12.65.52l29.27-16.9c1.63-.92 2.34-2.21 2.16-3.54Z" style="fill:url(#k)"/><path d="M208.22 292.46a15.3 15.3 0 0 1-7.45-1.86l-28.05-16.19c-2-1.13-3.15-2.61-3.35-4.17v-99.89h76.36v99.78a4.21 4.21 0 0 1-2.45 4.1L214 291.13a11.84 11.84 0 0 1-5.78 1.33Zm-37.71-121v98.64c0 .99 1.14 2.32 2.79 3.27l28 16.2a14.13 14.13 0 0 0 6.62 1.71h.32c.15 0 0-103.48 0-103.48l36.26-16.34Z" style="fill:url(#l)"/><path d="m242.53 174.94-29.27 16.9c-3.24 1.88-8.91 1.64-12.65-.52l-28.05-16.2c-3.75-2.16-4.16-5.43-.91-7.3l29.27-16.9c3.24-1.87 8.91-1.64 12.65.52l28.05 16.2c3.75 2.16 4.15 5.43.91 7.3Z" style="fill:url(#m)"/><path d="M208.22 193.22a15.38 15.38 0 0 1-7.45-1.85l-28.05-16.2c-2.15-1.24-3.39-2.93-3.39-4.63a4.31 4.31 0 0 1 2.48-3.67L201.08 150c3.4-2 9.33-1.73 13.23.52l28.05 16.2c2.16 1.24 3.39 2.93 3.39 4.63a4.33 4.33 0 0 1-2.48 3.67L214 191.89a11.84 11.84 0 0 1-5.78 1.33Zm-1.35-43.45a10.53 10.53 0 0 0-5.21 1.2l-29.27 16.9a3.21 3.21 0 0 0-1.9 2.67c0 1.28 1 2.6 2.81 3.63l28 16.2c3.58 2.06 9 2.3 12.07.52L242.7 174a3.25 3.25 0 0 0 1.9-2.67c0-1.28-1-2.6-2.81-3.64l-28-16.19a14.09 14.09 0 0 0-6.92-1.73Z" style="fill:url(#n)"/><path d="M203.23 294.94v-72.71H128v72.71c.17 1.32 1.21 2.67 3.07 3.75l28 16.19c3.74 2.16 9.41 2.4 12.65.53l29.27-16.9c1.7-.94 2.41-2.24 2.24-3.57Z" style="fill:url(#o)"/><path d="M166.49 316.47a15.3 15.3 0 0 1-7.45-1.86l-28-16.19c-2-1.13-3.15-2.61-3.35-4.17v-73.37H204v73.26a4.22 4.22 0 0 1-2.45 4.1l-29.28 16.9a11.78 11.78 0 0 1-5.78 1.33ZM128.79 222v72.11c.15 1.14 1.14 2.32 2.78 3.27l28.05 16.19a13.93 13.93 0 0 0 6.2 1.71v-79.4l37-13.88Z" style="fill:url(#p)"/><path d="m201.07 224.92-29.27 16.9c-3.24 1.87-8.91 1.64-12.65-.53l-28.06-16.19c-3.74-2.16-4.15-5.43-.9-7.31l29.27-16.9c3.24-1.87 8.91-1.63 12.65.53l28 16.19c3.8 2.17 4.2 5.44.96 7.31Z" style="fill:url(#q)"/><path d="M166.49 243.75a15.3 15.3 0 0 1-7.49-1.85l-28-16.2c-2.15-1.24-3.38-2.93-3.38-4.63a4.33 4.33 0 0 1 2.48-3.67l29.27-16.9c3.39-2 9.33-1.73 13.23.52l28 16.2c2.15 1.24 3.38 2.93 3.38 4.63a4.32 4.32 0 0 1-2.47 3.67l-29.28 16.9a11.78 11.78 0 0 1-5.74 1.33Zm-1.35-43.45a10.64 10.64 0 0 0-5.21 1.2l-29.27 16.9a3.25 3.25 0 0 0-1.9 2.67c0 1.28 1 2.6 2.81 3.64l28.05 16.19c3.58 2.07 9 2.3 12.08.52l29.3-16.9a3.23 3.23 0 0 0 1.9-2.67c0-1.28-1-2.6-2.81-3.63L172 202a14.2 14.2 0 0 0-6.86-1.7Z" style="fill:url(#r)"/><path d="m177 215.69-19.74 1.21c-.15 0-.22.12-.11.18l4.14 2.4c.07 0 .07.1 0 .15l-10.79 6.23a.08.08 0 0 0 0 .15l4.41 2.55 4.42 2.54a.24.24 0 0 0 .26 0l10.79-6.23a.3.3 0 0 1 .26 0l4.14 2.4c.11.06.3 0 .32-.07l2.1-11.4c.04-.06-.05-.12-.2-.11Z" style="fill:#6669f1"/><path d="M159.49 229.72a.69.69 0 0 1-.37-.1l-9.06-5.23-.06-.39a.55.55 0 0 1 .29-.48l10.22-5.9-3.57-2.06a.54.54 0 0 1-.27-.6.62.62 0 0 1 .59-.46l19.74-1.17a.66.66 0 0 1 .56.21l.16.17v.29l-2.11 11.4a.55.55 0 0 1-.33.41.77.77 0 0 1-.68 0l-4-2.34-10.68 6.17a.69.69 0 0 1-.43.08Zm-8.15-5.72 8.15 4.7 10.68-6.17a.81.81 0 0 1 .74 0l3.83 2.22 1.94-10.5-18.18 1.12 3.29 1.9.06.35a.55.55 0 0 1-.29.48Z" style="fill:#fff"/><path d="M160.62 318.84V271.5H85.41v47.34c.17 1.32 1.21 2.67 3.07 3.75l28.05 16.19c3.75 2.16 9.41 2.4 12.66.53l29.27-16.9c1.63-.95 2.33-2.24 2.16-3.57Z" style="fill:url(#s)"/><path d="M124.41 340.37a15.25 15.25 0 0 1-7.45-1.86l-28-16.19c-2-1.14-3.15-2.62-3.36-4.17v-48h76.36V318c.19 1.59-.7 3.08-2.45 4.1L130.19 339a11.84 11.84 0 0 1-5.78 1.37ZM86.7 271.31v46.73c.15 1.15 1.14 2.33 2.78 3.28l28.06 16.19a13.93 13.93 0 0 0 6.2 1.71l.18-57.24 36.84-10.67Z" style="fill:url(#t)"/><path d="m159.17 274.29-29.27 16.9c-3.24 1.88-8.91 1.64-12.65-.52l-28-16.2c-3.75-2.16-4.16-5.43-.91-7.3l29.27-16.9c3.24-1.87 8.91-1.64 12.65.52l28 16.2c3.74 2.16 4.16 5.43.91 7.3Z" style="fill:url(#u)"/><path d="M124.41 293a15.24 15.24 0 0 1-7.45-1.85l-28-16.2c-2.15-1.24-3.39-2.93-3.39-4.63a4.33 4.33 0 0 1 2.43-3.65l29.27-16.9c3.4-2 9.33-1.73 13.23.52l28.05 16.2c2.15 1.24 3.39 2.93 3.39 4.63a4.31 4.31 0 0 1-2.48 3.67l-29.27 16.9a11.73 11.73 0 0 1-5.78 1.31Zm-1.35-43.45a10.64 10.64 0 0 0-5.21 1.2l-29.27 16.9a3.23 3.23 0 0 0-1.9 2.67c0 1.28 1 2.6 2.8 3.64l28.06 16.19c3.57 2.07 9 2.3 12.07.52l29.27-16.9a3.21 3.21 0 0 0 1.9-2.67c0-1.28-1-2.6-2.81-3.63l-28.05-16.2a14.14 14.14 0 0 0-6.86-1.7Z" style="fill:url(#v)"/><path d="M118.38 341.66v-21.89h-75.2v21.89c.18 1.32 1.21 2.67 3.08 3.74l28.04 16.2c3.74 2.16 9.41 2.39 12.65.52l29.27-16.9c1.63-.94 2.34-2.22 2.16-3.56Z" style="fill:url(#w)"/><path d="M82.33 364a15.24 15.24 0 0 1-7.45-1.85l-28-16.2c-2-1.13-3.15-2.61-3.35-4.16v-22.58h76.36v22.43a4.21 4.21 0 0 1-2.45 4.1l-29.27 16.9a11.84 11.84 0 0 1-5.84 1.36Zm-37.7-43.61v21.28c.15 1.16 1.14 2.34 2.79 3.29l28.05 16.19a13.91 13.91 0 0 0 6.22 1.7v-25.8l37-16.66Z" style="fill:url(#x)"/><path d="m117.1 323.4-29.27 16.9c-3.25 1.87-8.91 1.64-12.66-.53l-28.05-16.19c-3.74-2.16-4.15-5.43-.9-7.31l29.27-16.9c3.24-1.87 8.91-1.63 12.65.53l28.05 16.19c3.75 2.17 4.15 5.44.91 7.31Z" style="fill:url(#y)"/><path d="M82.33 342.13a15.24 15.24 0 0 1-7.44-1.86l-28-16.19c-2.16-1.24-3.39-2.93-3.39-4.63a4.31 4.31 0 0 1 2.48-3.67l29.27-16.9c3.4-2 9.33-1.73 13.23.52l28.05 16.19c2.15 1.25 3.39 2.94 3.39 4.64a4.33 4.33 0 0 1-2.48 3.67l-29.32 16.9a11.85 11.85 0 0 1-5.79 1.33ZM81 298.68a10.6 10.6 0 0 0-5.2 1.19l-29.3 16.9a3.25 3.25 0 0 0-1.9 2.68c0 1.27 1 2.6 2.81 3.63l28.05 16.2c3.58 2.06 9 2.3 12.08.52l29.27-16.9a3.23 3.23 0 0 0 1.9-2.67c0-1.28-1-2.61-2.81-3.64L87.85 300.4a14 14 0 0 0-6.85-1.72Z" style="fill:url(#z)"/><path d="M253.52 271.08v-99.24h75.21v99.24c-.18 1.32-1.21 2.67-3.07 3.74L297.61 291c-3.75 2.16-9.41 2.4-12.66.52l-29.27-16.9c-1.63-.92-2.34-2.21-2.16-3.54Z" style="fill:url(#A)"/><path d="M290.32 292.42a11.73 11.73 0 0 1-5.76-1.33l-29.27-16.9a4.17 4.17 0 0 1-2.43-4.06v-99.74h76.27V270.24c-.2 1.54-1.39 3-3.33 4.13l-28.06 16.2a15.26 15.26 0 0 1-7.42 1.85Zm-36.4-121v98.78c-.15 1.16.52 2.23 1.9 3l29.27 16.9a11.07 11.07 0 0 0 5.87 1.18V184.91Z" style="fill:url(#B)"/><path d="m255.1 174.94 29.27 16.9c3.24 1.88 8.91 1.64 12.65-.52l28.05-16.2c3.75-2.16 4.16-5.43.91-7.3l-29.27-16.9c-3.24-1.87-8.91-1.64-12.65.52L256 167.64c-3.74 2.16-4.14 5.43-.9 7.3Z" style="fill:url(#C)"/><path d="M284.54 191.89 255.26 175a4.33 4.33 0 0 1-2.47-3.67c0-1.7 1.23-3.39 3.38-4.63l28.05-16.2c3.9-2.25 9.84-2.48 13.23-.52l29.27 16.9a4.31 4.31 0 0 1 2.48 3.67c0 1.7-1.23 3.39-3.38 4.63l-28.05 16.2a15.41 15.41 0 0 1-7.45 1.85 11.78 11.78 0 0 1-5.78-1.34Zm.26-40.4-28.05 16.19c-1.79 1-2.81 2.36-2.81 3.64a3.23 3.23 0 0 0 1.9 2.67l29.27 16.9c3.08 1.78 8.5 1.54 12.08-.52l28.05-16.2c1.79-1 2.81-2.35 2.81-3.63a3.23 3.23 0 0 0-1.9-2.67L296.88 151a10.53 10.53 0 0 0-5.21-1.2 14.09 14.09 0 0 0-6.87 1.69Z" style="fill:url(#D)"/><path d="M295.12 294.17v-72.71h75.21v72.71c-.18 1.32-1.21 2.67-3.08 3.75l-28.05 16.19c-3.74 2.16-9.41 2.4-12.65.53l-29.27-16.9c-1.63-.94-2.34-2.24-2.16-3.57Z" style="fill:url(#E)"/><path d="M332.05 316.42a11.8 11.8 0 0 1-5.77-1.32L297 298.2a4.18 4.18 0 0 1-2.43-4.06v-73.21h76.28v73.31c-.21 1.55-1.39 3-3.34 4.14l-28 16.2a15.28 15.28 0 0 1-7.46 1.84ZM295.65 222v72.24c-.16 1.16.52 2.24 1.9 3l29.27 16.9a11 11 0 0 0 5.67 1.2l.23-77.94Z" style="fill:url(#F)"/><path d="m296.83 225.48 29.27 16.9c3.24 1.87 8.91 1.63 12.65-.53l28.05-16.19c3.75-2.16 4.15-5.44.91-7.31l-29.27-16.9c-3.25-1.87-8.91-1.64-12.66.53l-28 16.19c-3.78 2.16-4.2 5.43-.95 7.31Z" style="fill:url(#G)"/><path d="M326.26 242.42 297 225.52a4.31 4.31 0 0 1-2.48-3.67c0-1.7 1.24-3.39 3.39-4.63L326 201c3.9-2.25 9.83-2.48 13.23-.52l29.27 16.9a4.33 4.33 0 0 1 2.48 3.67c0 1.7-1.23 3.39-3.39 4.63l-28.05 16.2a15.24 15.24 0 0 1-7.45 1.85 11.84 11.84 0 0 1-5.83-1.31Zm.27-40.4-28 16.2c-1.79 1-2.81 2.35-2.81 3.63a3.21 3.21 0 0 0 1.9 2.67l29.27 16.9c3.08 1.78 8.49 1.55 12.08-.52L367 224.71c1.78-1 2.81-2.36 2.81-3.64a3.25 3.25 0 0 0-1.91-2.67l-29.3-16.9a10.6 10.6 0 0 0-5.2-1.2 14.15 14.15 0 0 0-6.87 1.7Z" style="fill:url(#H)"/><path d="M337.2 318.07v-47.34h75.21v47.34c-.17 1.32-1.21 2.67-3.07 3.75l-28 16.19c-3.75 2.16-9.41 2.4-12.65.53l-29.28-16.9c-1.67-.94-2.41-2.24-2.21-3.57Z" style="fill:url(#I)"/><path d="M374.13 340.32a11.73 11.73 0 0 1-5.76-1.32l-29.27-16.9a4.17 4.17 0 0 1-2.43-4.06V270.2h76.27v47.94c-.2 1.55-1.39 3-3.33 4.14l-28.05 16.2a15.3 15.3 0 0 1-7.43 1.84Zm-36.39-69.06v46.88c-.15 1.16.53 2.24 1.9 3l29.27 16.9a11.62 11.62 0 0 0 6.84 1.12v-55.35Z" style="fill:url(#J)"/><path d="m338.91 274.75 29.27 16.9c3.25 1.87 8.91 1.63 12.66-.53l28.05-16.19c3.74-2.16 4.15-5.44.9-7.31l-29.27-16.9c-3.24-1.87-8.91-1.64-12.65.53l-28.05 16.19c-3.75 2.16-4.15 5.43-.91 7.31Z" style="fill:url(#K)"/><path d="m368.35 291.69-29.27-16.9a4.31 4.31 0 0 1-2.48-3.67c0-1.7 1.23-3.39 3.38-4.63l28.02-16.2c3.89-2.25 9.83-2.48 13.22-.52l29.28 16.9a4.33 4.33 0 0 1 2.47 3.67c0 1.7-1.23 3.39-3.38 4.63l-28.05 16.2a15.3 15.3 0 0 1-7.45 1.85 11.68 11.68 0 0 1-5.74-1.33Zm.26-40.4-28.05 16.2c-1.78 1-2.81 2.35-2.81 3.63a3.23 3.23 0 0 0 1.9 2.67l29.27 16.9c3.08 1.78 8.5 1.55 12.08-.52L409.05 274c1.79-1 2.81-2.36 2.81-3.64a3.23 3.23 0 0 0-1.9-2.67l-29.27-16.9a10.64 10.64 0 0 0-5.21-1.2 14.2 14.2 0 0 0-6.87 1.7Z" style="fill:url(#L)"/><path d="M379.28 341.73v-21.89h75.21v21.89c-.17 1.32-1.21 2.67-3.07 3.74l-28.05 16.2c-3.75 2.16-9.41 2.4-12.65.52l-29.28-16.9c-1.63-.94-2.33-2.23-2.16-3.56Z" style="fill:url(#M)"/><path d="M416.21 364a11.73 11.73 0 0 1-5.76-1.32l-29.27-16.9c-1.74-1-2.62-2.48-2.43-4.06V319.3H455v22.53c-.2 1.54-1.39 3-3.33 4.14l-28.06 16.19a15.26 15.26 0 0 1-7.4 1.84Zm-36.4-43.61v21.41c-.15 1.16.52 2.24 1.9 3L411 361.73a11.17 11.17 0 0 0 5.87 1.19v-32.13Z" style="fill:url(#N)"/><path d="m381.44 323.4 29.27 16.9c3.24 1.87 8.91 1.64 12.65-.53l28.05-16.19c3.75-2.16 4.15-5.43.91-7.31l-29.27-16.9c-3.25-1.87-8.91-1.63-12.65.53l-28.06 16.19c-3.74 2.17-4.15 5.44-.9 7.31Z" style="fill:url(#O)"/><path d="m410.42 340.8-29.27-16.9a4.33 4.33 0 0 1-2.48-3.67c0-1.7 1.23-3.39 3.39-4.64l28.05-16.19c3.89-2.25 9.83-2.49 13.23-.52l29.27 16.9a4.31 4.31 0 0 1 2.48 3.67c0 1.7-1.24 3.39-3.39 4.63l-28.05 16.19a15.25 15.25 0 0 1-7.45 1.86 11.84 11.84 0 0 1-5.78-1.33Zm.26-40.4-28.05 16.19c-1.78 1-2.81 2.36-2.81 3.64a3.25 3.25 0 0 0 1.9 2.67L411 339.8c3.07 1.78 8.49 1.54 12.07-.52l28.05-16.2c1.79-1 2.81-2.36 2.81-3.63a3.23 3.23 0 0 0-1.9-2.68l-29.27-16.9a10.64 10.64 0 0 0-5.21-1.19 14.09 14.09 0 0 0-6.87 1.72Z" style="fill:url(#P)"/><path d="m284.42 319.54-.24-76.23h-68.74l.21 75.6a2.66 2.66 0 0 0 0 .63 5 5 0 0 0 2.8 3.42l25.65 14.81c3.43 2 8.61 2.19 11.57.48l26.77-15.46a3.29 3.29 0 0 0 1.98-3.25Z" style="fill:url(#Q)"/><path d="M250.49 340.82a14.19 14.19 0 0 1-6.85-1.7L218 324.31a5.64 5.64 0 0 1-3.1-3.87 3.27 3.27 0 0 1 0-.77l-.22-76.14h70l.25 76.79a4 4 0 0 1-2.28 3.82l-26.83 15.46a10.88 10.88 0 0 1-5.33 1.22Zm-34.61-96.08.22 75a2.06 2.06 0 0 0 0 .55 4.62 4.62 0 0 0 2.51 3l25.65 14.8a12.71 12.71 0 0 0 5.65 1.55l.23-78.71 33.28-16.16Z" style="fill:url(#R)"/><path d="m281.63 248.05-26.77 15.46c-3 1.71-8.14 1.5-11.57-.48l-25.65-14.81c-3.42-2-3.79-5-.83-6.68l26.77-15.45c3-1.71 8.14-1.5 11.57.48l25.65 14.8c3.42 1.98 3.79 4.97.83 6.68Z" style="fill:url(#S)"/><path d="M250.29 264.81a14 14 0 0 1-6.85-1.71l-25.65-14.81c-2-1.15-3.13-2.72-3.13-4.3a4 4 0 0 1 2.3-3.43l26.77-15.45c3.12-1.81 8.59-1.59 12.17.48l25.65 14.81c2 1.15 3.14 2.72 3.14 4.3a4 4 0 0 1-2.31 3.43l-26.76 15.45a10.9 10.9 0 0 1-5.33 1.23Zm-1.24-39.73a9.71 9.71 0 0 0-4.72 1.08l-26.76 15.45a2.89 2.89 0 0 0-1.7 2.38c0 1.14.92 2.32 2.53 3.25l25.65 14.81c3.25 1.87 8.17 2.09 11 .48l26.77-15.45a2.9 2.9 0 0 0 1.69-2.38c0-1.14-.92-2.32-2.53-3.25l-25.68-14.81a12.88 12.88 0 0 0-6.25-1.56Z" style="fill:url(#T)"/><path d="m242.29 340.57-.15-31.82h-69.78l.1 31.61v.21a5.15 5.15 0 0 0 2.85 3.48l26 15c3.47 2 8.73 2.22 11.74.48l27.17-15.68a3.38 3.38 0 0 0 2.07-3.28Z" style="fill:url(#U)"/><path d="M207.85 362.18a14.4 14.4 0 0 1-7-1.73l-26-15a5.85 5.85 0 0 1-3.16-3.89.89.89 0 0 1 0-.42l-.1-32.18h71.05l.15 32.42a4 4 0 0 1-2.33 3.9l-27.17 15.68a11 11 0 0 1-5.44 1.22Zm-34.92-21v.12a4.6 4.6 0 0 0 2.54 3l26 15a12.85 12.85 0 0 0 5.65 1.56v-35.22l34.17-15.43h-68.5Z" style="fill:url(#V)"/><path d="m240 313.09-27.17 15.68c-3 1.74-8.27 1.52-11.74-.48l-26-15c-3.47-2-3.85-5.05-.84-6.78l27.17-15.69c3-1.74 8.27-1.52 11.74.49l26 15c3.48 2 3.84 5.04.84 6.78Z" style="fill:url(#W)"/><path d="M207.74 330.57a14.39 14.39 0 0 1-7-1.73l-26-15c-2-1.17-3.2-2.77-3.2-4.39a4.13 4.13 0 0 1 2.35-3.5l27.17-15.68c3.18-1.84 8.73-1.62 12.38.49l26 15c2 1.17 3.2 2.77 3.2 4.38a4.13 4.13 0 0 1-2.35 3.5l-27.17 15.68a11 11 0 0 1-5.38 1.25Zm-1.25-40.33a9.79 9.79 0 0 0-4.78 1.1L174.54 307a2.87 2.87 0 0 0-1.72 2.39c0 1.15.94 2.35 2.56 3.28l26 15c3.29 1.9 8.27 2.12 11.1.48l27.17-15.68.32.55-.32-.55a2.89 2.89 0 0 0 1.72-2.4c0-1.15-.94-2.34-2.56-3.28l-26-15a13 13 0 0 0-6.32-1.55Z" style="fill:url(#X)"/><path d="m284 364.22-.28-13.22h-70.63l.23 12.6a2.36 2.36 0 0 0 0 .65c.16 1.23 1.13 2.5 2.88 3.51L242.55 383c3.52 2 8.84 2.25 11.89.49l27.5-15.88a3.39 3.39 0 0 0 2.06-3.39Z" style="fill:url(#Y)"/><path d="M249.11 385.1a14.4 14.4 0 0 1-7.05-1.76l-26.35-15.21a5.83 5.83 0 0 1-3.2-4 3.57 3.57 0 0 1 0-.8l-.24-13.19h71.92l.26 13.86a4 4 0 0 1-2.35 4l-27.5 15.88a11.27 11.27 0 0 1-5.49 1.22Zm-35.52-33.65.21 11.94a2.74 2.74 0 0 0 0 .58 4.65 4.65 0 0 0 2.56 3l26.35 15.21a13.18 13.18 0 0 0 6.5 1.6s.13-19.95 0-21l33.71-11.39Z" style="fill:url(#Z)"/><path d="m281.57 354.36-27.5 15.88c-3 1.76-8.37 1.53-11.89-.5l-26.35-15.21c-3.52-2-3.9-5.1-.85-6.86l27.49-15.88c3.05-1.76 8.37-1.54 11.89.49l26.35 15.22c3.52 2.03 3.9 5.1.86 6.86Z" style="fill:url(#aa)"/><path d="M248.91 372.06a14.38 14.38 0 0 1-7-1.76l-26.35-15.21c-2.06-1.18-3.24-2.8-3.24-4.44a4.16 4.16 0 0 1 2.38-3.54l27.5-15.88c3.22-1.86 8.84-1.64 12.54.49L281 346.94c2 1.18 3.23 2.8 3.23 4.44a4.17 4.17 0 0 1-2.38 3.54l-27.5 15.88a11.15 11.15 0 0 1-5.44 1.26Zm-1.28-40.82a9.91 9.91 0 0 0-4.83 1.11l-27.5 15.88a2.9 2.9 0 0 0-1.73 2.42c0 1.16.94 2.37 2.58 3.32l26.35 15.21c3.34 1.93 8.38 2.15 11.24.5l27.5-15.88a2.91 2.91 0 0 0 1.73-2.42c0-1.16-.94-2.37-2.58-3.32L254 332.85a13.2 13.2 0 0 0-6.37-1.61Z" style="fill:url(#ab)"/><path d="M275.31 116.29h-8.2l-15.17-8.76a6 6 0 0 0-5.42-.22l-15.56 9h-8.2v5.65a2.29 2.29 0 0 0 1.31 1.67l22.06 12.73a6 6 0 0 0 5.41.23l22.83-13.18a1.58 1.58 0 0 0 .92-1.45Z" style="fill:#ffcb3d"/><path d="M249.19 137.7a6.86 6.86 0 0 1-3.35-.85l-22.05-12.73a3.09 3.09 0 0 1-1.54-1.75l-.07-.43v-5.82a.42.42 0 0 1 .42-.42h8.2l15.43-8.9a6.58 6.58 0 0 1 6 .22l15 8.68h8.2a.42.42 0 0 1 .42.43v6.31a2.35 2.35 0 0 1-1.18 1.46l-22.83 13.18a5.46 5.46 0 0 1-2.65.62Zm-25.84-15.86v.06a1.75 1.75 0 0 0 1 1.2l22.06 12.73a5.65 5.65 0 0 0 2.83.69v-5.06l25.46-14.58H267L251.64 108a5.45 5.45 0 0 0-4.82-.23l-15.7 9.07h-7.77Z" style="fill:url(#c)"/><path d="m274.38 117.74-22.83 13.18a6 6 0 0 1-5.41-.22L224.08 118c-1.6-.92-1.77-2.32-.39-3.12l22.83-13.18a6 6 0 0 1 5.41.22l22.07 12.7c1.59.92 1.76 2.32.38 3.12Z" style="fill:#ffcb3d"/><path d="M249.19 132.05a6.86 6.86 0 0 1-3.35-.84l-22.05-12.74a2.78 2.78 0 0 1-1.62-2.27 2.18 2.18 0 0 1 1.23-1.87l22.83-13.18a6.58 6.58 0 0 1 6 .22l22 12.74a2.78 2.78 0 0 1 1.62 2.27 2.18 2.18 0 0 1-1.23 1.87l-22.83 13.18a5.35 5.35 0 0 1-2.6.62Zm-.32-30.34a4.17 4.17 0 0 0-2.05.46L224 115.35a1.08 1.08 0 0 0-.65.85c0 .41.39.88 1 1.26l22.06 12.73a5.45 5.45 0 0 0 4.82.22l22.83-13.18a1.08 1.08 0 0 0 .65-.85c0-.41-.39-.88-1-1.26l-22.06-12.73a5.74 5.74 0 0 0-2.78-.68Z" style="fill:url(#ac)"/><path d="m268.64 115.51-3.28-25.08h-32.64l-3.26 24.86a.76.76 0 0 0 0 .21v.11a1.7 1.7 0 0 0 1 1.25l16.46 9.51a4.48 4.48 0 0 0 4 .16l17-9.84a1.13 1.13 0 0 0 .72-1.18Z" style="fill:#ffcb3d"/><path d="M249.15 127.52a5.28 5.28 0 0 1-2.57-.65l-16.47-9.5a2.54 2.54 0 0 1-1.17-1.28l-.11-.56c0-.14 0-.26.06-.39l3.31-25.29h33.32a.41.41 0 0 1 .4.34l3.3 25.23a1.72 1.72 0 0 1-1 1.78l-17 9.84a4.1 4.1 0 0 1-2.07.48ZM230 115.58c0 .25.28.53.69.77l16.47 9.51a3.94 3.94 0 0 0 1.72.48V96.09L233.23 91 230 115.38v.19Z" style="fill:url(#ad)"/><path d="m264.79 91.33-14.19 8.19a3.74 3.74 0 0 1-3.36-.13l-13.71-7.92c-1-.57-1.1-1.44-.24-1.94l14.19-8.19a3.74 3.74 0 0 1 3.36.14l13.7 7.91c1 .61 1.11 1.45.25 1.94Z" style="fill:#ffcb3d"/><path d="M249.14 100.45a4.47 4.47 0 0 1-2.2-.56L233.24 92a1.94 1.94 0 0 1-1.12-1.6A1.57 1.57 0 0 1 233 89l14.19-8.19a4.33 4.33 0 0 1 3.94.14l13.71 7.91a1.94 1.94 0 0 1 1.16 1.63 1.56 1.56 0 0 1-.87 1.35L250.89 100a3.51 3.51 0 0 1-1.75.45Zm-.21-18.85a2.43 2.43 0 0 0-1.16.25L233.59 90c-.09 0-.29.18-.29.34s.14.36.53.58l13.7 7.92a3.22 3.22 0 0 0 2.78.14l14.18-8.19c.09 0 .29-.19.29-.34s-.14-.36-.53-.59L250.55 82a3.37 3.37 0 0 0-1.62-.4Z" style="fill:url(#ae)"/><path d="M257 87.55s-3.64-3.64-3.64-17h-8.69c0 13.39-3.64 17-3.64 17-1.1 1.7-.23 3.69 2.13 5.06a13 13 0 0 0 11.71 0c2.38-1.37 3.25-3.36 2.13-5.06Z" style="fill:#ffcb3d"/><path d="M248.2 70.52h-3.51c0 13.39-3.64 17-3.64 17-1.1 1.7-.23 3.69 2.13 5.06a13 13 0 0 0 11.71 0l.14-.1a12.86 12.86 0 0 1-8.31-1.16" style="fill:url(#d)"/><path d="M249 94.58a12.54 12.54 0 0 1-6.15-1.47 5.5 5.5 0 0 1-2.81-3.26 3.32 3.32 0 0 1 .47-2.62c.11-.12 3.55-3.83 3.55-16.71v-.59H254v.59c0 12.88 3.44 16.59 3.47 16.62l.08.09a3.32 3.32 0 0 1 .47 2.62 5.5 5.5 0 0 1-2.81 3.26 12.53 12.53 0 0 1-6.21 1.47Zm-3.73-23.48c-.1 13-3.65 16.72-3.81 16.87a2.15 2.15 0 0 0-.24 1.61 4.42 4.42 0 0 0 2.26 2.52 12.46 12.46 0 0 0 6.08 1.31c6.46 0 .52-9.1.43-21.42Z" style="fill:url(#af)"/><path d="M255.28 71.15V64.8h-12.49v6.35a3.09 3.09 0 0 0 1.83 2.55 9.74 9.74 0 0 0 8.83 0 3.09 3.09 0 0 0 1.83-2.55Z" style="fill:#ffcb3d"/><path d="M247.43 74a3.11 3.11 0 0 1-1.83-2.55v-6.32h-2.8v6.36a3.09 3.09 0 0 0 1.83 2.51 9.53 9.53 0 0 0 5.8 1 8.39 8.39 0 0 1-3-1Z" style="fill:url(#ag)"/><path d="M249 75.35a9.6 9.6 0 0 1-4.71-1.14 3.65 3.65 0 0 1-2.12-3.06v-6.94h13.65v6.94a3.65 3.65 0 0 1-2.12 3.06 9.59 9.59 0 0 1-4.7 1.14Zm-5.66-10v5.76a2.55 2.55 0 0 0 1.54 2 8.8 8.8 0 0 0 5.07.94v-4.7l4.71-4Z" style="fill:url(#ah)"/><path d="M277.72 17.13h-57.37s-.86 27.23 18.79 48.68a7.66 7.66 0 0 0 2.24 1.89 16.93 16.93 0 0 0 15.31 0 7.66 7.66 0 0 0 2.24-1.89c19.65-21.45 18.79-48.68 18.79-48.68Z" style="fill:#ffcb3d"/><path d="M228.13 22h49.19c.23-3 .18-4.71.18-4.71h-57.37S219.27 44.5 238.92 66a7.66 7.66 0 0 0 2.24 1.89 14.15 14.15 0 0 0 4.66 1.56C227.32 48.16 228.13 22 228.13 22Z" style="fill:url(#ai)"/><path d="M249 70.11a16.35 16.35 0 0 1-8-1.9 8.12 8.12 0 0 1-2.4-2c-19.56-21.34-18.92-48.78-18.92-49.06v-.56h58.51v.56c0 .28.64 27.72-18.95 49.1a8.09 8.09 0 0 1-2.37 2 16.37 16.37 0 0 1-7.87 1.86Zm-28.07-52.39c0 4 .95 28.37 18.65 47.69a6.94 6.94 0 0 0 2.09 1.78 15.48 15.48 0 0 0 8.33 1.73c2.34-.12 12-33 5.29-48.53Z" style="fill:url(#aj)"/><ellipse cx="249.04" cy="17.13" rx="28.68" ry="16.56" style="fill:#ffcb3d"/><path d="M269.32 6.71c-11.2-6.47-29.32-6.47-40.57 0-5.29 3.06-8.05 7-8.34 11 .29 4 3.05 8 8.34 11 11.2 6.47 29.37 6.47 40.57 0 5.29-3.05 8.05-7 8.34-11-.29-3.99-3.05-7.94-8.34-11Z" style="fill:#fffae0"/><path d="M249 34.26c-7.46 0-14.91-1.63-20.58-4.91s-8.7-7.57-8.7-12.22 3.09-9 8.7-12.22c11.35-6.55 29.81-6.55 41.15 0 5.61 3.24 8.7 7.58 8.7 12.22s-3.09 9-8.7 12.22-13.08 4.91-20.57 4.91Zm0-33.1c-7.24 0-14.48 1.59-20 4.77-5.23 3-8.11 7-8.11 11.2s2.88 8.19 8.11 11.2c11 6.37 28.95 6.37 40 0 5.23-3 8.11-7 8.11-11.2S274.25 9 269 5.93c-5.49-3.18-12.73-4.77-20-4.77Z" style="fill:url(#ak)"/><ellipse cx="249.04" cy="17.13" rx="24.86" ry="13.54" style="fill:#ffcb3d"/><path d="M266.61 7.45c-8.77-4.78-22.46-5.23-32.18-1.37 9.14-2.24 20.26-1.33 27.77 2.77 9.41 5.12 9.41 14 0 19.14a26.9 26.9 0 0 1-3 1.37 30.83 30.83 0 0 0 7.38-2.77c9.74-5.28 9.74-13.86.03-19.14Z" style="fill:url(#al)"/><path d="M249 31.21c-6.47 0-12.94-1.34-17.87-4s-7.57-6.23-7.57-10.06 2.69-7.39 7.57-10c9.86-5.37 25.89-5.37 35.75 0 4.88 2.66 7.57 6.23 7.57 10s-2.69 7.4-7.57 10.06-11.37 4-17.88 4Zm0-27.06a44.64 44.64 0 0 0-5.44.33c-4.35.53-12.17 24.72 3.24 25.59 7 .39 14.16-.95 19.48-3.84 4.51-2.46 7-5.69 7-9.1s-2.48-6.64-7-9.09c-4.73-2.6-10.98-3.89-17.28-3.89Z" style="fill:url(#am)"/><path d="M313.19 167.43h-6.12l-11.31-6.53a4.49 4.49 0 0 0-4-.17l-11.61 6.7H274v4.21a1.73 1.73 0 0 0 1 1.24l16.45 9.5a4.52 4.52 0 0 0 4 .17l17-9.84a1.15 1.15 0 0 0 .69-1.08Z" style="fill:#c7c7c7"/><path d="M293.71 183.4a5.07 5.07 0 0 1-2.5-.63l-16.45-9.5a2.27 2.27 0 0 1-1.14-1.3l-.06-.33v-4.33a.32.32 0 0 1 .32-.32H280l11.5-6.64a4.91 4.91 0 0 1 4.48.17l11.21 6.48h6.12a.32.32 0 0 1 .31.32v4.71a1.74 1.74 0 0 1-.88 1.08l-17 9.83a4 4 0 0 1-2.03.46Zm-19.27-11.82a1.3 1.3 0 0 0 .76.9l16.45 9.5a4.31 4.31 0 0 0 2.11.51v-3.77l19-10.88H307l-11.41-6.59a4.07 4.07 0 0 0-3.6-.17l-11.71 6.76h-5.79Z" style="fill:url(#e)"/><path d="m312.49 168.51-17 9.83a4.48 4.48 0 0 1-4-.16l-16.49-9.5c-1.19-.69-1.32-1.73-.29-2.33l17-9.83a4.49 4.49 0 0 1 4 .17l16.44 9.49c1.25.69 1.38 1.74.34 2.33Z" style="fill:#c7c7c7"/><path d="M293.71 179.19a5.21 5.21 0 0 1-2.5-.63l-16.45-9.5a2.08 2.08 0 0 1-1.2-1.7 1.62 1.62 0 0 1 .91-1.39l17-9.83a4.91 4.91 0 0 1 4.48.17l16.44 9.49a2.1 2.1 0 0 1 1.21 1.7 1.62 1.62 0 0 1-.92 1.39l-17 9.83a4.05 4.05 0 0 1-1.97.47Zm-.24-22.63a3.15 3.15 0 0 0-1.53.34l-17 9.83a.82.82 0 0 0-.48.63c0 .31.29.66.77.94l16.45 9.5a4.13 4.13 0 0 0 3.6.17l17-9.84a.79.79 0 0 0 .48-.63c0-.31-.28-.66-.77-.94l-16.44-9.49a4.26 4.26 0 0 0-2.08-.51Z" style="fill:url(#an)"/><path d="m308.21 166.85-2.44-18.7h-24.35L279 166.69v.23a1.28 1.28 0 0 0 .73.93L292 175a3.34 3.34 0 0 0 3 .12l12.72-7.34a.84.84 0 0 0 .49-.93Z" style="fill:#c7c7c7"/><path d="M293.68 175.81a4 4 0 0 1-1.92-.48l-12.28-7.09a1.94 1.94 0 0 1-.88-1l-.07-.42a2.26 2.26 0 0 1 0-.29l2.47-18.82h24.85a.3.3 0 0 1 .3.26l2.46 18.81a1.29 1.29 0 0 1-.72 1.33l-12.72 7.34a3.09 3.09 0 0 1-1.49.36Zm-14.27-8.91c0 .19.21.4.51.58l12.28 7.09a3.06 3.06 0 0 0 1.29.36v-22.56l-11.68-3.78-2.42 18.16v.14Z" style="fill:url(#ao)"/><path d="m305.34 148.82-10.58 6.11a2.82 2.82 0 0 1-2.51-.1l-10.25-5.9c-.74-.43-.82-1.08-.18-1.45l10.58-6.11a2.79 2.79 0 0 1 2.51.1l10.22 5.9c.77.43.87 1.08.21 1.45Z" style="fill:#c7c7c7"/><path d="M293.67 155.62a3.31 3.31 0 0 1-1.64-.42l-10.22-5.9a1.44 1.44 0 0 1-.83-1.19 1.16 1.16 0 0 1 .65-1l10.58-6.11a3.24 3.24 0 0 1 3 .1l10.22 5.9a1.46 1.46 0 0 1 .83 1.2 1.19 1.19 0 0 1-.65 1L295 155.31a2.64 2.64 0 0 1-1.33.31Zm-.15-14.06a1.78 1.78 0 0 0-.87.19l-10.58 6.11c-.06 0-.21.13-.21.25s.1.27.39.44l10.22 5.9a2.41 2.41 0 0 0 2.07.1l10.58-6.11c.07 0 .22-.13.22-.25s-.11-.27-.4-.44l-10.22-5.9a2.53 2.53 0 0 0-1.2-.29Z" style="fill:url(#ap)"/><path d="M299.55 146s-2.72-2.72-2.72-12.7h-6.48c0 10-2.71 12.7-2.71 12.7-.82 1.27-.17 2.75 1.59 3.77a9.66 9.66 0 0 0 8.73 0c1.76-1.02 2.41-2.5 1.59-3.77Z" style="fill:#c7c7c7"/><path d="M293 133.3h-2.62c0 10-2.71 12.7-2.71 12.7-.82 1.27-.17 2.75 1.59 3.77a9.66 9.66 0 0 0 8.73 0l.1-.07a9.56 9.56 0 0 1-6.19-.87" style="fill:url(#aq)"/><path d="M293.59 151.24a9.34 9.34 0 0 1-4.58-1.09 4.11 4.11 0 0 1-2.09-2.43 2.45 2.45 0 0 1 .35-2c.08-.09 2.64-2.85 2.64-12.46v-.44h7.36v.44c0 9.61 2.57 12.37 2.59 12.39l.06.07a2.49 2.49 0 0 1 .35 2 4.11 4.11 0 0 1-2.09 2.43 9.41 9.41 0 0 1-4.59 1.09Zm-2.8-17.51c-.08 9.7-2.73 12.47-2.84 12.58a1.54 1.54 0 0 0-.18 1.2 3.26 3.26 0 0 0 1.68 1.88 9.24 9.24 0 0 0 4.53 1c4.82 0 .4-6.78.32-16Z" style="fill:url(#ar)"/><path d="M298.25 133.77V129h-9.31v4.74a2.3 2.3 0 0 0 1.36 1.9 7.27 7.27 0 0 0 6.58 0 2.31 2.31 0 0 0 1.37-1.87Z" style="fill:#c7c7c7"/><path d="M292.4 135.92A2.31 2.31 0 0 1 291 134v-4.74h-2.09V134a2.32 2.32 0 0 0 1.37 1.9 7.08 7.08 0 0 0 4.32.71 6 6 0 0 1-2.2-.69Z" style="fill:url(#as)"/><path d="M293.59 136.9a7.15 7.15 0 0 1-3.51-.85 2.73 2.73 0 0 1-1.58-2.28v-5.18h10.19v5.18a2.74 2.74 0 0 1-1.59 2.28 7.1 7.1 0 0 1-3.51.85Zm-4.21-7.43v4.3a1.89 1.89 0 0 0 1.14 1.52 6.6 6.6 0 0 0 3.78.7v-3.57l3.51-2.95Z" style="fill:url(#at)"/><path d="M315 93.48h-42.8s-.64 20.31 14 36.31a5.47 5.47 0 0 0 1.66 1.4 12.63 12.63 0 0 0 11.42 0 5.4 5.4 0 0 0 1.67-1.4c14.67-16 14.05-36.31 14.05-36.31Z" style="fill:#c7c7c7"/><path d="M278 97.1h36.67a34.82 34.82 0 0 0 .14-3.51H272s-.64 20.3 14 36.3a5.55 5.55 0 0 0 1.67 1.41 10.3 10.3 0 0 0 3.47 1.16C277.4 116.62 278 97.1 278 97.1Z" style="fill:url(#au)"/><path d="M293.59 133a12.07 12.07 0 0 1-5.93-1.42 6 6 0 0 1-1.79-1.52c-14.58-15.91-14.11-36.38-14.11-36.58v-.42h43.63v.42c0 .2.48 20.67-14.13 36.61a5.9 5.9 0 0 1-1.77 1.49 12 12 0 0 1-5.9 1.42Zm-20.95-39.08c0 3 .7 21.16 13.9 35.57a5.23 5.23 0 0 0 1.56 1.32 11.64 11.64 0 0 0 6.21 1.3c1.74-.1 9-24.59 3.94-36.2Z" style="fill:url(#av)"/><ellipse cx="293.59" cy="93.48" rx="21.39" ry="12.35" style="fill:#c7c7c7"/><path d="M308.72 85.71c-8.35-4.82-21.9-4.82-30.25 0-4 2.28-6 5.23-6.23 8.21.22 3 2.28 5.93 6.23 8.21 8.35 4.83 21.9 4.83 30.25 0 3.95-2.28 6-5.22 6.22-8.21-.21-2.98-2.27-5.92-6.22-8.21Z" style="fill:#fff"/><path d="M293.59 106.26a31.4 31.4 0 0 1-15.34-3.66c-4.18-2.42-6.49-5.65-6.49-9.12s2.31-6.7 6.49-9.11c8.46-4.89 22.23-4.89 30.69 0 4.18 2.41 6.48 5.65 6.48 9.11s-2.3 6.7-6.48 9.12a31.42 31.42 0 0 1-15.35 3.66Zm0-24.69a30.48 30.48 0 0 0-14.9 3.56c-3.9 2.25-6.05 5.22-6.05 8.35s2.15 6.11 6.05 8.36c8.22 4.74 21.59 4.74 29.81 0 3.9-2.25 6.05-5.22 6.05-8.36s-2.15-6.1-6.05-8.35a30.52 30.52 0 0 0-14.91-3.56Z" style="fill:url(#aw)"/><ellipse cx="293.59" cy="93.48" rx="18.54" ry="10.1" style="fill:#c7c7c7"/><path d="M306.7 86.26c-6.54-3.56-16.75-3.9-24-1 6.82-1.67 15.11-1 20.71 2.06 7 3.82 7 10.46 0 14.28a20.36 20.36 0 0 1-2.21 1 23.2 23.2 0 0 0 5.5-2.06c7.24-3.94 7.24-10.34 0-14.28Z" style="fill:url(#ax)"/><path d="M293.59 104a28.64 28.64 0 0 1-13.33-3c-3.64-2-5.64-4.65-5.64-7.5s2-5.51 5.64-7.5c7.35-4 19.31-4 26.66 0 3.64 2 5.65 4.65 5.65 7.5s-2 5.52-5.65 7.5a28.58 28.58 0 0 1-13.33 3Zm0-20.18a34 34 0 0 0-4 .24c-3.24.4-9.08 18.44 2.42 19.09a28.12 28.12 0 0 0 14.52-2.86c3.36-1.83 5.21-4.24 5.21-6.79s-1.85-5-5.21-6.78a27.69 27.69 0 0 0-12.94-2.92Z" style="fill:url(#ay)"/><path d="m321.52 214.7 20.1 1.23c.16 0 .22.12.11.19l-4.22 2.43a.08.08 0 0 0 0 .15l11 6.35c.08 0 .08.11 0 .15l-4.51 2.6-4.5 2.59a.3.3 0 0 1-.26 0l-11-6.34a.32.32 0 0 0-.27 0l-4.22 2.43c-.11.07-.3 0-.31-.06l-2.15-11.61c.01-.06.11-.12.23-.11Z" style="fill:#6669f1"/><path d="m339 228.88-10.88-6.28L324 225a.82.82 0 0 1-.7 0 .6.6 0 0 1-.34-.42L320.84 213v-.29l.15-.17a.75.75 0 0 1 .58-.22l20.1 1.24a.62.62 0 0 1 .6.46.56.56 0 0 1-.28.62l-3.63 2.09 10.41 6a.58.58 0 0 1 .29.49l-.06.35-9.23 5.33a.73.73 0 0 1-.74 0Zm-1.74-11.68a.59.59 0 0 1-.29-.5v-.35l3.35-1.94-18.51-1.14 2 10.69 3.9-2.25a.77.77 0 0 1 .75 0l10.92 6.29 8.29-4.79Z" style="fill:#fff"/><path d="m363.74 264.52 20.1 1.24c.16 0 .22.12.11.18l-4.22 2.44a.08.08 0 0 0 0 .15l11 6.35a.08.08 0 0 1 0 .15l-4.49 2.59-4.5 2.6a.3.3 0 0 1-.26 0l-11-6.34a.26.26 0 0 0-.27 0l-4.21 2.43c-.11.07-.3 0-.31-.06l-2.15-11.61c-.02-.07.08-.12.2-.12Z" style="fill:#6669f1"/><path d="m381.23 278.71-10.88-6.28-4.12 2.37a.76.76 0 0 1-.69 0 .6.6 0 0 1-.34-.42l-2.14-11.61v-.29l.15-.17a.75.75 0 0 1 .58-.22l20.1 1.23a.64.64 0 0 1 .6.47.54.54 0 0 1-.28.61l-3.63 2.1 10.4 6a.55.55 0 0 1 .3.49l-.06.35-9.22 5.37a.73.73 0 0 1-.74 0ZM379.49 267a.54.54 0 0 1-.29-.49l.05-.35 3.35-1.94-18.51-1.14 2 10.69 3.9-2.26a.77.77 0 0 1 .75 0l10.88 6.29 8.29-4.79Z" style="fill:#fff"/><path d="m403.47 313.71 20.1 1.24c.16 0 .22.12.11.18l-4.22 2.44a.08.08 0 0 0 0 .15l11 6.34c.08 0 .08.11 0 .16l-4.46 2.59-4.5 2.6a.3.3 0 0 1-.26 0l-11-6.35a.32.32 0 0 0-.27 0l-4.22 2.44c-.11.06-.3 0-.31-.07l-2.15-11.6c-.04-.07.06-.13.18-.12Z" style="fill:#6669f1"/><path d="m421 327.9-10.88-6.28L406 324a.78.78 0 0 1-.7 0 .62.62 0 0 1-.34-.43L402.79 312v-.29l.15-.18a.75.75 0 0 1 .58-.22l20.1 1.24a.63.63 0 0 1 .6.46.55.55 0 0 1-.28.62l-3.63 2.1 10.4 6a.57.57 0 0 1 .3.49l-.06.36-9.23 5.33a.81.81 0 0 1-.74 0Zm-1.74-11.69a.58.58 0 0 1-.29-.5l.05-.35 3.35-1.93-18.51-1.14 2 10.68 3.9-2.25a.77.77 0 0 1 .75 0l10.82 6.28 8.29-4.79Z" style="fill:#fff"/><path d="m134.53 263.65-19.74 1.22c-.15 0-.22.12-.11.18l4.15 2.39a.08.08 0 0 1 0 .15L108 273.82a.08.08 0 0 0 0 .15l4.42 2.55 4.41 2.55a.3.3 0 0 0 .26 0l10.8-6.23a.3.3 0 0 1 .26 0l4.14 2.39c.11.07.3 0 .31-.06l2.11-11.4c.04-.07-.06-.12-.18-.12Z" style="fill:#6669f1"/><path d="M117 277.68a.77.77 0 0 1-.36-.09l-9.07-5.23v-.35a.58.58 0 0 1 .29-.49l10.14-5.89-3.56-2.06a.54.54 0 0 1-.28-.61.6.6 0 0 1 .59-.45l19.74-1.22a.72.72 0 0 1 .57.22l.15.17v.28l-2.1 11.4a.63.63 0 0 1-.33.42.76.76 0 0 1-.69 0l-4-2.33-10.69 6.17a.78.78 0 0 1-.4.06Zm-8.15-5.68 8.14 4.7 10.69-6.17a.73.73 0 0 1 .73 0l3.84 2.21 1.94-10.49-18.19 1.13 3.29 1.9v.34a.54.54 0 0 1-.29.49Z" style="fill:#fff"/><path d="m91.82 312.72-19.74 1.21c-.16 0-.22.12-.11.18l4.14 2.4c.07 0 .07.1 0 .15l-10.79 6.23a.08.08 0 0 0 0 .15l4.41 2.55 4.42 2.55a.3.3 0 0 0 .26 0l10.79-6.24a.3.3 0 0 1 .26 0l4.14 2.4c.11.06.3 0 .32-.07L92 312.84c0-.07-.07-.13-.18-.12Z" style="fill:#6669f1"/><path d="M74.28 326.75a.69.69 0 0 1-.37-.1l-9.06-5.23-.06-.35a.55.55 0 0 1 .29-.48l10.21-5.9-3.56-2.06a.56.56 0 0 1-.28-.6.64.64 0 0 1 .6-.46l19.74-1.21a.66.66 0 0 1 .56.21l.16.17v.29l-2.11 11.4a.55.55 0 0 1-.33.41.77.77 0 0 1-.68 0l-4-2.34-10.69 6.17a.65.65 0 0 1-.42.08Zm-8.15-5.68 8.15 4.7L85 319.6a.81.81 0 0 1 .74 0l3.83 2.22 1.94-10.5-18.18 1.12 3.29 1.9.06.35a.55.55 0 0 1-.29.48ZM298.69 166.55v-1.2c0-.69 0-1.4-.11-2.13a9.39 9.39 0 0 0-.56-2.46l-.07-.17 2.16-1.61v.1l.1.25c0 .1.07.2.11.3a2.56 2.56 0 0 0 .09.26 1.68 1.68 0 0 0 .16.39.8.8 0 0 0 .24.27.34.34 0 0 0 .34 0 .36.36 0 0 0 .21-.21.93.93 0 0 0 0-.27.62.62 0 0 0 0-.13 1.72 1.72 0 0 0-.08-.38l-.1-.3-.06-.12 2.06-1.6v.08l.07.18c0 .07 0 .14.07.21s0 .13.06.17a3.93 3.93 0 0 1 .17 1 3.67 3.67 0 0 1-.63 2.16 4.13 4.13 0 0 1-1.69 1.43 3.39 3.39 0 0 1-.41.15v2.56Z" style="fill:#fff"/><path d="M190.32 167.36H195l8.73-5a3.46 3.46 0 0 1 3.11-.13l9 5.17h4.72v3.25a1.3 1.3 0 0 1-.75 1l-12.69 7.32a3.45 3.45 0 0 1-3.12.03l-13.13-7.58a.9.9 0 0 1-.54-.84Z" style="fill:#db9070"/><path d="m203.82 179.33-13.13-7.59a1.32 1.32 0 0 1-.68-.84v-3.63a.25.25 0 0 1 .25-.24H195l8.65-5a3.77 3.77 0 0 1 3.45-.13l8.88 5.13h4.72a.23.23 0 0 1 .24.24v3.59a1.76 1.76 0 0 1-.88 1l-12.69 7.33a4 4 0 0 1-1.93.48 3.12 3.12 0 0 1-1.62-.34Zm16.4-11.63h-4.47l-9-5.21a3.13 3.13 0 0 0-2.77.13l-8.81 5.08h-4.47l14.65 8.4v2.9a3.34 3.34 0 0 0 1.63-.4l12.69-7.33a1 1 0 0 0 .59-.69v-2.88Z" style="fill:url(#f)"/><path d="m190.86 168.2 13.14 7.58a3.45 3.45 0 0 0 3.12-.13l12.69-7.32c.92-.53 1-1.34.22-1.8l-13.14-7.59a3.46 3.46 0 0 0-3.11.13l-12.69 7.33c-.93.53-1.03 1.34-.23 1.8Z" style="fill:#db9070"/><path d="m203.82 176.08-13.13-7.59a1.24 1.24 0 0 1-.71-1.07 1.61 1.61 0 0 1 .93-1.31l12.69-7.33a3.8 3.8 0 0 1 3.45-.13l13.14 7.59a1.24 1.24 0 0 1 .71 1.07 1.61 1.61 0 0 1-.93 1.31L207.28 176a4 4 0 0 1-1.93.48 3.12 3.12 0 0 1-1.53-.4Zm.12-16.71-12.69 7.32c-.37.22-.6.49-.6.73s.21.39.37.49l13.14 7.58a3.15 3.15 0 0 0 2.78-.13l12.69-7.36c.37-.22.59-.49.59-.73a.63.63 0 0 0-.37-.49l-13.14-7.58a2.37 2.37 0 0 0-1.18-.27 3.29 3.29 0 0 0-1.59.44Z" style="fill:url(#az)"/><path d="m194.16 166.91 1.84-14.42h18.79l1.87 14.3a.5.5 0 0 1 0 .12v.09a1 1 0 0 1-.56.72l-9.48 5.47a2.58 2.58 0 0 1-2.32.1l-9.81-5.66a.65.65 0 0 1-.33-.72Z" style="fill:#db9070"/><path d="m204.19 173.55-9.81-5.66a1 1 0 0 1-.56-1l1.9-14.51a.23.23 0 0 1 .23-.2h19.17L217 166.7a1.6 1.6 0 0 1 0 .23l-.06.32a1.41 1.41 0 0 1-.67.73l-9.48 5.48a3.12 3.12 0 0 1-1.48.37 2.34 2.34 0 0 1-1.12-.28Zm12.19-6.6v-.11l-1.87-14-9 2.92v17.41a2.32 2.32 0 0 0 1-.28l9.49-5.49c.23-.14.38-.3.39-.45Z" style="fill:url(#aA)"/><path d="m196.37 153 8.17 4.72a2.16 2.16 0 0 0 1.93-.08l7.89-4.56c.57-.33.63-.83.14-1.11l-8.17-4.72a2.16 2.16 0 0 0-1.93.08l-7.89 4.56c-.57.33-.63.83-.14 1.11Z" style="fill:#db9070"/><path d="m204.37 158-8.16-4.71a.93.93 0 0 1-.51-.78 1.15 1.15 0 0 1 .64-.93l7.89-4.55a2.47 2.47 0 0 1 2.27-.08l8.17 4.71a.92.92 0 0 1 .5.78 1.13 1.13 0 0 1-.64.93l-7.89 4.55a2.56 2.56 0 0 1-1.26.32 2 2 0 0 1-1.01-.24Zm.2-10.38-7.89 4.55c-.22.13-.3.26-.3.34s.11.16.16.19l8.17 4.71a1.79 1.79 0 0 0 1.59-.08l7.89-4.55c.22-.13.3-.26.3-.34s-.11-.16-.16-.19l-8.17-4.71a1.34 1.34 0 0 0-.66-.15 1.91 1.91 0 0 0-.93.24Z" style="fill:url(#aB)"/><path d="M200.84 150.83s2.1-2.1 2.1-9.81h5c0 7.71 2.09 9.81 2.09 9.81.64 1 .14 2.12-1.23 2.91a7.46 7.46 0 0 1-6.73 0c-1.36-.74-1.86-1.93-1.23-2.91Z" style="fill:#db9070"/><path d="M205.92 141h2c0 7.71 2.09 9.81 2.09 9.81.64 1 .14 2.12-1.23 2.91a7.46 7.46 0 0 1-6.73 0l-.08-.06a7.33 7.33 0 0 0 4.78-.67" style="fill:url(#aC)"/><path d="M201.9 154a3.19 3.19 0 0 1-1.61-1.88 1.9 1.9 0 0 1 .27-1.51s2-2.15 2-9.57v-.33h5.68v.29c0 7.42 2 9.55 2 9.62a1.9 1.9 0 0 1 .27 1.51A3.17 3.17 0 0 1 209 154a7.86 7.86 0 0 1-7.07 0Zm3-12.16c-.06 7.09-3.47 12.34.25 12.33a7.13 7.13 0 0 0 3.5-.76 2.48 2.48 0 0 0 1.29-1.45 1.24 1.24 0 0 0-.13-.92c-.09-.09-2.14-2.23-2.2-9.71Z" style="fill:url(#aD)"/><path d="M201.85 141.39v-3.66H209v3.66a1.8 1.8 0 0 1-1.05 1.47 5.61 5.61 0 0 1-5.08 0 1.8 1.8 0 0 1-1.02-1.47Z" style="fill:#db9070"/><path d="M206.36 143.05a1.77 1.77 0 0 0 1-1.47v-3.65H209v3.66a1.8 1.8 0 0 1-1.05 1.47 5.57 5.57 0 0 1-3.34.55 4.9 4.9 0 0 0 1.75-.56Z" style="fill:url(#aE)"/><path d="M202.73 143.15a2.09 2.09 0 0 1-1.22-1.76v-4h7.86v4a2.11 2.11 0 0 1-1.22 1.76 5.89 5.89 0 0 1-5.42 0Zm-.55-5.08 2.71 2.28v2.75a5.07 5.07 0 0 0 2.92-.54 1.45 1.45 0 0 0 .88-1.17v-3.32Z" style="fill:url(#aF)"/><path d="M188.93 110.31h33s.5 15.66-10.81 28a4.3 4.3 0 0 1-1.29 1.08 9.7 9.7 0 0 1-8.81 0 4.25 4.25 0 0 1-1.28-1.08c-11.3-12.31-10.81-28-10.81-28Z" style="fill:#db9070"/><path d="M217.47 113.1h-28.31c-.13-1.71-.1-2.71-.1-2.71h33s.49 15.66-10.81 28a4.43 4.43 0 0 1-1.29 1.08 7.85 7.85 0 0 1-2.68.9c10.65-12.21 10.19-27.27 10.19-27.27Z" style="fill:url(#aG)"/><path d="M200.86 139.7a4.65 4.65 0 0 1-1.36-1.16c-11.27-12.3-10.91-28.09-10.91-28.25V110h33.67v.32c0 .16.37 15.95-10.88 28.23a4.67 4.67 0 0 1-1.38 1.15 10.15 10.15 0 0 1-9.15 0Zm1-27.52c-3.89 9 1.69 27.86 3 27.93a9 9 0 0 0 4.79-1 4.16 4.16 0 0 0 1.2-1c10.22-11.11 10.74-25.11 10.76-27.47Z" style="fill:url(#aH)"/><ellipse cx="205.44" cy="110.31" rx="16.51" ry="9.53" style="fill:#db9070"/><path d="M193.77 104.31c6.44-3.72 16.89-3.72 23.34 0 3 1.76 4.63 4 4.8 6.33-.17 2.31-1.75 4.58-4.8 6.34-6.45 3.72-16.9 3.72-23.34 0-3.05-1.76-4.64-4-4.81-6.34.17-2.3 1.76-4.57 4.81-6.33Z" style="fill:#ffd9d9"/><path d="M193.6 117.34c-3.23-1.87-5-4.36-5-7s1.78-5.17 5-7c6.53-3.77 17.15-3.77 23.68 0 3.23 1.87 5 4.36 5 7s-1.77 5.16-5 7a26.27 26.27 0 0 1-23.68 0Zm.34-13.48c-3 1.74-4.67 4-4.67 6.45s1.66 4.7 4.67 6.44c6.34 3.66 16.66 3.66 23 0 3-1.74 4.67-4 4.67-6.44s-1.66-4.71-4.67-6.45a25.42 25.42 0 0 0-23 0Z" style="fill:url(#aI)"/><ellipse cx="205.44" cy="110.31" rx="14.3" ry="7.79" style="fill:#db9070"/><path d="M195.32 104.73c5.05-2.75 12.93-3 18.52-.78-5.26-1.29-11.65-.77-16 1.59-5.41 2.95-5.41 8.07 0 11a17.79 17.79 0 0 0 1.71.78 17.89 17.89 0 0 1-4.25-1.59c-5.56-3.02-5.56-7.96.02-11Z" style="fill:url(#aJ)"/><path d="M195.15 116.09c-2.81-1.53-4.35-3.58-4.35-5.78s1.54-4.26 4.35-5.79c5.68-3.09 14.9-3.09 20.57 0 2.81 1.53 4.36 3.59 4.36 5.79s-1.55 4.25-4.36 5.78a24 24 0 0 1-20.57 0Zm.34-11c-2.59 1.41-4 3.27-4 5.24s1.43 3.82 4 5.23a21.71 21.71 0 0 0 11.21 2.21c8.87-.5 4.37-14.42 1.87-14.73a27.11 27.11 0 0 0-3.13-.19 21.39 21.39 0 0 0-9.95 2.22Z" style="fill:url(#aK)"/><path d="M197.68 165.43v-2.38c0-.58 0-1.22-.13-1.93 0-.11 0-.24-.06-.4l-.06-.44q-.06-.35-.12-.63v-.2l1.41.28v.22c0 .15.05.32.07.51s0 .37.08.53 0 .24 0 .27v.31c0 .19.05.34.07.46a.56.56 0 0 0 .14.27h.05v-.07a.19.19 0 0 0 0-.08v-.3c0-.12-.05-.42-.07-.62s0-.37 0-.49v-.19l1.24.44v.25c0 .16 0 .36.05.58s0 .44 0 .64v.11a3.39 3.39 0 0 0 0 .35c0 .11 0 .17.09.2s.09 0 .1 0a.68.68 0 0 0 0-.14.13.13 0 0 0 0-.06 1.34 1.34 0 0 0 0-.21c0-.18 0-.38-.05-.59s0-.4 0-.57v-.24l1.24.31v.49c0 .18 0 .38.06.63s0 .47 0 .67v.52a4.34 4.34 0 0 1-.09.52 1.17 1.17 0 0 1-.21.4.62.62 0 0 1-.44.26 1.08 1.08 0 0 1-.63-.2 2.84 2.84 0 0 1-.76-.75.89.89 0 0 1-.66-.13V166.35ZM257 105.76l2.44-1.44a18.07 18.07 0 0 1 .62 4.53 41.34 41.34 0 0 1-.08 4.37l-2.63 1.34s.65-5.68-.35-8.8Z" style="fill:#fff"/><path d="M242.31 465.11v-50.54l64.82-44.26v58.41a14 14 0 0 1-6.87 12l-47.43 28c-3.77 2.28-10.52.76-10.52-3.61Z" style="fill:url(#aL)"/><path d="M410.46 431.15v-46l75.09-49.54v47.9a28.19 28.19 0 0 1-13.5 24.05l-49.59 30.22c-5.81 3.65-12 .22-12-6.63Z" style="fill:url(#aM)"/><path d="M.34 331.24 0 379.57a36 36 0 0 0 18.31 31.36l56 30.18c4.92 2.77 9.76 0 9.82-5.67l.5-48.61Z" style="fill:url(#aN)"/></g></g></svg>