<svg width="23" height="22" viewBox="0 0 23 22" fill="none" xmlns="http://www.w3.org/2000/svg">
<path d="M15.9967 4.43008L18.2809 6.71314L15.9967 4.43008ZM17.4656 2.41878L11.2893 8.59502C10.9702 8.9137 10.7525 9.31972 10.6638 9.7619L10.0933 12.6176L12.949 12.046C13.3912 11.9576 13.7967 11.7408 14.1159 11.4216L20.2922 5.24538C20.4777 5.05978 20.625 4.83945 20.7254 4.59695C20.8259 4.35446 20.8776 4.09455 20.8776 3.83208C20.8776 3.56961 20.8259 3.3097 20.7254 3.06721C20.625 2.82471 20.4777 2.60438 20.2922 2.41878C20.1066 2.23318 19.8862 2.08596 19.6437 1.98552C19.4012 1.88507 19.1413 1.83337 18.8789 1.83337C18.6164 1.83337 18.3565 1.88507 18.114 1.98552C17.8715 2.08596 17.6512 2.23318 17.4656 2.41878V2.41878Z" stroke="#6669F1" stroke-width="1.8" stroke-linecap="round" stroke-linejoin="round"/>
<path d="M18.7209 14.7745V18.0099C18.7209 18.5819 18.4936 19.1305 18.0891 19.535C17.6847 19.9395 17.136 20.1667 16.564 20.1667H4.70114C4.12909 20.1667 3.58048 19.9395 3.17599 19.535C2.77149 19.1305 2.54425 18.5819 2.54425 18.0099V6.147C2.54425 5.57496 2.77149 5.02634 3.17599 4.62185C3.58048 4.21735 4.12909 3.99011 4.70114 3.99011H7.93646" stroke="#6669F1" stroke-width="1.8" stroke-linecap="round" stroke-linejoin="round"/>
</svg>
