<svg width="34" height="34" viewBox="0 0 34 34" fill="none" xmlns="http://www.w3.org/2000/svg">
<path d="M10.3333 16.1667V23.6667H17.8333L16.2692 22.1026H11.8975V17.7309L10.3333 16.1667Z" fill="#6669F1"/>
<path d="M29.2844 27.4146L27.1932 25.2839V27.2023H6.79066V24.1637H8.24799V22.9922H6.79066V18.1231H8.24799V16.9516H6.79066V12.2655H8.24799V11.094H6.79066V7.00104L18.4055 18.6063V16.5415L6.57935 4.71659C6.47743 4.61333 6.34722 4.54291 6.20532 4.5143C6.06341 4.4857 5.91624 4.5002 5.78257 4.55597C5.64891 4.61174 5.53479 4.70625 5.45478 4.82744C5.37478 4.94863 5.3325 5.09102 5.33334 5.23645V27.9345C5.33334 28.1287 5.41011 28.3149 5.54676 28.4522C5.68341 28.5895 5.86875 28.6667 6.062 28.6667H28.7671C28.9118 28.6675 29.0535 28.625 29.1741 28.5446C29.2947 28.4642 29.3888 28.3496 29.4443 28.2152C29.4998 28.0809 29.5142 27.933 29.4858 27.7905C29.4573 27.6479 29.3872 27.517 29.2844 27.4146Z" fill="#6669F1"/>
<path d="M21.7917 25.3334H24.7083C25.0951 25.3334 25.466 25.1812 25.7395 24.9102C26.013 24.6392 26.1667 24.2717 26.1667 23.8885V9.94529L24.4896 6.88934C24.3599 6.66669 24.1726 6.48236 23.947 6.35537C23.7214 6.22837 23.4657 6.16331 23.2062 6.16689C22.9409 6.16897 22.6812 6.24273 22.4551 6.38022C22.2289 6.51771 22.045 6.71372 21.9229 6.94713L20.3333 9.95974V23.8885C20.3333 24.2717 20.487 24.6392 20.7605 24.9102C21.034 25.1812 21.4049 25.3334 21.7917 25.3334ZM21.7917 10.3065L23.2062 7.58288L24.7083 10.3137V20.9987H21.7917V10.3065ZM21.7917 22.1763H24.7083V23.9391H21.7917V22.1763Z" fill="#6669F1"/>
</svg>
