<svg width="28" height="28" viewBox="0 0 28 28" fill="none" xmlns="http://www.w3.org/2000/svg">
<path d="M10.5 19.8334H14M4.66667 4.66671V23.3334C4.66667 23.9522 4.9125 24.5457 5.35009 24.9833C5.78767 25.4209 6.38116 25.6667 7 25.6667H21C21.6188 25.6667 22.2123 25.4209 22.6499 24.9833C23.0875 24.5457 23.3333 23.9522 23.3333 23.3334V9.73237C23.3333 9.42153 23.2711 9.11382 23.1505 8.82733C23.0299 8.54083 22.8533 8.28132 22.631 8.06404L17.451 2.99837C17.0151 2.57214 16.4297 2.33345 15.82 2.33337H7C6.38116 2.33337 5.78767 2.57921 5.35009 3.01679C4.9125 3.45438 4.66667 4.04787 4.66667 4.66671V4.66671ZM10.5 15.1667H17.5H10.5Z" stroke="#6669F1" stroke-width="1.8" stroke-linecap="round" stroke-linejoin="round"/>
<path d="M16.3333 2.33337V7.00004C16.3333 7.61888 16.5792 8.21237 17.0168 8.64996C17.4543 9.08754 18.0478 9.33337 18.6667 9.33337H23.3333" stroke="#6669F1" stroke-width="1.8" stroke-linejoin="round"/>
</svg>
