<svg width="20" height="20" fill="none" xmlns="http://www.w3.org/2000/svg"><path d="M17.46 6.92c-.01-.63-.13-1.26-.35-1.85a3.84 3.84 0 0 0-2.2-2.19 5.5 5.5 0 0 0-1.82-.35A53.6 53.6 0 0 0 10 2.48c-2.04 0-2.3 0-3.1.05a5.5 5.5 0 0 0-1.81.35 3.84 3.84 0 0 0-2.2 2.2c-.22.58-.33 1.2-.35 1.81-.03.8-.04 1.06-.04 3.1 0 2.03 0 2.3.04 3.09.02.62.13 1.24.35 1.82a3.84 3.84 0 0 0 2.2 2.2c.58.22 1.2.35 1.82.37.8.04 1.06.05 3.1.05 2.03 0 2.29 0 3.08-.05a5.5 5.5 0 0 0 1.82-.35 3.85 3.85 0 0 0 2.2-2.2c.22-.58.34-1.2.35-1.82.03-.8.04-1.05.04-3.09 0-2.03 0-2.3-.04-3.09Zm-7.47 6.92a3.85 3.85 0 1 1 0-7.7 3.85 3.85 0 0 1 0 7.7ZM14 6.89a.9.9 0 1 1 0-1.8.9.9 0 0 1 0 1.8Z" fill="#6669F1"/><path d="M10 12.48a2.5 2.5 0 1 0 0-5 2.5 2.5 0 0 0 0 5Z" fill="#6669F1"/></svg>