<svg xmlns="http://www.w3.org/2000/svg" xmlns:xlink="http://www.w3.org/1999/xlink" viewBox="0 0 586.7 454.8"><defs><radialGradient id="e" cx="308.5" cy="266.6" r="290.1" gradientTransform="matrix(.97565 -.21934 .1316 .58539 -27.4 178.9)" gradientUnits="userSpaceOnUse"><stop offset="0" stop-color="#76b3e8"/><stop offset=".2" stop-color="#7bb6e9"/><stop offset=".4" stop-color="#88bdec"/><stop offset=".7" stop-color="#9ecaf1"/><stop offset=".9" stop-color="#bddcf8"/><stop offset="1" stop-color="#cfe7fc"/></radialGradient><radialGradient id="f" cx="338.9" cy="-10.8" r="186.4" gradientUnits="userSpaceOnUse"><stop offset="0" stop-color="#cfe7fc"/><stop offset="1" stop-color="#5dabee"/></radialGradient><radialGradient id="i" cx="1357.1" cy="-1953.4" r="2.3" gradientTransform="matrix(1.22 0 0 .66 -1314.3 1484.3)" gradientUnits="userSpaceOnUse"><stop offset=".2" stop-color="#afb6e5"/><stop offset="1" stop-color="#fff"/></radialGradient><radialGradient id="k" cx="343.4" cy="195.9" r="1.4" gradientUnits="userSpaceOnUse"><stop offset="0" stop-color="#fff"/><stop offset="1"/></radialGradient><radialGradient id="m" cx="346.1" cy="164" r="7.6" gradientUnits="userSpaceOnUse"><stop offset="0" stop-color="#bb6df3"/><stop offset=".1" stop-color="#9155bd"/><stop offset=".2" stop-color="#6b3e8b"/><stop offset=".4" stop-color="#4a2b60"/><stop offset=".5" stop-color="#2f1c3e"/><stop offset=".6" stop-color="#1b0f23"/><stop offset=".7" stop-color="#0c070f"/><stop offset=".9" stop-color="#030204"/><stop offset="1"/></radialGradient><radialGradient id="a" cx="154.8" cy="116.8" r="28.4" gradientUnits="userSpaceOnUse"><stop offset="0" stop-color="#6ba6ff"/><stop offset=".1" stop-color="#609bf1"/><stop offset=".5" stop-color="#3d76c1"/><stop offset=".8" stop-color="#275fa4"/><stop offset="1" stop-color="#1f5699"/></radialGradient><radialGradient id="o" cx="155.2" cy="102" r="22.6" xlink:href="#a"/><radialGradient id="p" cx="156.1" cy="79.3" r="28.6" xlink:href="#a"/><radialGradient id="s" cx="272.2" cy="53.6" r="28.4" xlink:href="#a"/><radialGradient id="t" cx="272.6" cy="38.8" r="22.6" xlink:href="#a"/><radialGradient id="v" cx="273.5" cy="16.1" r="28.6" xlink:href="#a"/><radialGradient id="y" cx="302.8" cy="65.8" r="21.9" xlink:href="#a"/><radialGradient id="z" cx="303.1" cy="54.3" r="17.4" xlink:href="#a"/><radialGradient id="B" cx="303.8" cy="36.8" r="22.1" xlink:href="#a"/><radialGradient id="b" cx="175" cy="102.1" r="41.9" gradientUnits="userSpaceOnUse"><stop offset="0" stop-color="#63a9e5"/><stop offset="1" stop-color="#3d7bb0"/></radialGradient><radialGradient id="E" cx="179" cy="78.5" r="41.7" xlink:href="#b"/><radialGradient id="G" cx="176.3" cy="62.1" r="24.6" xlink:href="#b"/><radialGradient id="J" cx="399" cy="166.1" r="27.1" xlink:href="#b"/><radialGradient id="K" cx="401.6" cy="150.8" r="27" xlink:href="#b"/><radialGradient id="M" cx="399.9" cy="140.3" r="15.9" xlink:href="#b"/><linearGradient id="g" x1="283" y1="109.8" x2="291" y2="377.2" gradientUnits="userSpaceOnUse"><stop offset="0" stop-color="#80c2fb"/><stop offset="1" stop-color="#cfe7fc"/></linearGradient><linearGradient id="h" x1="284.5" y1="187" x2="286.5" y2="-11.2" gradientUnits="userSpaceOnUse"><stop offset="0" stop-color="#a9d4fc"/><stop offset=".1" stop-color="#a3d1fb"/><stop offset=".3" stop-color="#84c1f7"/><stop offset=".6" stop-color="#6eb5f4"/><stop offset=".8" stop-color="#61aef2"/><stop offset="1" stop-color="#5cacf1"/></linearGradient><linearGradient id="j" x1="6158.4" y1="192.4" x2="6161.5" y2="195.8" gradientTransform="matrix(-1 0 0 1 6504.7 0)" gradientUnits="userSpaceOnUse"><stop offset="0" stop-color="#afb6e5"/><stop offset=".1" stop-color="#b6bce8"/><stop offset=".3" stop-color="#c8cdf1"/><stop offset=".6" stop-color="#e5e9ff"/><stop offset=".9" stop-color="#f5f4fc"/><stop offset="1" stop-color="#f7f6fb"/></linearGradient><linearGradient id="l" x1="398.1" y1="176.5" x2="399.6" y2="176.5" gradientTransform="translate(-54.8)" gradientUnits="userSpaceOnUse"><stop offset="0" stop-color="#b9bfea"/><stop offset=".3" stop-color="#e5e9ff"/><stop offset=".7" stop-color="#afb6e5"/><stop offset=".9" stop-color="#bac0ea"/><stop offset="1" stop-color="#bdc3ec"/></linearGradient><linearGradient id="c" x1="153.9" y1="141.6" x2="156.7" y2="141.6" gradientUnits="userSpaceOnUse"><stop offset="0" stop-color="#031f38"/><stop offset="0" stop-color="#031c39"/><stop offset=".2" stop-color="#03123d"/><stop offset="1" stop-color="#6e6f74"/></linearGradient><linearGradient id="n" x1="154" y1="105.9" x2="156.8" y2="105.9" xlink:href="#c"/><linearGradient id="d" x1="145" y1="94.3" x2="166.5" y2="94.3" gradientUnits="userSpaceOnUse"><stop offset="0" stop-color="#6ba6ff"/><stop offset=".1" stop-color="#69a6f3"/><stop offset=".4" stop-color="#63a5d7"/><stop offset=".5" stop-color="#548fc4"/><stop offset=".8" stop-color="#477bb3"/><stop offset=".9" stop-color="#4274ad"/></linearGradient><linearGradient id="q" x1="271.3" y1="78.4" x2="274.1" y2="78.4" xlink:href="#c"/><linearGradient id="r" x1="271.4" y1="42.7" x2="274.2" y2="42.7" xlink:href="#c"/><linearGradient id="u" x1="262.4" y1="31.1" x2="283.9" y2="31.1" xlink:href="#d"/><linearGradient id="w" x1="302.1" y1="84.9" x2="304.3" y2="84.9" xlink:href="#c"/><linearGradient id="x" x1="302.2" y1="57.3" x2="304.3" y2="57.3" xlink:href="#c"/><linearGradient id="A" x1="295.2" y1="48.4" x2="311.9" y2="48.4" xlink:href="#d"/><linearGradient id="C" x1="173.6" y1="149.9" x2="177.6" y2="149.9" xlink:href="#c"/><linearGradient id="D" x1="173.7" y1="98.8" x2="177.7" y2="98.8" xlink:href="#c"/><linearGradient id="F" x1="160.8" y1="82.3" x2="191.6" y2="82.3" xlink:href="#d"/><linearGradient id="H" x1="398.1" y1="197" x2="400.6" y2="197" xlink:href="#c"/><linearGradient id="I" x1="398.1" y1="164" x2="400.7" y2="164" xlink:href="#c"/><linearGradient id="L" x1="389.8" y1="153.3" x2="409.7" y2="153.3" xlink:href="#d"/></defs><g data-name="Layer 2" style="isolation:isolate"><g data-name="Layer 6"><path d="M259.7 454.7s165.6 7 271.3-100.4c157.5-160.1-72.7-132-37-208.3C519.5 91.5 441.6-9.9 307.6 22.4S-103.6 250 40.4 378.1c85.8 76.3 219.3 76.6 219.3 76.6Z" fill="url(#e)"/><path d="M349.2 14s46.4 13.2 56.7 46.7c11.2 36.5 20.3 51.5 37.7 59.4 17.2 7.8 63.3 23 74.2 141.6a13.8 13.8 0 0 1-3.2 10.2c-34 40-197.3 63.6-197.3 63.6L415 231l56.2-47.5-48.9-42.8-75.3 29-68.8 38.2-31 .5-17.7-33.7 92.5-51.3 41.4-39.8L351 51Z" fill="url(#f)"/><path d="M85.4 152S37 245 67.2 303.6s122 111.8 246.2 90.2c120.5-20.9 195-79.5 204.1-123.2a16.2 16.2 0 0 0 0-7.2c-11.9-49.4-27.9-83.6-27.9-83.6l-79 78.6-173.2 40-83.7-47.3-46-91.7Z" fill="url(#g)"/><path fill="url(#h)" d="m137.7 130.2 128.1-93.9L322.6 52l22.7 11.3-14.2 39.3-112.8 79 11.2 22.8 26.3 6.9 72.5-24.7 78.2-38.2 45.6 33.2-20.9 40.4-28.7 22.4-109.2 47-57.9-5-51.6-18.2-46.1-33.3-16.4-38.8-4.1-32.1 20.5-33.8z"/><path d="m476.3 156.6 2.1-2.2-2 2.2 2.1-2.1a100 100 0 0 0-127.2-15.8l-82.1 53a12 12 0 0 1-12.2.5l-1.6-.8a2.8 2.8 0 0 1-1-1 3 3 0 0 1-.5-1.5 2.9 2.9 0 0 1 .4-1.4 2.8 2.8 0 0 1 1-1l111.2-72.7a52.1 52.1 0 0 0 17.8-19.5 52.9 52.9 0 0 0 6-24.5 52.2 52.2 0 0 0-16.8-38.5l-2 2.2h3v-1.3l-1-.9a117.2 117.2 0 0 0-142.5-13L129.4 82.8a101.5 101.5 0 0 0-32 139l.1.3.3.2 2.1-2.1-2.5 1.6a206 206 0 0 0 76.7 73 207.8 207.8 0 0 0 99.7 25.5 206.2 206.2 0 0 0 100.3-26l90.3-50.3a57 57 0 0 0 22-21.7 58 58 0 0 0 7.6-28.7 57.1 57.1 0 0 0-15.5-39.1l-2.1 2.1-2.2 2a51 51 0 0 1 13.8 35 51.8 51.8 0 0 1-6.8 25.7 51 51 0 0 1-19.7 19.4L371.2 289a200.2 200.2 0 0 1-97.5 25.3 201.9 201.9 0 0 1-96.8-24.7 200.2 200.2 0 0 1-74.5-70.9l-.1-.3-.3-.2-2.1 2 2.5-1.5a95 95 0 0 1-14.2-50 96.1 96.1 0 0 1 11.5-45.4A95.2 95.2 0 0 1 132.6 88l101.6-64.6a111.2 111.2 0 0 1 135.3 12.4l2-2.2h-3v1.3l1 1a46.2 46.2 0 0 1 14.8 34 46.9 46.9 0 0 1-5.3 21.7 46.3 46.3 0 0 1-15.8 17.3L252 181.4a8.8 8.8 0 0 0-3 3.4 8.9 8.9 0 0 0 3.7 11.9l1.5.8a18 18 0 0 0 18.3-.7l82.1-53a94 94 0 0 1 119.5 14.8l2.1-2.1-2.1 2ZM431 211l-1.6-2.6-63.9 38.5a167.7 167.7 0 0 1-92.2 28 152 152 0 0 1-112.8-48.8 84 84 0 0 1-16-25.8 81 81 0 0 1-5.9-29.8 64.8 64.8 0 0 1 6.9-29.7 61.5 61.5 0 0 1 22.2-24l90-62.3a51.1 51.1 0 0 1 61.1 2.1l5.4 4.4a19.6 19.6 0 0 1-1.7 31.9L215 162.3a29.9 29.9 0 0 0-10.3 11 28.7 28.7 0 0 0-3.3 13.5c0 10.6 5.5 21.3 15.6 28.1a79.6 79.6 0 0 0 44.4 14.4 67.3 67.3 0 0 0 35.2-10l46.4-28 16.5-10 6.5-4a91.9 91.9 0 0 1 16.9-8.3 60.6 60.6 0 0 1 20.2-3.6h1.6a36.2 36.2 0 0 1 17.5 5 33.5 33.5 0 0 1 12.4 13 23.5 23.5 0 0 1 3.1 11 14.6 14.6 0 0 1-1.7 7 21.8 21.8 0 0 1-6.6 7.1l1.7 2.5-1.6-2.6 1.6 2.6 1.8 2.4a27.8 27.8 0 0 0 8.3-9.1 20.6 20.6 0 0 0 2.5-10 29.4 29.4 0 0 0-3.8-13.6 39.5 39.5 0 0 0-14.7-15.4 42.2 42.2 0 0 0-20.4-5.9H403a66.4 66.4 0 0 0-22.2 4 97.4 97.4 0 0 0-18 8.7l-69.4 42.1a61.3 61.3 0 0 1-32.1 9c-14 0-28.3-4.6-41-13.2a28.4 28.4 0 0 1-13-23.2 22.8 22.8 0 0 1 2.6-10.7 23.9 23.9 0 0 1 8.3-8.8L325.8 98a25.4 25.4 0 0 0 8.8-9.6 25.6 25.6 0 0 0-6.6-32l-5.4-4.3a57.1 57.1 0 0 0-68.4-2.4L164.4 112l1.7 2.4-1.6-2.5a67.4 67.4 0 0 0-24.3 26.3 70.7 70.7 0 0 0-7.6 32.4 87.3 87.3 0 0 0 6.3 32 89.8 89.8 0 0 0 17.2 27.7A158 158 0 0 0 273.3 281a173.7 173.7 0 0 0 95.5-28.9l-1.7-2.5 1.6 2.6 64-38.6Z" fill="#1553a0"/><path d="M475 157.1a97 97 0 0 0-123.4-15.3l-82.1 53a15 15 0 0 1-15.2.7l-1.6-.9a5.9 5.9 0 0 1-.4-10l111.2-72.7a49.5 49.5 0 0 0 6.7-77.8 114.2 114.2 0 0 0-139-12.7L129.7 85.9a98.6 98.6 0 0 0-31 134.9A204 204 0 0 0 371.2 292l90.3-50.2a54.5 54.5 0 0 0 13.4-84.8Zm-45.3 54.5L365.8 250c-66.3 43.8-155 37.2-208.8-21.3-28.7-31.2-34.4-87 7.8-113.8l89.8-62.3a54.1 54.1 0 0 1 64.8 2.3l5.4 4.3a22.7 22.7 0 0 1-2 36.8l-107.6 69.4c-17.8 11.5-15.5 35.7 2 47.6 23.5 16 52.3 19 76.4 4.4l69.4-42.1a74.2 74.2 0 0 1 40.4-12.3 38 38 0 0 1 32.5 19.7c4.6 8.8 6.2 19.9-6.2 28.9Z" fill="#5daaf0"/><path d="M137.8 252.9a115.8 115.8 0 0 1-28.4-32.7C83.2 174.7 91.7 117.8 138.8 88c32.6-20.7 66.4-42.2 92.7-59.6A107.1 107.1 0 0 1 338.6 22l9.5 5.1c39 21.7 37 60.3 7 80l-106.9 69c-7.5 4.3-8.4 15.2-2.4 20.1a26.5 26.5 0 0 0 30.5 2.4l89-53a79.6 79.6 0 0 1 89.7 5.8s41.5 36.7 14.4 70.8a57 57 0 0 1-17 13.4L363 284.5a186.5 186.5 0 0 1-206.8-17Z" fill="none" stroke="#fff" stroke-miterlimit="10"/><path d="M148 246.6a108.1 108.1 0 0 1-26.6-30.5C97 173.6 105 120.5 148.8 92.8c30.5-19.3 62-39.5 86.5-55.7A94 94 0 0 1 332 31l8 4.5a49.5 49.5 0 0 1 11.8 8.7c21.7 20.8 18.3 45.1-11 63.6l-101.1 62.8c-8 5.3-14.7 12.6-10.7 22.9 2.2 5.9 11.4 12.9 23.6 16.9a33 33 0 0 0 25.7-2.5l85.8-51.1c26.3-15.7 53.1-20.8 77.2-1.9l4 3.2c21.8 17 29 53.3 1.6 69l-92 51.2c-58.3 32.1-134.6 25.9-189.7-18Z" fill="none" stroke="#fff" stroke-miterlimit="10"/><path d="M158 240.6a98.8 98.8 0 0 1-24.3-28c-22.2-38.8-15-87.3 25-112.7 27.8-17.7 56.5-36 78.9-50.9a84.5 84.5 0 0 1 87.5-5.6c31.7 17.7 28.4 45.6-1.5 64.5L231.4 164c-7.2 4.8-22.2 12.6-17.6 28.6 2.4 8.6 17 18.8 28 23.4 16 6.8 31.9 4.4 41.4-2l77-47c12-7.1 23.6-12 34.6-14a48.8 48.8 0 0 1 38.6 10l2.3 1.9a34.4 34.4 0 0 1-4.5 57.1l-81.7 45.6a158.3 158.3 0 0 1-176-14.5Z" fill="none" stroke="#fff" stroke-miterlimit="10"/><path fill="#0b3d75" d="M312.3 271.1v-22.2h-2v22.2m59.2 27.5v-22.2h-2v22.2"/><path fill="#88f9ff" d="m312.4 260 55.1 27.5v-11.1l-55.2-27.5.1 11.1z"/><path fill="#fff" d="m367.4 249 39.7 23.2 1.7-.8-39.7-23"/><path d="M347.3 195.3c0 .8-1.3 1.4-2.8 1.4s-2.8-.6-2.8-1.4 1.3-1.6 2.8-1.6 2.8.7 2.8 1.6Z" style="mix-blend-mode:multiply" fill="url(#i)"/><path d="M346 194.9h-4v.5c0 .7 1 1.2 2 1.2s2-.5 2-1.2Z" fill="#1553a0"/><path d="M342 194.9c0 .6 1 1.1 2 1.1s2-.5 2-1.1-.8-1.2-2-1.2-2 .6-2 1.2Z" fill="url(#j)"/><path d="M344 196c-1 0-1.9-.5-2-1.1 0 .6 1 1.1 2 1.1s2-.5 2-1.1c0 .6-.9 1.1-2 1.1Z" style="mix-blend-mode:color-dodge" fill="url(#k)"/><path d="M344.8 157.7h-1.5v37.1c0 .3.3.5.8.5s.7-.2.7-.5Z" fill="url(#l)"/><path d="M344.8 157.7h-1.5v37.1c0 .3.3.5.8.5s.7-.2.7-.5Z" fill="#0b3d75"/><path d="M345.7 157.7a1.6 1.6 0 1 1-1.6-1.6 1.6 1.6 0 0 1 1.6 1.6Z" fill="#1553a0"/><path d="M344.5 168c1.2-1.6 3.4-4.3 7-.8 3 3 7.5-2.3 8-3 0 0-5.7.6-8-3.2-2.4-4.3-5.8-2.3-7-.8Z" fill="#88f9ff"/><path d="M359.4 186.5c1 0 2.4.2 2.8.8a.9.9 0 0 1 0 .8l-.2.3a1.7 1.7 0 0 0 .2 1.6 3.5 3.5 0 0 0 .4.4 11.4 11.4 0 0 0 1 1 13.3 13.3 0 0 1-2 0c-.8-.2-1.6-.4-1.8-.9a2 2 0 0 1-.4-.6 2.1 2.1 0 0 0-.9-1.2 4.8 4.8 0 0 0-2-.6l2.6-1.5.3-.1Z" fill="#afb6e5" opacity=".1"/><path d="M359.4 186.5c1 0 2.4.2 2.7.8a.8.8 0 0 1 0 .8l-.1.3a1.7 1.7 0 0 0 .2 1.5 2 2 0 0 0 .3.4 10.5 10.5 0 0 0 1 1 13.4 13.4 0 0 1-1.9 0c-.8-.1-1.6-.4-1.7-.8a1.6 1.6 0 0 1-.4-.6 2.1 2.1 0 0 0-1-1.2 4.7 4.7 0 0 0-1.8-.6l2.4-1.5.3-.1Z" fill="#afb6e5" opacity=".1"/><path d="M359.4 186.5c1 0 2.3.2 2.7.8a.8.8 0 0 1 0 .7l-.1.4a1.7 1.7 0 0 0 .1 1.5 3.2 3.2 0 0 0 .3.4 10.2 10.2 0 0 0 1 1 13.9 13.9 0 0 1-1.8 0c-.7-.2-1.4-.4-1.6-.8a1.3 1.3 0 0 1-.5-.6 2.2 2.2 0 0 0-.8-1.2 4.4 4.4 0 0 0-1.9-.7l2.4-1.4h.3Z" fill="#afb6e5" opacity=".1"/><path d="M359.5 186.5c1 0 2.2.2 2.5.8a.8.8 0 0 1 0 .7v.3a1.8 1.8 0 0 0 0 1.5 3 3 0 0 0 .3.4 9.8 9.8 0 0 0 1 1 14 14 0 0 1-1.7 0c-.7-.1-1.3-.3-1.5-.7a1.3 1.3 0 0 1-.5-.6 2.2 2.2 0 0 0-.8-1.2 4 4 0 0 0-1.8-.7l2.3-1.4h.2Z" fill="#afb6e5" opacity=".1"/><path d="M359.5 186.6c1 0 2.1.2 2.5.7v.7l-.1.3a1.8 1.8 0 0 0 0 1.5 3 3 0 0 0 .3.4 8.7 8.7 0 0 0 1 1 14.3 14.3 0 0 1-1.6 0c-.7-.2-1.3-.4-1.5-.7l-.5-.5a2.2 2.2 0 0 0-.7-1.3 3.8 3.8 0 0 0-1.9-.8l2.2-1.2.3-.1Z" fill="#afb6e5" opacity=".1"/><path d="M359.5 186.6c1 0 2.1.2 2.4.7 0 0 .2.3 0 .7v.3a1.9 1.9 0 0 0 0 1.4 2.9 2.9 0 0 0 .2.5 8 8 0 0 0 1 1l-1.5-.1a2.2 2.2 0 0 1-1.4-.6c-.4-.2-.5-.4-.6-.5a2.4 2.4 0 0 0-.6-1.3 3.7 3.7 0 0 0-1.8-.8l2-1.2.3-.1Z" fill="#afb6e5" opacity=".1"/><path d="M359.5 186.6c1 0 2 .2 2.4.7v.7a2.3 2.3 0 0 0-.1.3 1.9 1.9 0 0 0 0 1.4 3.2 3.2 0 0 0 .3.4 8 8 0 0 0 .8 1h-1.4a2.3 2.3 0 0 1-1.3-.6c-.3-.2-.5-.3-.5-.5a2.3 2.3 0 0 0-.6-1.3 3.3 3.3 0 0 0-1.8-.9l2-1.1.2-.1Z" fill="#afb6e5" opacity=".1"/><path d="M359.5 186.6a3.1 3.1 0 0 1 2.3.7s.2.3 0 .7v.3a1.9 1.9 0 0 0 0 1.3 2.3 2.3 0 0 0 .2.5 6.3 6.3 0 0 0 .8 1l-1.3-.1a3 3 0 0 1-1.2-.5l-.6-.4a2.4 2.4 0 0 0-.5-1.4 3.2 3.2 0 0 0-1.8-1l1.9-1h.2Z" fill="#afb6e5" opacity=".1"/><path d="M359.5 186.6a3.1 3.1 0 0 1 2.3.7v.7l-.1.2a2 2 0 0 0 0 1.4 2 2 0 0 0 .2.4 5 5 0 0 0 .8 1l-1.2-.1a3.4 3.4 0 0 1-1.2-.3l-.5-.5a2.4 2.4 0 0 0-.6-1.4 3 3 0 0 0-1.7-1l1.8-1Z" fill="#afb6e5" opacity=".1"/><path d="M359.5 186.7a3 3 0 0 1 2.2.6s.2.2 0 .7l-.1.2a2 2 0 0 0 0 1.4 2.9 2.9 0 0 0 .2.4 4.3 4.3 0 0 0 .7 1l-1.1-.1a4 4 0 0 1-1-.3c-.5-.2-.7-.4-.7-.5a2.5 2.5 0 0 0-.4-1.4 2.9 2.9 0 0 0-1.7-1l1.7-1Z" fill="#afb6e5" opacity=".1"/><path d="M362.4 190.9a7.8 7.8 0 0 1-2-.4c-.4-.1-.6-.3-.6-.4a2.5 2.5 0 0 0-.5-1.5 2.7 2.7 0 0 0-1.6-1l1.6-.9h.2a3 3 0 0 1 2.2.7v.6a2.1 2.1 0 0 0-.2 1.5 3.5 3.5 0 0 0 .9 1.4Z" fill="#afb6e5" opacity=".1"/><path d="M344.5 163c3.7-2.8 8.9 4 14.9 1.2 0 0-5.7.5-7.9-3.2-2.5-4.3-5.8-2.4-7-.8Z" style="mix-blend-mode:screen" opacity=".5" fill="url(#m)"/><g opacity=".3" fill="#afb6e5"><path d="m344.4 195.3-.5-.4c-.3-.1-.2-.4 0-.5l16-9.6a.9.9 0 0 1 .7 0l.5.3c.2.1.1.3-.1.5l-15.6 9.7a1.1 1.1 0 0 1-1 0Z" opacity=".1"/><path d="m344.4 195.3-.5-.4c-.2-.1-.2-.4 0-.5l15.2-9.1a1 1 0 0 1 .8 0l.4.2c.3.1.2.3 0 .5l-14.9 9.2a1.1 1.1 0 0 1-1 0Z" opacity=".1"/><path d="m344.4 195.2-.5-.3c-.2-.1-.2-.4 0-.5l14.5-8.7a1 1 0 0 1 .8 0l.4.2c.2.1.1.4 0 .5l-14.2 8.8a1 1 0 0 1-1 0Z" opacity=".1"/><path d="m344.4 195.2-.5-.3c-.2-.1-.2-.4.1-.5l13.6-8.2a1.2 1.2 0 0 1 1-.1l.3.2c.2.2 0 .4-.1.5l-13.4 8.4a1 1 0 0 1-1 0Z" opacity=".2"/><path d="m344.4 195.2-.4-.3c-.3-.1-.3-.4 0-.5l13-7.8a1.1 1.1 0 0 1 .8 0l.4.2c.2 0 0 .4-.2.5l-12.6 7.9a1.1 1.1 0 0 1-1 0Z" opacity=".2"/><path d="m344.4 195.2-.4-.3c-.3-.1-.2-.4 0-.5l12.2-7.3a1.3 1.3 0 0 1 1-.1l.3.2c.2.1 0 .4-.2.5l-12 7.5a1 1 0 0 1-.9 0Z" opacity=".3"/><path d="m344.4 195.2-.4-.3c-.2-.1-.2-.4 0-.5l11.4-6.9a1.4 1.4 0 0 1 1-.1l.4.2c.2.1 0 .5-.2.6l-11.2 7a1 1 0 0 1-1 0Z" opacity=".3"/><path d="m344.4 195.2-.4-.3c-.2-.1-.2-.4 0-.5l10.7-6.4a1.4 1.4 0 0 1 1-.2l.4.2c.2.2 0 .5-.3.6l-10.4 6.5a1 1 0 0 1-1 0Z" opacity=".4"/><path d="m344.4 195.2-.4-.3c-.2-.1-.2-.4.1-.5l9.9-6a1.6 1.6 0 0 1 1-.2l.3.2c.2.1 0 .5-.3.6l-9.7 6a1 1 0 0 1-.9.2Z" opacity=".4"/><path d="m344.4 195.1-.3-.2c-.3-.1-.2-.4 0-.5l9.2-5.5a1.7 1.7 0 0 1 1-.2l.3.2c.2.1-.1.5-.4.6l-9 5.6a1 1 0 0 1-.8 0Z" opacity=".5"/><path d="m344.4 195.1-.3-.2c-.2-.1-.2-.3 0-.5l8.4-5a1.8 1.8 0 0 1 1.1-.2l.3.2c.2 0-.1.5-.4.6l-8.2 5.1a1 1 0 0 1-.9 0Z" opacity=".5"/><path d="m344.4 195.1-.3-.2c-.2-.1-.2-.3 0-.5l7.7-4.6c.2-.1 1-.3 1.1-.2l.3.2c.2 0-.2.5-.4.6l-7.5 4.7a1 1 0 0 1-.9 0Z" opacity=".5"/><path d="m344.4 195.1-.3-.2c-.2-.1-.2-.3 0-.5l7-4.1a2 2 0 0 1 1.1-.3l.3.2c.2.1-.2.5-.5.6l-6.7 4.3a1 1 0 0 1-.9 0Z" opacity=".6"/><path d="m344.4 195-.3-.1c-.2-.1-.1-.3.1-.5l6.2-3.7c.2-.1 1-.4 1.1-.2l.3.1c.1.1-.3.5-.5.7l-6 3.7a.9.9 0 0 1-.9 0Z" opacity=".6"/><path d="m344.4 195-.2-.1c-.2-.1-.2-.3 0-.5l5.4-3.2c.2-.2 1-.4 1.2-.3l.3.1c.1.1-.3.6-.6.7l-5.3 3.3a.9.9 0 0 1-.8 0Z" opacity=".7"/><path d="m344.4 195-.2-.1c-.2-.1-.2-.3 0-.5l4.7-2.8a2.4 2.4 0 0 1 1.2-.3l.2.2c.2 0-.3.5-.5.7l-4.6 2.8a.9.9 0 0 1-.8 0Z" opacity=".7"/><path d="m344.4 195-.2-.2c-.2 0-.2-.3 0-.4l4-2.4c.2 0 1-.4 1.2-.3l.2.2c.2 0-.3.5-.5.7l-3.9 2.4a.8.8 0 0 1-.8 0Z" opacity=".8"/><path d="m344.4 195-.2-.1c-.2-.2-.1-.4 0-.5l3.2-1.9c.3-.1 1.1-.4 1.3-.3l.2.1c.2.1-.4.6-.6.7l-3.1 2a.9.9 0 0 1-.8 0Z" opacity=".8"/><path d="m344.5 195-.3-.1c-.1-.1-.1-.3.1-.5l2.4-1.4c.2-.1 1.1-.5 1.3-.4l.2.1c.2.1-.4.7-.6.8l-2.4 1.5a.8.8 0 0 1-.7 0Z" opacity=".9"/><path d="m344.5 195-.2-.1c-.2-.1-.2-.3 0-.4l1.7-1c.2-.2 1.1-.5 1.3-.4l.2.1c.2.1-.5.6-.7.8l-1.6 1a.8.8 0 0 1-.7 0Z" opacity=".9"/><path d="m344.5 195-.2-.1c-.2-.1-.2-.3 0-.4l1-.6c.2-.1 1.1-.5 1.3-.4l.2.1c.1.1-.5.7-.7.8l-1 .6a.8.8 0 0 1-.6 0Z" opacity="1"/><path d="m344.5 195-.2-.1c-.2-.1-.2-.3 0-.4l.2-.1c.2-.1 1.2-.5 1.4-.4h.2c.1.2-.6.7-.8.8l-.2.2a.8.8 0 0 1-.6 0Z"/></g><path d="M492 138.8a31.5 31.5 0 1 0-58.1 16.6c8 13.5 26.7 27.9 26.7 27.9s18.6-14.4 26.7-28a31.3 31.3 0 0 0 4.8-16.5Z" fill="#88f9ff"/><path d="M460.6 181.2c-4-3.2-18.6-15.4-25.3-26.7a29.8 29.8 0 1 1 50.6 0 123.8 123.8 0 0 1-25.3 26.7Z" fill="#6669f1"/><circle cx="460.6" cy="138.8" r="21.1" transform="rotate(-76.7 460.6 138.8)" fill="#6669f1" stroke="#fff" stroke-miterlimit="10"/><path d="M462.8 130a1.6 1.6 0 0 0-2 1l-3.5 12.6a1.6 1.6 0 0 0 1.1 2 1.5 1.5 0 0 0 .5 0 1.6 1.6 0 0 0 1.5-1.2l3.4-12.5a1.6 1.6 0 0 0-1-1.9Zm-10.6.3a1.6 1.6 0 0 0-2.2.2l-5.2 6.3a1.6 1.6 0 0 0 0 2l5.2 6.3a1.6 1.6 0 0 0 1.2.5 1.6 1.6 0 0 0 1-.3 1.6 1.6 0 0 0 .2-2.3l-4.4-5.2 4.4-5.3a1.6 1.6 0 0 0-.2-2.2Zm24.2 6.5-5.2-6.3a1.6 1.6 0 1 0-2.4 2l4.4 5.3-4.4 5.3a1.6 1.6 0 0 0 .2 2.2 1.6 1.6 0 0 0 1 .3 1.6 1.6 0 0 0 1.2-.5l5.2-6.3a1.6 1.6 0 0 0 0-2Z" fill="#fff"/><path d="M172.6 203a31.5 31.5 0 1 0-58.2 16.6c8 13.5 26.7 27.9 26.7 27.9s18.6-14.4 26.7-27.9a31.3 31.3 0 0 0 4.8-16.6Z" fill="#88f9ff"/><path d="M141.1 245.4a125 125 0 0 1-25.3-26.7 29.8 29.8 0 1 1 50.7 0 125.7 125.7 0 0 1-25.4 26.7Z" fill="#6669f1"/><circle cx="141.1" cy="203" r="21.1" transform="rotate(-76.7 141.1 203)" fill="#6669f1" stroke="#fff" stroke-miterlimit="10"/><path d="M143.3 194.3a1.6 1.6 0 0 0-2 1l-3.4 12.5a1.6 1.6 0 0 0 1 2 1.5 1.5 0 0 0 .5 0 1.6 1.6 0 0 0 1.5-1.1l3.5-12.5a1.6 1.6 0 0 0-1.1-2Zm-10.6.3a1.6 1.6 0 0 0-2.2.2l-5.2 6.2a1.6 1.6 0 0 0 0 2l5.2 6.2a1.6 1.6 0 0 0 2.2.2 1.6 1.6 0 0 0 .2-2.2l-4.3-5.2 4.3-5.3a1.6 1.6 0 0 0-.2-2.1ZM157 201l-5.3-6.2a1.6 1.6 0 0 0-2.4 2l4.4 5.2-4.4 5.3a1.6 1.6 0 0 0 .2 2.2 1.5 1.5 0 0 0 1 .3 1.6 1.6 0 0 0 1.2-.5l5.2-6.3a1.6 1.6 0 0 0 0-2Z" fill="#fff"/><g style="isolation:isolate"><path d="M156.3 142.2a2.2 2.2 0 0 1-2 0c-.6-.3-.6-.8 0-1.2a2.1 2.1 0 0 1 2 0c.5.4.5.9 0 1.2Z" fill="url(#c)"/><path d="M156.7 123.8v-17.9a.7.7 0 0 0-.4-.6h-.2l-.2-.1h-1.5v.1l-.1.1-.1.1v.2l-.1 35.7a.7.7 0 0 0 .4.5l.2.1.2.1h1.1a1.1 1.1 0 0 0 .3-.1h.2v-.2a.2.2 0 0 0 0-.1.3.3 0 0 0 0-.1v-13.8l.1-4Z" fill="#11467a"/><path d="M156.3 106.5a2.2 2.2 0 0 1-2 0c-.5-.3-.5-.8 0-1.2a2.2 2.2 0 0 1 2 0c.6.4.6.9 0 1.2Zm-.8-.5v-.2a.2.2 0 0 0-.2 0v.2a.2.2 0 0 0 .1 0" fill="url(#n)"/></g><path d="M173.5 124.8v-.4a.5.5 0 0 0 0-.2 2 2 0 0 0 0-.2.3.3 0 0 1 0-.2l-.1-.4a.3.3 0 0 0 0-.1v-.3l-.1-.2-.1-.3v-.1a2.7 2.7 0 0 0-.1-.3.2.2 0 0 0 0-.1v-.1a1.1 1.1 0 0 0-.1-.2 1 1 0 0 0-.1-.1v-.2l-.2-.2v-.1l-.1-.1-.1-.1-.2-.3-.5-.6-.3-.4-.6-.9-.5-.6-.3-.3-.2-.3v-.1l-.5-.5-.3-.5-.6-.8-.1-.1-.7-1-.3-.4-.4-.4-.4-.6-.7-.9-.7-.9-.3-.4-.3-.4-.5-.6-.4-.6-.6-.7v-.1l-.6-.7-.9-1.1-.4-.5-.5-.8-.7-.8-.1-.2-.1-.2-1.4-1.7v-.1l-.3-.3-.3-.4-.2-.3-.2-.3-1.5-1.8-16.6 21.3-.1.1-.1.2-.1.1-.1.1a.6.6 0 0 1 0 .1.6.6 0 0 1-.2.2 1 1 0 0 1 0 .2l-.1.1a.8.8 0 0 1-.1.1v.2l-.2.1v.3l-.1.2v.4l-.1.2v.2a1.6 1.6 0 0 0 0 .2v.2a2.2 2.2 0 0 0 0 .3v.1a.2.2 0 0 0 0 .1.2.2 0 0 1 0 .1v.8a.3.3 0 0 0 0 .2 1.2 1.2 0 0 0 0 .2.5.5 0 0 0 0 .2v.5a1.7 1.7 0 0 0 .1.3v.1a1 1 0 0 1 0 .1l.1.3c.1.1 0 0 0 .1l.2.4.2.5.1.3v.1a.8.8 0 0 0 .2.1v.2l.2.1a.6.6 0 0 0 0 .1l.1.1.2.2.1.2.3.3.1.1.1.1.3.2v.1l.2.2h.1l.2.2.1.1.2.1.2.2.1.1h.1l.3.2.1.1.1.1.5.3.9.5h.1l.1.1 1 .4.8.4h.3l.7.3h.2l1 .3.9.3h.3l.6.1h1.3l.4.2h8.5l.3-.1.5-.1h.8l.8-.3h.1l.7-.1h.2l.4-.2h.1l.7-.2h.2l.3-.1.4-.2h.3l.4-.2.4-.2.3-.1.6-.3h.2l.7-.5h.1l.2-.1.2-.2h.4l.2-.2h.1l.2-.2.2-.2.2-.1h.1l.3-.3.1-.1.1-.1.3-.3.2-.2.2-.2h.1l.1-.1.2-.2.1-.2.2-.2.1-.2h.1a1 1 0 0 1 .1-.3l.1-.1.1-.1a.4.4 0 0 1 0-.1l.1-.2v-.2l.2-.1a1.2 1.2 0 0 0 0-.2l.1-.3v-.3a.8.8 0 0 0 0-.2.9.9 0 0 0 0-.2.8.8 0 0 1 0-.1v-.2a.6.6 0 0 0 0-.1v-.1a1.9 1.9 0 0 0 0-.2.7.7 0 0 1 0-.2c.8-.5.8-.6.8-.8Z" fill="url(#a)"/><path d="M170.4 108.6a.3.3 0 0 1 0-.1 3.6 3.6 0 0 0 0-.5l-.1-.4v-.2l-.1-.3a.3.3 0 0 0 0-.2 2.2 2.2 0 0 0-.2-.3v-.2a.5.5 0 0 1 0-.1l-.2-.2-.2-.3L156 85.7h-.2l-13.5 19.7v.1l-.2.2-.1.2v.1l-.2.2v.4a1.5 1.5 0 0 0-.1.1v.3a.4.4 0 0 0 0 .1 2 2 0 0 0-.1.2 1.8 1.8 0 0 0 0 .2v.1a.6.6 0 0 0 0 .2 1.2 1.2 0 0 0 0 .1v.3a.5.5 0 0 1 0 .2v.2a1.3 1.3 0 0 0 0 .2v.2a.8.8 0 0 0 0 .1v.3a.8.8 0 0 0 0 .1v.5a1 1 0 0 0 0 .1.8.8 0 0 0 .1.2 1.6 1.6 0 0 0 .1.2v.2l.1.2.1.2.1.2.1.1.2.2v.1l.1.1.3.4.2.3a1 1 0 0 0 .1 0 .2.2 0 0 0 .1.2l.2.1.2.2.2.1.1.2a.4.4 0 0 0 .2 0v.1l.3.2h.2l.3.2v.1l.4.2.5.3.8.3h.2l.7.4.8.2h.2l.5.2h.2l1.6.4h1l.4.1h7.1l1-.2h.8l.3-.1.4-.1h.2l1-.4h.2l.6-.2h.1c.3 0 .5-.2.8-.3l.8-.4h.1a.3.3 0 0 1 .1 0l.5-.3.2-.1v-.1h.2l.4-.3.1-.1.4-.4h.2l.1-.2.1-.1.2-.2.2-.2.2-.2v-.1l.2-.1v-.1l.2-.2a3 3 0 0 0 .2-.3v-.3l.1-.1a.8.8 0 0 0 0-.2v-.1a.1.1 0 0 0 0-.1 1.8 1.8 0 0 0 .2-.3s0-.1 0-.2v-.1a2.3 2.3 0 0 0 0-.3v-.1c0-.1 0 0 0 0a3 3 0 0 0 .1-.5l.9-.4Z" fill="url(#o)"/><g style="isolation:isolate"><path d="M148.2 89.8c4.3-2.4 11.1-2.3 15.3.2s4 6.4-.3 8.8-11 2.3-15.2-.2-4-6.4.2-8.8Zm7.5 4.4c-.1 0-.1.1 0 .2a.2.2 0 0 0 .2 0s0-.1 0-.1a.2.2 0 0 0-.2 0" fill="url(#d)"/><path d="M166.5 94.6a1.8 1.8 0 0 0 0-.3v-.9a.9.9 0 0 0 0-.1 1.7 1.7 0 0 0-.1-.2 1.4 1.4 0 0 0-.1-.3 1.1 1.1 0 0 0 0-.1.6.6 0 0 0 0-.1l-.2-.2v-.1a1 1 0 0 0-.2-.2l-10-14.4h-.2L145.8 92a3.7 3.7 0 0 0-.2.3v.1l-.3.4a2.5 2.5 0 0 0-.1.4l-.1.4v.5a2.4 2.4 0 0 0 0 .4v.4a.3.3 0 0 1 0 .1l.1.4a3.7 3.7 0 0 0 .2.4l.1.4.2.3.2.3.1.2.2.2.2.1v.1l.1.1.3.3h.2v.1l.4.3.3.1.3.2.3.2.3.2h.3v.1l.7.3.6.2h.2l.2.1h.2l.6.2.6.1h.5l.6.2h5l.3-.1h.2l.5-.1.5-.1.5-.2h.4l.8-.3h.2l.4-.2.2-.1.2-.1h.2l.6-.4.5-.3h.1l.2-.2.2-.2.5-.3v-.1l.4-.3.3-.4.1-.2.1-.1.2-.3a.7.7 0 0 0 0-.2 2.3 2.3 0 0 0 .1-.2v-.2l.2-.2v-.1a.8.8 0 0 0 0-.2.3.3 0 0 0 0-.1 1.1 1.1 0 0 0 0-.2v-.2Z" fill="url(#p)"/></g><g style="isolation:isolate"><path d="M273.6 79a2.1 2.1 0 0 1-2 0c-.5-.3-.5-.8 0-1.1a2.1 2.1 0 0 1 2 0c.6.3.6.8 0 1.1Z" fill="url(#q)"/><path d="M274.1 60.6V42.7a.7.7 0 0 0-.4-.6h-.2l-.2-.1h-1.2a1.2 1.2 0 0 0-.3.1l-.1.1-.1.1a.6.6 0 0 1 0 .1l-.1 35.8a.7.7 0 0 0 .4.5 1.1 1.1 0 0 0 .2.2h1.4a1.1 1.1 0 0 0 .3-.1l.2-.1v-.1a.6.6 0 0 0 0-.1V64.6l.1-4.1Z" fill="#11467a"/><path d="M273.7 43.3a2.2 2.2 0 0 1-2 0c-.5-.3-.5-.8 0-1.1a2.1 2.1 0 0 1 2 0c.6.3.6.8 0 1Zm-.8-.5v-.1a.3.3 0 0 0-.2 0 .2.2 0 0 0 .2 0" fill="url(#r)"/></g><path d="M290.9 61.6v-.1a.3.3 0 0 0 0-.1v-.2a.5.5 0 0 0 0-.2 2.1 2.1 0 0 0 0-.2v-.2l-.1-.4V60a3 3 0 0 0 0-.3l-.1-.2a2.4 2.4 0 0 0-.1-.3v-.1l-.2-.3a.2.2 0 0 0 0-.1 1.7 1.7 0 0 0 0-.3 1 1 0 0 0-.1-.1v-.2l-.2-.1v-.2h-.2v-.2l-.2-.3-.5-.6-.3-.4-.6-.9-.5-.6-.3-.3-.2-.3-.5-.6-.3-.5-.6-.8-.1-.1-1.2-1.3-.3-.4-.3-.4-.4-.5v-.1l-.7-.9-.7-.9-.3-.4-.3-.4-.5-.6-.5-.6-.5-.7-.1-.1-.6-.7-.8-1.1-.4-.5-.6-.8-.6-.8-.1-.2-.2-.1-1.4-1.8v-.1l-.3-.3-.3-.3-.2-.4-.2-.2-1.4-2h-.1L256 57v.1a1.1 1.1 0 0 0-.2.2v.1l-.1.2h-.1v.4h-.2v.3h-.1v.2a1.4 1.4 0 0 0-.2.2 1 1 0 0 0 0 .1 1.2 1.2 0 0 1 0 .1l-.1.2v.2l-.2.3v.4a.6.6 0 0 0 0 .2 2.2 2.2 0 0 0 0 .3v.1c0 .1 0 0 0 0v.9a.3.3 0 0 1 0 .1v.5l.1.5v.1l.1.3v.2l.1.3v.1a3.7 3.7 0 0 0 .2.4l.2.5.2.3.1.2.1.1.2.2a.6.6 0 0 0 0 .1l.2.2.2.2.3.4a1.6 1.6 0 0 1 .1.1h.1l.2.3.2.1.1.1v.1l.3.2h.1l.2.2.2.1.1.1h.1l.3.3h.1l.1.1.5.3.9.5h.2l1 .5.8.4h.4l.7.3h.2l1 .3.9.2h.3l.6.2h1.2l.5.1h9.3l.6-.2h.2l.8-.2h.2l.6-.1h.3l.4-.2.8-.2.4-.1.4-.2h.3l.4-.2.4-.2.3-.1.6-.3h.1l.7-.5h.2l.2-.1.2-.2h.2l.3-.2h.1l.2-.1.2-.2.2-.2.3-.2.1-.1h.1l.1-.2.3-.2.2-.2.2-.2h.1a.5.5 0 0 0 .1-.2l.2-.1.1-.2.1-.2h.1l.1-.2.2-.3.1-.1v-.2l.2-.2v-.1l.1-.2a1.2 1.2 0 0 0 .1-.2l.1-.3c.1 0 0 0 0-.1v-.6a1 1 0 0 1 0-.1.4.4 0 0 0 0-.1v-.2a.2.2 0 0 0 0-.1 1.6 1.6 0 0 0 0-.2V62c1.2-.1 1.2-.2 1.2-.4Z" fill="url(#s)"/><path d="M287.8 45.4v-.1a2.4 2.4 0 0 0 0-.5l-.1-.5v-.1l-.1-.3v-.1a.3.3 0 0 0 0-.1 3.7 3.7 0 0 0-.2-.4v-.1l-.1-.2a1.6 1.6 0 0 0-.1-.2 2.1 2.1 0 0 0-.2-.2l-13.7-20.1h-.2l-13.6 19.8-.2.3v.1l-.1.1-.1.2-.1.2v.2a1.5 1.5 0 0 0 0 .2l-.1.2v.2a1.6 1.6 0 0 0-.1.2v.4a1.2 1.2 0 0 0 0 .2v.6a1.2 1.2 0 0 0 0 .2v.4a1.2 1.2 0 0 0 0 .2v.4l.1.2v.2a1.6 1.6 0 0 0 .1.2l.1.1v.3a1.3 1.3 0 0 0 .2.2v.1l.2.2a2.1 2.1 0 0 0 .1.2v.2h.1l.4.4.2.3v.1a.2.2 0 0 0 .2 0v.2h.1l.2.2.2.2.1.1h.2l.2.2.2.1.1.1h.1l.2.2h.1l.4.2.5.3.9.9h.1l.8.3.8.3h.2l.6.2h.2l1.5.3h.2l.5.1h9.3l.4-.2h.3l.4-.2h.2l1-.3h.4l.6-.2.8-.4h.1l.8-.4h.2l.5-.3.1-.1.1-.1h.1l.4-.3.1-.1a4.8 4.8 0 0 0 .5-.4l.2-.2.1-.1.2-.2a1.9 1.9 0 0 0 .2-.2l.2-.2v-.1l.2-.1V49l.2-.2.2-.3v-.2a.3.3 0 0 0 .1 0V48a.8.8 0 0 0 .1-.1v-.3l.2-.3a.6.6 0 0 0 0-.1v-.1a2.5 2.5 0 0 0 0-.3v-.1a.6.6 0 0 1 0-.1 3 3 0 0 0 0-.4V46l.8-.7Z" fill="url(#t)"/><g style="isolation:isolate"><path d="M265.6 26.6c4.3-2.4 11.1-2.3 15.3.2s4 6.4-.3 8.8-11 2.3-15.2-.2-4-6.4.2-8.8Zm7.4 4.5a.2.2 0 0 0 .2 0 .2.2 0 0 0-.1 0" fill="url(#u)"/><path d="M283.9 31.4a2 2 0 0 0 0-.2v-1c0-.1 0 0 0 0a.9.9 0 0 0 0-.1l-.1-.3a.9.9 0 0 0-.1-.2.9.9 0 0 0 0-.2l-.2-.2V29a1 1 0 0 0-.2-.1l-9.8-14.4h-.2l-10 14.3a3.7 3.7 0 0 0-.2.4l-.2.4-.1.4v.1l-.1.4v.5a2.4 2.4 0 0 0 0 .4 2.6 2.6 0 0 0 0 .4 2.5 2.5 0 0 0 .1.4 3 3 0 0 0 .2.4v.1c0 .1 0 .3.2.4l.1.3.3.3.1.2.2.2.1.1h.1l.1.2.3.2.1.1h.1c.1.2.2.3.4.3l.2.2a2.6 2.6 0 0 0 .3.2l.4.2.3.1.2.1h.1l.6.4h.1l.5.2h.6l.7.3h.5l.4.1h.2l.6.1h5.2l.5-.1.5-.1.5-.1.4-.1.8-.3h.2l.4-.1.3-.2h.2v-.1l.7-.3.5-.3.1-.1.2-.1.2-.2h.1l.4-.3.1-.1.3-.3V34h.1l.3-.3.1-.2.1-.1.2-.3v-.2a2.3 2.3 0 0 0 .2-.2v-.2l.1-.2v-.1a.8.8 0 0 0 0-.2 1.2 1.2 0 0 0 0-.2v-.2a1 1 0 0 1 0-.2Z" fill="url(#v)"/></g><g style="isolation:isolate"><path d="M304 85.4a1.7 1.7 0 0 1-1.6 0c-.4-.3-.4-.7 0-1a1.7 1.7 0 0 1 1.5 0c.5.3.5.7 0 1Z" fill="url(#w)"/><path d="M304.3 71.1V57.3a.5.5 0 0 0-.3-.4h-1.6l-.1.1v.1l-.1 27.6a.5.5 0 0 0 .3.5h1.2a.7.7 0 0 0 .3 0V85h.2V71Z" fill="#11467a"/><path d="M304 57.8a1.7 1.7 0 0 1-1.5 0c-.4-.3-.4-.7 0-1a1.7 1.7 0 0 1 1.5 0c.4.4.4.7 0 1Zm-.7-.4v-.1a.2.2 0 0 0-.1 0 .1.1 0 0 0 .1 0" fill="url(#x)"/></g><path d="M317.2 72v-.3a.4.4 0 0 0 0-.2V71a2.2 2.2 0 0 0-.1-.3v-.4a1.5 1.5 0 0 0-.1-.2v-.2l-.1-.2v-.1a1 1 0 0 0-.2-.2.4.4 0 0 1 0-.2h-.1l-.2-.2-.3-.5-.2-.3-.6-.7-.3-.4-.2-.3-.2-.2-.3-.5-.3-.3-.4-.6-.1-.2-.6-.7-.2-.3-.3-.3-.3-.4V63l-1.1-1-.5-.7-.3-.3-.2-.3-.4-.5-.3-.4-.4-.6h-.1l-.4-.6-.7-.9-.3-.4-.4-.6-.5-.6v-.2l-.1-.1-1-1.4h-.1l-.2-.3-.2-.2-.2-.3-.1-.2-1.2-1.4-13 16.4v.1a.9.9 0 0 1-.1.1l-.1.1v.1l-.1.1-.1.1v.1a.8.8 0 0 1-.1.1.5.5 0 0 1 0 .1l-.1.1-.1.2v.2l-.1.1v.2a.8.8 0 0 1 0 .2.2.2 0 0 1 0 .1v.3a.2.2 0 0 0 0 .2 1.3 1.3 0 0 0 0 .2v.9a1.5 1.5 0 0 0 0 .3v.7a.2.2 0 0 0 0 .2l.1.2a1.5 1.5 0 0 0 .2.3l.1.4.1.2v.1l.1.1a1 1 0 0 1 .1.1l.1.1v.1l.2.2v.1l.3.3.2.1.1.2h.1l.1.2h.1l.2.2h.1l.2.2h.1l.1.1.2.2h.1l.5.3.6.3h.2a7.5 7.5 0 0 0 .7.4l.7.2h.2l.5.2h.2l.8.2.7.2h.2l.5.1h.2l.4.1h8.5l.6-.2h.1l.5-.1h.2l.3-.2.6-.1h.1a2 2 0 0 0 .3-.1l.3-.1.2-.1.3-.1.3-.2h.3l.4-.3h.1l.6-.3.2-.1.2-.1.2-.1.2-.1.6.6.2-.1.1-.1h.1a1.6 1.6 0 0 0 .2-.3h.1a.5.5 0 0 0 .1 0l.2-.3h.2l.1-.2.1-.1.1-.1.1-.2h.2v-.2a.6.6 0 0 1 .1-.1.8.8 0 0 1 .1-.2h.1a.6.6 0 0 1 0-.2.6.6 0 0 0 .2-.2 1 1 0 0 1 0-.2l.1-.1a1.2 1.2 0 0 0 .1-.3V74a.1.1 0 0 0 0-.1v-.1a.4.4 0 0 0 0-.1v-.8a.3.3 0 0 0 0-.1v-.5a2.3 2.3 0 0 0 .7-.3Z" fill="url(#y)"/><path d="M314.8 59.4v-.1a2.2 2.2 0 0 0 0-.4v-.5a2 2 0 0 0-.1-.2V58l-.1-.3a.4.4 0 0 0 0-.1.3.3 0 0 0 0-.1 1 1 0 0 0-.2-.2v-.2l-10.7-15.5h-.2L293 57l-.2.2v.2l-.1.2a1 1 0 0 0 0 .2l-.1.2v.3a1.2 1.2 0 0 0 0 .2v.1a.3.3 0 0 0 0 .2.8.8 0 0 0 0 .1v.2a.3.3 0 0 0 0 .1 1 1 0 0 0 0 .2v.6a.3.3 0 0 0 0 .1v.2a1 1 0 0 1 0 .1v.5a.5.5 0 0 0 0 .1 1.2 1.2 0 0 0 .1.2v.1l.2.1v.2h.1v.1a2.6 2.6 0 0 0 .3.3l.1.2h.1v.1h.1v.1l.2.1.2.2a.1.1 0 0 1 .1 0l.1.1h.1l.1.2h.2l.2.2.3.2.4.2.6.3h.1l.6.2.6.2h.1l.5.2h.1l1.2.3h7.7l.3-.1h.7l.8-.3h.1l.5-.2h.1l.6-.2.6-.3h.2l.4-.3h.2l.3-.3h.1l.4-.3.7.2h.1a.5.5 0 0 0 .1-.2 1.1 1.1 0 0 0 .1-.1 1.2 1.2 0 0 0 .2-.2l.2-.2v-.1l.1-.1V62a1.9 1.9 0 0 0 .2-.3.4.4 0 0 1 .1-.1.3.3 0 0 1 0-.1v-.3l.2-.3v-1a2.2 2.2 0 0 0 .5-.5Z" fill="url(#z)"/><g style="isolation:isolate"><path d="M297.7 45a13 13 0 0 1 11.8 0c3.2 2 3.1 5-.2 6.8a13 13 0 0 1-11.7-.1c-3.2-1.9-3.2-5 .1-6.8Zm5.8 3.3v.1a.2.2 0 0 0 .1 0 .2.2 0 0 0-.1 0" fill="url(#A)"/><path d="M311.9 48.6v-.3a1.6 1.6 0 0 0 0-.3 2.6 2.6 0 0 0-.1-.3v-.3a.8.8 0 0 0-.1-.1.7.7 0 0 0 0-.1V47a1 1 0 0 0-.1-.2h-.1l-.1-.2-7.6-11h-.1l-7.7 11-.2.2v.1a2.6 2.6 0 0 0-.1.3l-.1.3c0 .1 0 0 0 0l-.1.4a1.5 1.5 0 0 0 0 .3v1l.2.3a2.5 2.5 0 0 0 .1.4l.2.2.1.1.1.2.2.2.2.1.2.2.1.1.3.2.2.1.3.2.2.1.3.2h.2l.5.3.5.1h.5l.4.2h.1l.4.1.2.4h5.6l.4-.2a3.2 3.2 0 0 0 .3 0 5.2 5.2 0 0 0 .6-.3h.4l.3-.2h.1l.6-.3.4-.2.2-.2h.2l.3-.3.3-.3.3-.3v-.2h.1l.1-.2V50l.2-.2a.4.4 0 0 0 0-.2.9.9 0 0 0 0-.1V49a.7.7 0 0 0 0-.2s.5-.3.5-.3Z" fill="url(#B)"/></g><g style="isolation:isolate"><path d="M177 150.7a3 3 0 0 1-2.8 0c-.8-.5-.8-1.2 0-1.6a3.1 3.1 0 0 1 2.8 0 .9.9 0 0 1 0 1.6Z" fill="url(#C)"/><path d="M177.6 124.4V98.8a1 1 0 0 0-.5-.8 1.5 1.5 0 0 0-.3-.1h-2.5a.7.7 0 0 0-.2.1v.1a1.6 1.6 0 0 0-.2.2.6.6 0 0 0 0 .2v.2l-.2 51a1 1 0 0 0 .6.8 2.3 2.3 0 0 0 .3.1l.2.1h1.7a.5.5 0 0 0 .2 0 2.6 2.6 0 0 0 .3-.2.4.4 0 0 1 .2 0l.1-.2.1-.1v-.1a.4.4 0 0 0 0-.1v-20c.2-1.8.2-3.8.2-5.7Z" fill="#11467a"/><path d="M177 99.7a3 3 0 0 1-2.7 0c-.8-.5-.8-1.2 0-1.7a3.1 3.1 0 0 1 2.8 0 .9.9 0 0 1 0 1.7Zm-1.2-.8c.1 0 .1 0 0-.1a.3.3 0 0 0-.2 0c-.1 0-.1 0 0 .1a.3.3 0 0 0 .2 0" fill="url(#D)"/></g><path d="M201.4 126a1.7 1.7 0 0 0 0-.2v-.4a1.3 1.3 0 0 0 0-.2v-.5a.8.8 0 0 0 0-.2 5 5 0 0 0 0-.6.5.5 0 0 0 0-.2l-.2-.5-.2-.2v-.1l-.2-.4a.7.7 0 0 0 0-.1l-.2-.4v-.4a.7.7 0 0 0-.1 0 2.4 2.4 0 0 0-.1-.4 2.1 2.1 0 0 0-.2-.2v-.1a1.2 1.2 0 0 0 0-.2l-.2-.2-.2-.2v-.1l-.2-.2-.3-.4-.7-.9-.4-.5-1-1.3-.6-1-.4-.4-.3-.4-.1-.1-.6-.8-.5-.7-.8-1.1-.2-.2-1-1.4-.4-.5-.5-.7-.8-.7-.1-.1-1-1.3-1-1.2-.4-.7-.4-.5-.7-.8-.6-.9-.8-1-.1-.2-.8-1-1.2-1.5-.6-.8-.8-1.1-.1-.1-.8-1-.3-.4-.1-.2-2-2.5v-.1l-.4-.5-.4-.5-.4-.5-.2-.3-2-2.7h-.2L152 119.5l-.1.2a1.3 1.3 0 0 0-.2.2l-.1.2-.1.2-.1.1v.1l-.2.2-.1.2-.1.3-.1.1-.1.2-.1.3a1.2 1.2 0 0 0-.1.2l-.1.1a.2.2 0 0 0 0 .1l-.1.3v.3l-.1.2-.1.3v.1a2 2 0 0 0 0 .2l-.2.3v.2a.7.7 0 0 0 0 .1v.4a1.1 1.1 0 0 0 0 .2.5.5 0 0 0 0 .2v1.1a.7.7 0 0 1 0 .1v.6a1 1 0 0 1 0 .1v.1a5.6 5.6 0 0 0 .1.6v.1l.1.5c.1.1 0 0 0 .1a.6.6 0 0 1 0 .1l.2.5v.1l.3.6v.1l.4.6v.1l.2.4.1.1a1.6 1.6 0 0 0 .1.2l.2.2.1.3a1.7 1.7 0 0 1 .1 0l.1.2.2.2.2.3.2.1.4.5.1.1.2.1c0 .2.2.3.3.4a1.3 1.3 0 0 0 .2.1l.2.2.1.2.3.2h.1l.1.1.2.2.3.2.3.2v.1l.4.3.3.1.8.5 1.3.7.2.1h.1l1.3.7h.1l1.2.5h.2l.2.1 1 .4h.4l1.3.5 1.3.3h.5l.8.3h.6l.7.1.3.1h.3l.6.1h2.4l.7.1h9l.5-.1.6-.1h.1l.7-.1.4-.1 1-.2.3-.1 1-.2.3-.1.6-.2 1-.3h.3l.5-.2.5-.2.4-.1.6-.3.6-.2.5-.2.8-.4.3-.1 1-.5.1-.2.3-.1.4-.2v-.1l.3-.1.3-.3h.2l.2-.2.4-.3.2-.2h.2l.3-.4h.2l.2-.2.1-.1.4-.3v-.1l.3-.2.3-.3.1-.2a1 1 0 0 0 .2-.1l.2-.3.2-.2.1-.1a2.4 2.4 0 0 0 .2-.3l.1-.1.1-.2.2-.2.1-.2.2-.2v-.2l.2-.1.1-.3a.6.6 0 0 1 0-.1v-.1l.2-.3a1.7 1.7 0 0 0 .1-.3v-.1l.2-.4v-.5l.2-.2a1.7 1.7 0 0 0 0-.2v-.6a.3.3 0 0 1 0-.1v-.1l.1-.4v-.3a3.9 3.9 0 0 0 .8-.4Z" fill="url(#b)"/><path d="M197.1 102.7v-.2a4.9 4.9 0 0 0 0-.7l-.1-.6v-.1a1.2 1.2 0 0 0 0-.2l-.1-.4a.7.7 0 0 0 0-.2v-.2l-.3-.5v-.2l-.1-.1-.2-.4-.2-.3-19.2-28.4h-.2l-19.4 28.3v.1l-.3.3-.1.3a1 1 0 0 0-.1.2l-.2.3-.1.2a.3.3 0 0 1 0 .1 1.3 1.3 0 0 1 0 .2l-.2.3v.6l-.1.2a2.7 2.7 0 0 0 0 .3v.8a.6.6 0 0 1 0 .2v.4a2.6 2.6 0 0 0 0 .3v.6a2.2 2.2 0 0 0 0 .2v.2a1.2 1.2 0 0 0 0 .2v.3l.1.2v.3l.2.3a1.6 1.6 0 0 0 .1.2v.2l.2.2.1.3.1.2.2.3.2.3.1.2.1.1v.2l.5.4v.1a.5.5 0 0 0 .1 0l.3.4.2.2.1.2h.2l.3.3.2.3.2.1.1.1.2.2.2.1.3.2.2.2h.2l.3.2.1.1.5.3.8.5 1 .5h.4l1 .5 1.1.4h.2l.8.3h.4q1 .4 2.1.6h.4l.7.2h.4l.6.1H182l1.5-.3h.4l.6-.2.4-.1.6-.2h.3l1.5-.5h.2l1-.4h.1l1.1-.5h.2l1-.6h.2l.1-.1.8-.4.2-.2.2-.1h.2l.5-.5.2-.1.6-.5.2-.2.2-.1.2-.2.2-.2.3-.3.3-.4h.1l.2-.3v-.1l.2-.2.4-.5a.4.4 0 0 0 0-.1 2.4 2.4 0 0 0 0-.3h.2v-.3l.2-.1a.3.3 0 0 0 0-.1v-.3l.2-.5c0-.2 0 0 0 0v-.3l.2-.4v-.2a.4.4 0 0 1 0-.1v-.8l.1-.9Z" fill="url(#E)"/><g style="isolation:isolate"><path d="M165.5 75.9c6.1-3.5 15.8-3.4 21.8.2s5.7 9.2-.4 12.6-15.8 3.3-21.7-.2-5.8-9.2.3-12.6Zm10.6 6.3v.1a.3.3 0 0 0 .3 0v-.1a.3.3 0 0 0-.3 0" fill="url(#F)"/><path d="M191.6 82.7V82a5.5 5.5 0 0 0 0-.6 3 3 0 0 0-.2-.5v-.2a2.8 2.8 0 0 0-.1-.3v-.1l-.1-.3-.1-.2-.1-.1-.2-.3v-.2l-.2-.3-14.2-20.5h-.2L162 79l-.3.5-.1.2a4.4 4.4 0 0 0-.3.5 5.1 5.1 0 0 0-.2.6.6.6 0 0 0 0 .1 5.3 5.3 0 0 0-.1.6 5.6 5.6 0 0 0 0 .5v.7a5.4 5.4 0 0 0 0 .6v.1a3.6 3.6 0 0 0 .2.5l.2.6v.1a5.1 5.1 0 0 0 .3.5c0 .2.2.3.3.5l.3.4.2.2.3.3a1.8 1.8 0 0 0 .2.2v.1l.2.2.5.4h.1l.1.2.5.3.1.1.3.2.4.3a5.5 5.5 0 0 0 .6.3l.4.2.3.2h.2l.9.4.8.3h.3l.3.2h.3l.8.3h.2l.7.2h.8l.9.2h7.1l.5-.1h.3l.7-.2h.6l.7-.3.7-.1 1-.4h.3l.6-.3.4-.1.2-.2h.2l1-.5.6-.4.2-.1.2-.2.3-.2.2-.1.5-.5.2-.1.4-.5h.1l.1-.1.4-.5.2-.2v-.2l.3-.4V85l.2-.2.1-.3.1-.1c.1-.1 0-.2 0-.2l.2-.3v-.4a2.6 2.6 0 0 0 0-.3V83a2 2 0 0 0 0-.3 2 2 0 0 0 0-.2.2.2 0 0 0 .3 0Z" fill="url(#G)"/></g><g style="isolation:isolate"><path d="M400.2 197.5a2 2 0 0 1-1.8 0c-.5-.3-.5-.7 0-1a2 2 0 0 1 1.8 0 .6.6 0 0 1 0 1Z" fill="url(#H)"/><path d="M400.7 180.5V164a.6.6 0 0 0-.4-.5l-.2-.1h-1.6l-.1.1-.1.1a.4.4 0 0 0 0 .1l-.1 33a.6.6 0 0 0 .4.6l.2.1h1.2a1 1 0 0 0 .3 0h.1v-.2a.6.6 0 0 0 .2 0 .4.4 0 0 1 0-.1v-16.6Z" fill="#11467a"/><path d="M400.3 164.6a2 2 0 0 1-1.8 0c-.5-.3-.5-.8 0-1.1a2 2 0 0 1 1.8 0c.6.3.6.8 0 1Zm-.8-.5v-.1a.2.2 0 0 0-.2 0 .2.2 0 0 0 .2 0" fill="url(#I)"/></g><path d="M416 181.6v-.4a.5.5 0 0 0 0-.1 1.6 1.6 0 0 0 0-.3.3.3 0 0 0 0-.1v-.4a.3.3 0 0 0 0-.1v-.3a.7.7 0 0 0 0-.2 2 2 0 0 1-.1-.3 2.3 2.3 0 0 0-.1-.3v-.1a.2.2 0 0 0 0-.1l-.1-.2-.1-.1a.3.3 0 0 0 0-.2.6.6 0 0 0-.1-.1l-.1-.2h-.1a.9.9 0 0 0 0-.1v-.1l-.2-.2-.5-.6-.2-.3-.7-.9-.4-.5-.2-.3-.3-.3-.8-.8-.3-.4-.6-.7a1.7 1.7 0 0 0 0-.2l-.8-.8-.2-.4-.3-.4-.4-.5-.7-.9-.6-.8-.3-.4-.3-.3-.4-.6-.4-.5-.5-.7-.1-.1-.5-.7-.8-1-.4-.5-.5-.7-.6-.7-.1-.2-.1-.1-1.3-1.7-.3-.3-.2-.4-.3-.3-.1-.2-1.4-1.7-15.4 19.7-.2.2v.1l-.1.2h-.1v.1a.8.8 0 0 0 0 .1 1 1 0 0 0-.2.2v.1l-.1.1v.2l-.1.1v.1l-.1.1c-.1 0 0 0 0 0l-.1.3v1a.5.5 0 0 0 0 .1v1.3a.4.4 0 0 0 0 .2 2.3 2.3 0 0 0 0 .2v.5l.1.4v.1l.1.3v.1a3 3 0 0 0 .1.4l.2.4.2.3a1 1 0 0 0 .1.2v.1l.2.2.1.1.2.2.1.2.3.3.1.1.3.3a.5.5 0 0 1 .1 0l.2.2.2.2h.1l.2.2.2.1.1.1.1.1.2.2h.2l.5.4.9.4a.3.3 0 0 0 .2.1l.8.4.8.3h.3l.6.3h.2l.9.3.8.3h1.2l.5.2h3a5.4 5.4 0 0 0 .5 0h6l.5-.2h.2l.7-.1h.1l.6-.2h.3l.3-.1h.1l.7-.2h.1l.3-.1.4-.2h.2l.4-.2.4-.1.3-.2.5-.2.1-.1.7-.3.1-.1.2-.1a2 2 0 0 0 .2-.2h.2l.2-.2h.4l.2-.3h.2v-.1l.3-.2.1-.1h.1v-.1l.3-.3h.1l.1-.1.2-.2h.1l.1-.2.2-.2a1 1 0 0 0 .2-.2v-.1l.1-.1.1-.1.1-.2.1-.1.1-.2.1-.2v-.1l.1-.2a1 1 0 0 0 .1-.2l.1-.3v-.2a1 1 0 0 0 0-.2v-.2a.6.6 0 0 0 0-.2.4.4 0 0 0 0-.2.2.2 0 0 1 0-.1v-.4a3 3 0 0 0 .9-.5Z" fill="url(#J)"/><path d="M413.3 166.5v-.1a3 3 0 0 0 0-.5l-.1-.4c-.1-.1 0 0 0 0v-.1l-.2-.4a1 1 0 0 0 0-.2l-.1-.3-.1-.1v-.1a2.1 2.1 0 0 0-.2-.2v-.1a1.7 1.7 0 0 0-.1-.2l-12.4-18.3h-.2l-12.5 18.2a.4.4 0 0 1 0 .1 1.7 1.7 0 0 1-.2.2v.2l-.1.1-.1.2-.1.2a1.3 1.3 0 0 0 0 .3l-.1.1a.2.2 0 0 0 0 .1v.7a1.1 1.1 0 0 0 0 .2 1 1 0 0 0 0 .1v.4a1 1 0 0 1 0 .2.8.8 0 0 1 0 .2v.6a1.8 1.8 0 0 0 0 .2 1.5 1.5 0 0 0 0 .1v.2a1.3 1.3 0 0 0 .1.2l.1.2v.2a1.6 1.6 0 0 0 .2.2v.1l.2.2v.2l.1.1h.1l.3.4.2.3h.1v.1h.1l.1.2a1.4 1.4 0 0 0 .2.1l.2.2a.7.7 0 0 0 .1 0h.1l.1.2h.1l.2.2a1 1 0 0 0 .1 0h.1l.2.2h.1l.3.2.5.3.7.3h.1a7.2 7.2 0 0 0 .8.3l.7.3h.2l.5.1h.1l1.5.4h.9l.4.1h6.6l1-.1h.2l.4-.1h.3l.3-.2h.2l1-.3h.2l.5-.2h.2l.6-.3h.1l.7-.4h.2l.4-.3.2-.1h.1l.1-.1.3-.3h.2l.4-.4.2-.2h.1l.2-.2.1-.2.2-.2.1-.1a.6.6 0 0 0 .1-.1v-.1l.2-.1a.1.1 0 0 0 0-.1l.2-.3v-.1l.1-.1v-.1l.1-.1v-.4l.1-.3v-.1a.1.1 0 0 1 0-.1l.1-.2v-.5c.7-.3.7-.4.7-.5Z" fill="url(#K)"/><g style="isolation:isolate"><path d="M392.9 149.2a15.5 15.5 0 0 1 14 .1c3.8 2.3 3.8 6-.2 8.1a15.5 15.5 0 0 1-14-.1c-3.9-2.3-3.8-6 .2-8.2Zm6.8 4v.2a.2.2 0 0 0 .2 0v-.2a.1.1 0 0 0-.2 0" fill="url(#L)"/><path d="M409.7 153.6v-.4a2.2 2.2 0 0 0 0-.4v-.3a.7.7 0 0 0 0-.1l-.1-.2v-.3l-.1-.1-.1-.3a.5.5 0 0 1-.1 0l-.1-.3-9.3-13.2h-.1l-9.2 13.2a3.1 3.1 0 0 0-.2.3.4.4 0 0 0 0 .1 3.8 3.8 0 0 0-.2.4v.4l-.2.4v.4a2.2 2.2 0 0 0 0 .4v.4a2.3 2.3 0 0 0 .2.4l.1.3c.1.1 0 0 0 .1a2.2 2.2 0 0 0 .2.4l.2.2.2.3.1.2.2.2h.1v.1l.2.1a2 2 0 0 0 .2.3.5.5 0 0 0 .2 0v.1l.3.3h.3l.3.3.3.2h.3l.2.2.7.2.5.2h.2l.2.1h.2l.5.3h.6l.3.1h.2l.5.1h5.1l.5-.1.4-.1.5-.1.4-.1.7-.3h.2l.3-.2h.3l.2-.2.7-.3.4-.3h.1l.2-.1.2-.2.4-.4h.1l.3-.3h.1l.3-.4.1-.1a.4.4 0 0 1 0-.1l.2-.3a1.2 1.2 0 0 0 .1-.2 1.9 1.9 0 0 0 .1-.2v-.2l.1-.2v-.2a1 1 0 0 0 0-.2v-.2a.8.8 0 0 0 0-.2.4.4 0 0 0 .2 0Z" fill="url(#M)"/></g><path d="M310 91.2a31.5 31.5 0 1 0-58.1 16.6c8 13.5 26.7 27.9 26.7 27.9s18.6-14.4 26.7-27.9a31.3 31.3 0 0 0 4.8-16.6Z" fill="#88f9ff"/><path d="M278.6 133.6c-4-3.2-18.6-15.4-25.3-26.7a29.8 29.8 0 1 1 50.6 0 124.8 124.8 0 0 1-25.3 26.7Z" fill="#6669f1"/><circle cx="278.6" cy="91.2" r="21.1" transform="rotate(-76.7 278.6 91.2)" fill="#6669f1" stroke="#fff" stroke-miterlimit="10"/><path d="M280.7 82.5a1.6 1.6 0 0 0-1.9 1l-3.5 12.6a1.6 1.6 0 0 0 1.1 1.9 1.5 1.5 0 0 0 .5 0 1.6 1.6 0 0 0 1.5-1l3.4-12.6a1.6 1.6 0 0 0-1-2Zm-10.5.3a1.6 1.6 0 0 0-2.2.2l-5.2 6.3a1.6 1.6 0 0 0 0 2l5.2 6.2a1.6 1.6 0 0 0 1.2.5 1.6 1.6 0 0 0 1.2-2.5l-4.4-5.3 4.4-5.2a1.6 1.6 0 0 0-.2-2.2Zm24.2 6.4-5.2-6.2a1.6 1.6 0 0 0-2.2-.2 1.6 1.6 0 0 0-.2 2.2l4.3 5.2-4.3 5.3A1.6 1.6 0 0 0 288 98a1.6 1.6 0 0 0 1.2-.6l5.2-6.2a1.6 1.6 0 0 0 0-2Z" fill="#fff"/><path d="M411.8 244.3a25.1 25.1 0 0 1 1.9 3c.3.7 1.3 2.5 1 3.2a2 2 0 0 1-2 .9c-1-.3-1.7-2.6-2.2-2.8a3.8 3.8 0 0 1-.5-.1 1 1 0 0 1-.4-.4 6.3 6.3 0 0 1-.7-1.8 1 1 0 0 1 .1-1c.6-.6 2-1.8 2.8-1ZM383 269c-4.3.5-4.8.6-5.3.5a2 2 0 0 1-1.5-1.9 3 3 0 0 1 .2-.8c.6-.6 2.5-.4 3.7-.6a1.3 1.3 0 0 0 1-.7.9.9 0 0 1 .3-.4c.9-.7 2.8 0 2.8 1.2-.1.8-.1 2.7-1.2 2.8Z" fill="#3657ba"/><path d="M411.4 244.6a24.3 24.3 0 0 1 1.9 3c.3.6 1.3 2.4 1 3a2 2 0 0 1-2 1c-1-.3-1.7-2.5-2.2-2.7l-.5-.2a1.1 1.1 0 0 1-.4-.4 6.3 6.3 0 0 1-.7-1.8 1 1 0 0 1 .1-1c.6-.6 2-1.8 2.8-1Zm-28.4 24c-4.3.4-4.7.5-5.2.4-1.1-.2-1.8-1.7-1.3-2.4s2.4-.7 3.7-.9a1.3 1.3 0 0 0 1-.7.9.9 0 0 1 .3-.4c.9-.6 2.8 0 2.8 1.3 0 .8-.1 2.6-1.2 2.7Z" fill="#fffdf5"/><path d="M390.9 225.8c-.2.1 1.2 1.4 1 1.6-.4 1 .5 1.4 1.4 1.3a41.2 41.2 0 0 1 5 .4 1.4 1.4 0 0 1 .8.6.8.8 0 0 0 .5.4h.2c.7 0 1.4.4 1.9-.3l.7-1.3a.7.7 0 0 0 .1-.6.8.8 0 0 0 0-.2 1.8 1.8 0 0 0-.6-.7 5.5 5.5 0 0 0-3.1 0c-2.2 0-7-1.8-8-1.2Z" fill="#e0f0ff"/><path d="M382 259.3a24 24 0 0 1 1-5c.5-1.5 1.4-5.3 1.8-7 .5-2.4 2-3.9 3.2-6 1-2 2.1-3.5 3-5.3.2-.2.2-.6.3-.7s.4-.8.8-.7c1.5.1 2.5 1.6 3 3a8.4 8.4 0 0 1 1 3.2 13 13 0 0 1 6-.7.5.5 0 0 1 .3.1.5.5 0 0 1 0 .2c.9 2.3 1 4.7 1.9 6.9a1.7 1.7 0 0 1 1.4-.6c.5 0 .9-.5 1.4-.6.8-.2.2-.4 1-.9.7 0 2.2 2.8 1.5 3.2l-3 2.4c-1.6 1.2-3.2 2-3.6 2.4-1 .8-3.3.8-3.8.2-.8-.9-2.2-10.5-2.2-10.5h-1.5l-.3.5-5.5 7.4a17.3 17.3 0 0 0-1.6 4c-.7 2-.6 2.8-1.3 4.8l-1.8 5.5c0 .5-4.1-.3-4-.8.3-1.9.8-3.2 1-5Z" fill="#466cc6"/><path d="M385.6 245.6a50.4 50.4 0 0 1 4.7-8.4l11.7 1.5c.6 1.3 1 5 1.5 8.3.7 1.7-4.7 3.4-5.2 2l-2.1-6h-.4c-.4.7-5 5.2-5 5.2-.6.8-5.7-1.4-5.3-2.6Z" fill="#466cc6"/><path d="M391.4 224.8c.4.2 5.3 2.3 7 3.7a8.4 8.4 0 0 1 1.3 4c0 1.2.2 2.6 2.2 6 .9 1.5-3.3 2.7-5.5 2.6-3.8-.1-6.5-2-6.4-3.5a4 4 0 0 0-.2-1.9c-4-6.4-4.3-7.8-2.7-10.3a2.6 2.6 0 0 1 .9-1 8 8 0 0 1 3.4.4Z" fill="#fffdf5"/><path d="M391.7 247.9c.4-.3 0-.2.4-.6.7-1 1.5-.7 2.5-.6a14.3 14.3 0 0 0 2.7-2.6 26.9 26.9 0 0 0 2.6-4.3l-4.3-5.2 3.7-4.1c.2 1.5 3.5 7.3 3.8 8a3 3 0 0 1 .2 2.2c-.5 1.2-5.6 6.4-5.8 6.7a11 11 0 0 1-1.7 2.2c-1.5 1.4-2.5 1.8-3.8.2a2.5 2.5 0 0 1-.6-.9 1 1 0 0 1 .3-1Z" fill="#e0f0ff"/><path d="M398.3 228.5c.5.5 4.4 5.9 5.1 7.2.6 1-3.8 4.8-4.6 3.6l-4-4.8Z" fill="#fffdf5"/><path d="M392 225.4c.7 1.2 2.7 1.5 2 3.2-.3.8-.7 1.9-1.5 2.2a3.6 3.6 0 0 1-3.3-.7 2.6 2.6 0 0 1-1-2.2 6 6 0 0 1 1.2-2.4 5.8 5.8 0 0 1 .5-.7.8.8 0 0 1 .5-.2.7.7 0 0 1 .3 0 9.6 9.6 0 0 1 1.1.4Z" fill="#c0e3ff"/><path d="M391.7 220.7a4.9 4.9 0 0 1 1.2 5 4.3 4.3 0 0 1-.6 1.5c-1.4 1.8-4.3 5.1-5.7 3.4-.2-.2-2.3-6 0-9 1.7-2 3.8-2 5.1-.9Z" fill="#e0f0ff"/><path d="M391.8 227.7c0-.7.6-1.3.2-1.8-.4-.8-1.1-.2-1.2.5a2.9 2.9 0 0 1 0 .5c-.2.4-.6.6-.8.2a1 1 0 0 1-.1-.4 12.2 12.2 0 0 0-.2-1.5c-.2-.8-2.3-2.3-3.8-2.2 0-2.5 2.5-3.7 4.9-3 1.9.6 3.4 2.8 2.3 5.8a5.9 5.9 0 0 1-1.3 2Z" fill="#446ebc"/></g></g></svg>