<svg width="20" height="20" viewBox="0 0 20 20" fill="none" xmlns="http://www.w3.org/2000/svg">
<rect width="20" height="20" rx="5" fill="#6669F1"/>
<path d="M7.23865 15.0004H5.16536V8.32369H7.23865V15.0004ZM6.20076 7.41294C5.53788 7.41294 5 6.86364 5 6.20076C5 5.8823 5.12651 5.57688 5.35169 5.35169C5.57688 5.12651 5.8823 5 6.20076 5C6.51922 5 6.82464 5.12651 7.04982 5.35169C7.27501 5.57688 7.40151 5.8823 7.40151 6.20076C7.40151 6.86364 6.86364 7.41294 6.20076 7.41294ZM14.9982 15.0004H12.9296V11.7502C12.9296 10.9756 12.9139 9.98232 11.8517 9.98232C10.7738 9.98232 10.6084 10.8238 10.6084 11.6945V15.0004H8.53727V8.32369H10.5256V9.23444H10.5545C10.8313 8.70978 11.5074 8.15618 12.516 8.15618C14.6143 8.15618 15 9.53802 15 11.3327V15.0004H14.9982Z" fill="#F0F9FF"/>
</svg>
