<svg width="23" height="18" fill="none" xmlns="http://www.w3.org/2000/svg"><path d="M22.5 2.133a9.46 9.46 0 0 1-2.65.717A4.57 4.57 0 0 0 21.88.338c-.908.53-1.9.903-2.932 1.101A4.647 4.647 0 0 0 15.577 0c-2.55 0-4.615 2.034-4.615 4.542a4.37 4.37 0 0 0 .119 1.036A13.158 13.158 0 0 1 1.565.83a4.485 4.485 0 0 0-.627 2.283c0 1.575.821 2.967 2.062 3.782a4.57 4.57 0 0 1-2.1-.567v.056c0 2.204 1.595 4.036 3.704 4.454-.397.105-.805.159-1.216.159-.291 0-.582-.028-.868-.085.587 1.805 2.294 3.118 4.315 3.155A9.356 9.356 0 0 1 0 15.947 13.063 13.063 0 0 0 7.066 18c8.501 0 13.146-6.923 13.146-12.928 0-.197-.006-.394-.015-.586A9.304 9.304 0 0 0 22.5 2.133Z" fill="#6669F1"/></svg>